<?xml version="1.0" encoding="UTF-8" standalone="no"?>
<!-- Generator: Adobe Illustrator 15.0.2, SVG Export Plug-In . SVG Version: 6.00 Build 0)  -->

<svg
   xmlns:dc="http://purl.org/dc/elements/1.1/"
   xmlns:cc="http://creativecommons.org/ns#"
   xmlns:rdf="http://www.w3.org/1999/02/22-rdf-syntax-ns#"
   xmlns:svg="http://www.w3.org/2000/svg"
   xmlns="http://www.w3.org/2000/svg"
   xmlns:sodipodi="http://sodipodi.sourceforge.net/DTD/sodipodi-0.dtd"
   xmlns:inkscape="http://www.inkscape.org/namespaces/inkscape"
   id="svg2"
   xml:space="preserve"
   height="744.88"
   width="220"
   version="1.1"
   inkscape:version="0.91 r13725"
   sodipodi:docname="body_diagram_paintracker_report.svg"><sodipodi:namedview
     pagecolor="#ffffff"
     bordercolor="#666666"
     borderopacity="1"
     objecttolerance="10"
     gridtolerance="10"
     guidetolerance="10"
     inkscape:pageopacity="0"
     inkscape:pageshadow="2"
     inkscape:window-width="1920"
     inkscape:window-height="1001"
     id="namedview4286"
     showgrid="false"
     inkscape:zoom="2.1855869"
     inkscape:cx="104.88946"
     inkscape:cy="279.87716"
     inkscape:window-x="-9"
     inkscape:window-y="-9"
     inkscape:window-maximized="1"
     inkscape:current-layer="svg2" /><style
     id="style3">
        path {
            fill:none;
            stroke:#333;
        }
        path.pain, rect.pain_key {
            fill:#ffe500;
        }
        path.severe_pain, rect.severe_key {
            fill: url(#diagonalHatch);
        }
  </style><metadata
     id="metadata8"><rdf:RDF><cc:Work
         rdf:about=""><dc:format>image/svg+xml</dc:format><dc:type
           rdf:resource="http://purl.org/dc/dcmitype/StillImage" /><dc:title></dc:title></cc:Work></rdf:RDF></metadata><defs
     id="defs6"><pattern
       id="diagonalHatch"
       width="5"
       patternUnits="userSpaceOnUse"
       height="10"><rect
         id="rect2993"
         height="110%"
         width="110%"
         y="-5%"
         x="-5%"
         fill="#FFF" /><line
         id="line2995"
         stroke-width="1.5"
         y2="10"
         x2="7"
         stroke="#f51313"
         y1="1"
         x1="-2" /><line
         id="line2997"
         stroke-width="1.5"
         y2="15"
         x2="7"
         stroke="#f51313"
         y1="6"
         x1="-2" /><line
         id="line2999"
         stroke-width="1.5"
         y2="5"
         x2="7"
         stroke="#f51313"
         y1="-4"
         x1="-2" /></pattern><clipPath
       id="clipPath16-7"
       clipPathUnits="userSpaceOnUse"><path
         id="path18-5"
         connector-curvature="0"
         fill="#FFF"
         stroke="#000"
         d="m0,841.89,595.28,0v-841.89h-595.28v841.89z" /></clipPath></defs><path
     id="front_anterior_neck"
     d="m140.82,60.719c-2.0607-0.56812-6.1596-1.5673-8.168-2.4162-2.2584-0.95435-7.3523-3.4328-9.0301-4.2601-1.677-0.8256-1.868-2.3522-1.868-2.3522l0.18771-4.5599c-3.8132,2.3414-7.4827,4.1081-11.68,4.2825-5.2543,0.21927-9.2145-1.2974-12.069-4.5425l0.15034,4.3008s-0.33722,1.5266-2.0142,2.3522c-1.6778,0.82727-6.7726,3.3057-9.0301,4.2601-2.2575,0.95434-7.1613,2.0981-8.8366,2.6072-0.29153,0.088-0.74254,0.13455-1.2932,0.17027,3.3497,1.9336,6.854,3.7086,9.7344,4.6089,7.3773,2.3057,36.869,5.4287,53.92-4.4511zm-45.94,81.281"
     connector-curvature="0"
     stroke="#000"
     stroke-width="0.83058453"
     fill="#FFF" /><path
     id="front_anterior_chest"
     d="m94.88,142c3.1147-3.1147,4.1521-29.093,15.573-29.59,11.94-0.51911,10.382,24.398,16.093,28.551,2.6952,1.9594,7.354,2.7625,11.525,3.0657-0.0241-0.13289-0.049-0.26329-0.0739-0.40034-1.3547-7.3116,0-12.43,1.1686-18.946,1.9054-10.626,6.0882-27.01,6.0882-27.01,0.16363,0.49752,0.74753-11.671,0.74753-11.671-0.059-0.0224-0.1221-0.0424-0.1819-0.0648-9.3698-3.6812-16.582-13.401-20.525-19.845-10.578,1.9743-21.972,1.6271-29.903,0.67028-3.9627,6.4445-11.136,16.042-20.432,19.694-0.28904,0.11379-0.58722,0.21845-0.89288,0.31646,0,0,0.48755,10.805,0.62626,10.381,0,0,4.1828,16.384,6.0882,27.01,1.1686,6.5168,2.5233,11.635,1.1686,18.946-0.0507,0.2716-0.098,0.53074-0.14535,0.78407,4.6737,0.17359,11.151,0.0324,13.075-1.8912z"
     connector-curvature="0"
     stroke="#000"
     stroke-width="0.83058453"
     fill="#FFF" /><path
     id="front_anterior_upper_abdomen"
     d="m140.34,155.7c-0.98424-4.3373-0.98756-4.7559-2.2675-11.677-4.1704-0.30233-8.83-1.1055-11.524-3.0649-5.7103-4.1529-4.1529-29.07-16.093-28.551-11.421,0.49669-12.459,26.475-15.573,29.59-1.9236,1.9236-8.4014,2.0648-13.074,1.8921-1.2093,6.5558-1.2309,7.0359-2.1969,11.293-1.0216,4.496-1.4842,7.1879-2.8398,11.574-0.07974,0.25914-0.15947,0.53407-0.23755,0.81813l67.65,1.0465c-0.1819-0.75666-2.8215-8.4238-3.8431-12.92z"
     connector-curvature="0"
     stroke="#000"
     stroke-width="0.83058453"
     fill="#FFF" /><path
     id="front_anterior_pelvic"
     d="m94.88,185.61c3.1147,9.8632,8.825,15.054,16.093,15.054,4.5134,0,8.4878-2.5989,11.273-6.7626,2.02-3.0208,2.8647-6.8415,5.4844-11.206,3.52-5.8672,11.172-10.795,16.452-14.068l-67.65-1.0457c5.2584,3.1994,15.966,10.483,18.348,18.029z"
     connector-curvature="0"
     stroke="#000"
     stroke-width="0.83058453"
     fill="#FFF" /><path
     id="front_posterior_head"
     d="m126.32,10.862s-3.4444-11.21-16.407-10.406c-2.0524,0-12.764,0.36463-16.285,9.8499,0,0-2.6388,8.2934-1.9245,13.482l0.38872,0.54486s0.93357-0.34137,2.476-0.68772l-0.0532-0.17775s0.17276-19.034,15.573-18.688c15.401,0.34635,14.708,18.515,14.708,18.515l-0.0324,0.17359c1.8854,0.48008,3.4502,1.1113,3.4502,1.1113,0.82892-5.1696-1.8929-13.718-1.8929-13.718z"
     connector-curvature="0"
     stroke="#000"
     stroke-width="0.83058453"
     fill="#FFF" /><path
     id="front_right_cheek"
     d="m110.01,25.137c-0.66447-0.0183-1.363-0.14037-1.9967-0.45766-2.0765-1.0382-3.6338-1.9029-8.1331-1.7301-0.27327,0.0108-0.54155,0.02492-0.80484,0.04319-0.0922,0.0058-0.18024,0.01495-0.27077,0.0216-0.16861,0.01329-0.33722,0.02575-0.50167,0.0407-0.11379,0.0108-0.22426,0.02326-0.33639,0.03572-0.13372,0.01412-0.26828,0.02741-0.39868,0.04319-0.12957,0.01578-0.25499,0.03239-0.38124,0.049-0.10465,0.01412-0.20931,0.02741-0.31147,0.04236-0.14286,0.02076-0.28157,0.04236-0.41861,0.06396-0.0764,0.01163-0.15532,0.02409-0.23008,0.03654-0.15531,0.02575-0.30565,0.05233-0.45349,0.07891-0.049,0.0091-0.098,0.01744-0.14619,0.02658-0.16528,0.03156-0.32559,0.06229-0.48091,0.09386-0.0249,0.005-0.0498,0.01-0.0739,0.01495-0.17193,0.03571-0.33805,0.07143-0.49669,0.10632-1.5457,0.34718-2.4801,0.68855-2.4801,0.68855l-0.38955-0.54486c0.0108,0.07891,0.0199,0.15864,0.0324,0.23589,0,0-1.3539-1.4427-2.5549-0.74753-0.62792,0.36297-0.3231,2.8896,0.43772,4.7559,0.1196,0.29403,0.25,0.57311,0.3912,0.82311,1.0357,1.8364,1.9336,3.0615,1.7949,4.285-0.13787,1.2243,0.96597,4.5582,2.829,4.422,0,0,0.0639,0.96348,0.3314,2.3099l15.068-5.7609-0.0241-8.9736z"
     connector-curvature="0"
     stroke="#000"
     stroke-width="0.83058453"
     fill="#FFF" /><path
     id="front_right_jaw"
     d="m94.964,39.872c0.39951,2.0108,1.2534,4.8772,3.0308,6.6704l1.8838,2.1462c2.4245,1.7999,5.7186,2.6089,10.2,2.5216l-0.0457-17.099-15.068,5.7609z"
     connector-curvature="0"
     stroke="#000"
     stroke-width="0.83058453"
     fill="#FFF" /><path
     id="front_right_brow"
     d="m95.143,23.523c0.15615-0.03156,0.31479-0.06312,0.48091-0.09302,0.0482-0.0091,0.098-0.01744,0.14618-0.02658,0.14868-0.02658,0.29818-0.05316,0.4535-0.07891,0.0756-0.01329,0.15366-0.02409,0.23091-0.03654,0.13787-0.0216,0.27658-0.04319,0.41861-0.06396,0.10216-0.01412,0.20682-0.02741,0.3123-0.04153,0.12625-0.01661,0.25084-0.03405,0.38041-0.049,0.1304-0.01578,0.26496-0.0299,0.39868-0.04319,0.11213-0.01163,0.2226-0.02409,0.33639-0.03488,0.16362-0.01578,0.33306-0.02824,0.50167-0.0407,0.0905-0.0075,0.17941-0.01578,0.27077-0.0216,0.26413-0.01744,0.5324-0.03239,0.80484-0.04236,4.4993-0.17359,6.0566,0.69188,8.1331,1.7301,0.63374,0.31646,1.3323,0.43855,1.9967,0.45766l-0.06-20.353c-15.261-0.2293-15.436,18.686-15.436,18.686l0.0532,0.17692c0.00083,0,0.002-0.000831,0.004-0.000831,0.15947-0.03488,0.32476-0.0706,0.49669-0.10632,0.0241-0.005,0.049-0.01,0.0739-0.01495z"
     connector-curvature="0"
     stroke="#000"
     stroke-width="0.83058453"
     fill="#FFF" /><path
     id="front_left_cheek"
     d="m124.27,23.35c-0.006-0.0017-0.0116-0.0025-0.0174-0.0042-0.42443-0.09801-0.85882-0.18356-1.2891-0.2525-0.0914-0.01412-0.18273-0.0299-0.2741-0.04236-0.0872-0.01246-0.17359-0.02243-0.2608-0.03239-0.10715-0.01329-0.21512-0.02492-0.32061-0.03488-0.0772-0.0075-0.15449-0.01329-0.2309-0.0191-0.12043-0.0091-0.23921-0.01412-0.35715-0.01827-0.0615-0.0025-0.12376-0.0058-0.18522-0.0066-0.17775-0.0017-0.353-0.000831-0.52161,0.01-3.8008,0.22343-7.9603,1.7309-7.9603,1.7309s-1.3364,0.49919-2.8481,0.45683l0.0241,8.9736,0.22841-0.0872,14.941,5.1114c0.0872-0.62793,0.11296-1.0175,0.11296-1.0175,1.8638,0.13705,2.9677-3.1969,2.829-4.4212-0.13871-1.2243,0.75915-2.4494,1.7949-4.2858,0.31895-0.56563,0.58806-1.2724,0.78823-1.9909,0.44851-1.6163,0.5432-3.2966,0.0407-3.5865-1.201-0.6952-2.554,0.74752-2.554,0.74752s-1.5648-0.63124-3.4502-1.1113c-0.16113-0.0407-0.32476-0.08057-0.48921-0.11877z"
     connector-curvature="0"
     stroke="#000"
     stroke-width="0.83058453"
     fill="#FFF" /><path
     id="front_left_jaw"
     d="m120.25,48.04,1.6994-0.94188c2.2118-2.231,2.9943-6.1239,3.2492-7.9628l-14.941-5.1114-0.22841,0.0872,0.0457,17.099c0.48091-0.009,0.97179-0.0257,1.4809-0.0556,2.206-0.12958,4.8822-0.77245,8.6954-3.1147z"
     connector-curvature="0"
     stroke="#000"
     stroke-width="0.83058453"
     fill="#FFF" /><path
     id="front_left_brow"
     d="m112.85,24.68s4.1604-1.5067,7.9603-1.7309c0.16861-0.01,0.34386-0.01163,0.52161-0.0091,0.0615,0.00083,0.12376,0.0042,0.18522,0.0066,0.11794,0.0042,0.23672,0.01,0.35715,0.01827,0.0764,0.0058,0.15366,0.01246,0.2309,0.01993,0.10632,0.01,0.21263,0.0216,0.32061,0.03405,0.0864,0.0108,0.17359,0.02077,0.2608,0.03239,0.0914,0.01329,0.18273,0.02741,0.27493,0.04236,0.4319,0.06894,0.86463,0.15449,1.2891,0.2525,0.006,0.00083,0.0116,0.0025,0.0174,0.0033,0.16529,0.03821,0.32809,0.07807,0.48922,0.1196l0.0324-0.17359s0.69271-18.169-14.708-18.515c-0.0465-0.00083-0.088,0.0033-0.13455,0.0025l0.0548,20.355c1.5117,0.0424,2.8481-0.45766,2.8481-0.45766z"
     connector-curvature="0"
     stroke="#000"
     stroke-width="0.83058453"
     fill="#FFF" /><path
     id="front_right_anterior_medial_upper_thigh"
     d="m94.88,185.61c-0.59055-1.8705-1.6936-3.7235-3.0964-5.5034l-5.9221,64.683c4.275,0.75417,8.668,2.9702,12.066,5.0541,1.6047-7.3258,3.3954-15.357,3.9727-18.551,1.6529-9.1339,5.4744-19.868,6.2294-21.803l2.0009-4.9312v-3.893c-6.7934-0.45516-12.279-5.6455-15.25-15.054z"
     connector-curvature="0"
     stroke="#000"
     stroke-width="0.83058453"
     fill="#FFF" /><path
     id="front_right_anterior_medial_knee"
     d="m79.113,275.41c3.6745,1.0465,7.9952,1.1055,11.886,0.7957,1.0283-3.7144,3.3647-8.3673,4.2053-13.332,0.39369-2.3256,1.5042-7.4794,2.7226-13.038-3.3971-2.0839-7.7909-4.2999-12.065-5.0541l-6.7485,30.628z"
     connector-curvature="0"
     stroke="#000"
     stroke-width="0.83058453"
     fill="#FFF" /><path
     id="front_right_medial_ankle"
     d="m72.259,331.18-2.231,14.285c5.3249,0.79487,5.2917,0.85384,9.1937,1.1786,0.009-0.61796,0.0598-1.2849,0.18605-2.0291,0,0,0.36214-1.7459,0.90202-2.6205s0.60549-2.4128,0.41363-3.9926c-0.16197-1.358-0.33141-3.53-0.10632-5.952-2.9129,0.12375-5.7784-0.26745-8.3573-0.86963z"
     connector-curvature="0"
     stroke="#000"
     stroke-width="0.83058453"
     fill="#FFF" /><path
     id="front_right_anterior_lateral_upper_thigh"
     d="m76.531,167.58c-1.2567,4.5375-2.3389,12.202-2.2766,19.083,0.06396,7.3116-0.82311,24.589-0.81231,32.443,0.0083,6.5375,0.6736,18.593,0.96846,24.825,3.52,0.00083,7.6746,0.1902,11.452,0.85716l5.9212-64.683c-4.2592-5.4013-11.297-10.118-15.252-12.525z"
     connector-curvature="0"
     stroke="#000"
     stroke-width="0.83058453"
     fill="#FFF" /><path
     id="front_right_anterior_lateral_knee"
     d="m74.534,246.89c0.12542,4.1189-2.0565,8.3972-2.4054,12.404-0.35051,4.0001-0.96514,9.1846-2.3971,12.231-0.02658,0.0573-0.05648,0.1221-0.08555,0.18522,2.976,1.4186,6.2834,2.7941,9.467,3.7003l6.7485-30.628c-3.7767-0.66613-7.9312-0.85633-11.451-0.85716,0.05897,1.2525,0.10299,2.275,0.12459,2.9644z"
     connector-curvature="0"
     stroke="#000"
     stroke-width="0.83058453"
     fill="#FFF" /><path
     id="front_right_lateral_ankle"
     d="m72.259,331.18c-2.412-0.56396-4.5749-1.3107-6.285-1.9992,0.4319,5.7717,0.22343,11.47-1.8912,14.002-0.15034,0.17941-0.2932,0.34885-0.43772,0.51995,1.3455,0.50998,2.8456,0.94188,4.4195,1.3073l1.9643,0.45516,2.231-14.285z"
     connector-curvature="0"
     stroke="#000"
     stroke-width="0.83058453"
     fill="#FFF" /><path
     id="front_right_top_of_foot"
     d="m79.225,346.97c-0.00083-0.10881-0.005-0.21346-0.003-0.32559-2.9037-0.2417-6.1937-0.62876-9.3158-1.2409-2.2426-0.43938-4.3996-0.99504-6.2618-1.701-3.177,3.7684-5.0757,5.6305-7.163,6.511-2.1836,0.92112-4.986,1.4352-6.3747,2.2974-1.3887,0.86214-2.0981,1.4851-3.1072,2.0225-1.0067,0.53905-1.9569,2.1919-0.72842,3.0449,0,0-0.74088,0.907-0.36047,1.3588,0.38207,0.45184,0.79404,0.71347,1.3248,0.67609,0,0-0.86796,0.88292-0.40117,1.608,0.4643,0.7226,1.2716,0.60217,1.6105,0.52991,0,0-1.2309,1.0822-0.52078,1.9112,0.71015,0.82976,1.8879,0.83474,3.2551,0.48756,0,0-0.08057,0.21263-0.08306,0.50333-0.0025,0.40367,0.14784,0.95767,0.8879,1.3073,1.2708,0.60301,2.8821,1.1354,5.6056-0.27658,0.39702-0.20516,0.71929-0.34968,0.99919-0.45849,1.5407-6.7161,17.024-16.137,20.637-18.255z"
     connector-curvature="0"
     stroke="#000"
     stroke-width="0.83058453"
     fill="#FFF" /><path
     id="front_right_medial_foot"
     d="m62.615,364.6c2.8306-0.87543,3.1487-2.368,4.8664-3.6238,1.7185-1.2583,3.7111-2.5964,6.0325-2.785,2.3207-0.18522,5.2028-0.21512,6.1696-3.5981,0.7874-2.7584-0.42027-4.4951-0.45765-7.6223-3.6114,2.118-19.096,11.539-20.637,18.255,1.6379-0.63705,1.6097,0.12127,4.0267-0.62543z"
     connector-curvature="0"
     stroke="#000"
     stroke-width="0.83058453"
     fill="#FFF" /><path
     id="front_right_anterior_medial_lower_leg"
     d="m90.999,276.21c-0.52244,0.0415-1.054,0.0756-1.5897,0.10216,0.43772-0.0158,0.87793-0.0349,1.3248-0.0581-1.6329,4.2468-14.946,26.379-14.946,26.379s-0.0033-0.0183-0.0075-0.0457l-3.4162,27.854-0.10548,0.73839c2.5798,0.60218,5.4445,0.99338,8.3582,0.8688,0.0365-0.3937,0.0814-0.79321,0.14037-1.1977,0.42443-2.8946,0.58473-12.347,2.9702-18.712,2.3863-6.3698,5.0483-13.593,4.8689-19.49-0.17941-5.898,1.3148-11.641,2.1645-15.496,0.0673-0.30482,0.15034-0.62128,0.23838-0.94105z"
     connector-curvature="0"
     stroke="#000"
     stroke-width="0.83058453"
     fill="#FFF" /><path
     id="front_right_anterior_lateral_lower_leg"
     d="m75.781,302.58c-0.20598-1.1819-4.7559-27.232-5.9295-30.776,0.03489,0.0166,0.06728,0.0307,0.10133,0.0473-0.10133-0.0473-0.20516-0.0947-0.30566-0.14286-1.5009,3.2592-5.4844,13.441-6.1928,19.902-0.72178,6.5849,0.04984,19.806,1.2567,27.359,0.46596,2.9178,0.99089,6.5757,1.2625,10.205,1.7102,0.68855,3.873,1.4352,6.2859,1.9992l0.10548-0.73838,3.4162-27.854z"
     connector-curvature="0"
     stroke="#000"
     stroke-width="0.83058453"
     fill="#FFF" /><path
     id="front_right_patellar_tendon"
     d="m89.41,276.31c-3.4511,0.17276-7.1156,0.009-10.297-0.89786-1.7691-0.50334-3.5748-1.1545-5.3415-1.8746-0.87627-0.353-1.7916-0.7467-2.7517-1.1877-0.36047-0.16362-0.71513-0.32891-1.0665-0.49503-0.03488-0.0158-0.06728-0.0307-0.10216-0.0473,1.1736,3.5449,5.7244,29.595,5.9304,30.776,0.005,0.0274,0.0075,0.0465,0.0075,0.0465s13.313-22.133,14.946-26.379c-0.44685,0.0233-0.88706,0.0424-1.3248,0.0581z"
     connector-curvature="0"
     stroke="#000"
     stroke-width="0.83058453"
     fill="#FFF" /><path
     id="front_left_anterior_medial_upper_thigh"
     d="m125.83,186.72c0.59054-1.8705,1.6936-3.7235,3.0964-5.5034l5.9212,64.683c-4.2742,0.75417-8.668,2.9702-12.065,5.0541-1.6047-7.3258-3.3954-15.357-3.9727-18.551-1.6529-9.1339-5.4744-19.868-6.2302-21.803l-2.4104-6.1364v-3.6562c6.9088-0.7359,12.689-4.6779,15.661-14.087z"
     connector-curvature="0"
     stroke="#000"
     stroke-width="0.83058453"
     fill="#FFF" /><path
     id="front_left_anterior_medial_knee"
     d="m141.59,276.53c-3.6745,1.0465-7.9952,1.1055-11.886,0.7957-1.0283-3.7144-3.3655-8.3673-4.2044-13.332-0.3937-2.3256-1.505-7.4794-2.7227-13.038,3.3971-2.0839,7.7909-4.2999,12.065-5.0541l6.7485,30.628z"
     connector-curvature="0"
     stroke="#000"
     stroke-width="0.83058453"
     fill="#FFF" /><path
     id="front_left_medial_ankle"
     d="m148.45,332.3,2.0939,14.279s-5.574,0.89537-9.0567,1.1861c-0.009-0.61796-0.0598-1.2849-0.18605-2.0291,0,0-0.36214-1.7459-0.90202-2.6205-0.54071-0.8746-0.60633-2.4128-0.41363-3.9926,0.16279-1.358,0.33306-3.53,0.10715-5.952,2.9137,0.12376,5.7775-0.26744,8.3582-0.86962z"
     connector-curvature="0"
     stroke="#000"
     stroke-width="0.83058453"
     fill="#FFF" /><path
     id="front_left_anterior_lateral_upper_thigh"
     d="m144.17,168.7c1.2567,4.5375,2.3389,12.201,2.2775,19.082-0.064,7.3116,0.82311,24.589,0.81231,32.443-0.008,6.5375-0.6736,18.593-0.96846,24.825-3.5192,0.00083-7.6746,0.1902-11.451,0.85716l-5.9212-64.683c4.2592-5.4005,11.297-10.117,15.252-12.524z"
     connector-curvature="0"
     stroke="#000"
     stroke-width="0.83058453"
     fill="#FFF" /><path
     id="front_left_anterior_lateral_knee"
     d="m146.17,248.01c-0.12542,4.1189,2.0565,8.3972,2.4062,12.404,0.34968,4.0001,0.96514,9.1846,2.3971,12.231,0.0266,0.0573,0.0565,0.1221,0.0856,0.18522-2.9752,1.4186-6.2834,2.7941-9.4662,3.7003l-6.7485-30.628c3.7767-0.66613,7.9313-0.85633,11.451-0.85716-0.059,1.2525-0.10299,2.275-0.12458,2.9644z"
     connector-curvature="0"
     stroke="#000"
     stroke-width="0.83058453"
     fill="#FFF" /><path
     id="front_left_lateral_ankle"
     d="m148.45,332.3c2.412-0.56397,4.5749-1.3107,6.2859-1.9992-0.4319,5.7717-0.22343,11.47,1.8921,14.002,0.14951,0.17941,0.2932,0.34884,0.43689,0.51994-1.3456,0.50998-2.8456,0.94189-4.4195,1.3073l-1.9411,0.44852-2.2534-14.279z"
     connector-curvature="0"
     stroke="#000"
     stroke-width="0.83058453"
     fill="#FFF" /><path
     id="front_left_top_of_foot"
     d="m173.71,355.65c-1.0083-0.53739-1.7185-1.1603-3.1072-2.0225-1.3879-0.86297-4.1911-1.3771-6.3747-2.2974-2.0873-0.88042-3.986-2.7426-7.163-6.511-1.853,0.70185-3.9968,1.255-6.2269,1.6936-3.133,0.61629-6.4362,1.005-9.3507,1.2484,0,0,17.574,10.365,19.996,17.979,0.0465,0.14535,0.0781,0.28489,0.11462,0.42609,0.37542,0.1005,0.84803,0.28738,1.5208,0.63456,2.7243,1.4112,4.3348,0.87959,5.6056,0.27659,1.1437-0.54071,0.88457-1.5673,0.81978-1.7725-0.007-0.0232-0.0133-0.039-0.0133-0.039,1.3672,0.34719,2.5441,0.34304,3.2551-0.48672,0.71098-0.82975-0.52077-1.912-0.52077-1.912,0.33971,0.0731,1.147,0.19352,1.6105-0.52909,0.46679-0.72593-0.40117-1.608-0.40117-1.608,0.53074,0.0374,0.94271-0.22426,1.3256-0.67609,0.38041-0.45184-0.36047-1.3588-0.36047-1.3588,1.2284-0.85218,0.27741-2.5059-0.72842-3.0449z"
     connector-curvature="0"
     stroke="#000"
     stroke-width="0.83058453"
     fill="#FFF" /><path
     id="front_left_medial_foot"
     d="m141.48,347.76c0.049,3.339-1.2758,5.094-0.46181,7.9479,0.96763,3.383,3.8489,3.4129,6.1696,3.5981,2.3207,0.18771,4.3141,1.5266,6.0325,2.785,1.7176,1.2567,2.0358,2.7484,4.8656,3.6247,2.1321,0.65865,2.358,0.14369,3.5042,0.44935-0.0366-0.1412-0.0681-0.28074-0.11379-0.42609-2.4228-7.6131-19.997-17.979-19.997-17.979z"
     connector-curvature="0"
     stroke="#000"
     stroke-width="0.83058453"
     fill="#FFF" /><path
     id="front_left_anterior_medial_lower_leg"
     d="m144.9,303.51c-1.5499-2.5848-13.249-22.13-14.774-26.094,2.4128,0.12542,4.6588,0.16446,7.0417-0.0889-2.4818,0.23755-5.0549,0.18937-7.462-0.003,0.088,0.31977,0.1711,0.63539,0.23755,0.94105,0.84968,3.8547,2.3439,9.5974,2.1645,15.496-0.17941,5.898,2.4834,13.122,4.8689,19.49,2.3863,6.3648,2.5466,15.817,2.971,18.712,0.059,0.40533,0.10382,0.80401,0.14036,1.1985,2.9137,0.12376,5.7776-0.26744,8.3582-0.86962l-0.10549-0.73839-3.4394-28.044z"
     connector-curvature="0"
     stroke="#000"
     stroke-width="0.83058453"
     fill="#FFF" /><path
     id="front_left_anterior_lateral_lower_leg"
     d="m157.25,292.73c-0.70848-6.4603-4.6911-16.642-6.1928-19.902-2.7725,13.872-5.986,30.968-5.986,30.968s-0.0606-0.10051-0.1711-0.28406l3.4394,28.044,0.10549,0.73839c2.4128-0.56397,4.5757-1.3115,6.2859-1.9992,0.27243-3.6288,0.79736-7.2867,1.2625-10.205,1.2077-7.5533,1.9784-20.775,1.2575-27.359z"
     connector-curvature="0"
     stroke="#000"
     stroke-width="0.83058453"
     fill="#FFF" /><path
     id="front_left_anterior_shoulder"
     d="m145.82,85.935c4.5632,1.7932,11.341,1.6745,16.676,1.1728-0.28406-2.9062-0.53323-5.9536-1.1138-8.9022-1.2401-6.3008-4.7684-11.334-8.1538-14.476-3.3846-3.1429-10.063-2.3107-11.739-2.819-0.18439-0.0556-0.41363-0.12126-0.66862-0.19186-4.5159,2.6172-9.9056,4.3215-15.524,5.3706,3.9436,6.4445,11.155,16.164,20.525,19.845z"
     connector-curvature="0"
     stroke="#000"
     stroke-width="0.83058453"
     fill="#FFF" /><path
     id="front_left_anterior_medial_upper_arm"
     d="m160.16,112.41-6.0392-25.021c-2.9436-0.11711-5.8033-0.51496-8.1181-1.3896l-0.68607,11.459c0.7982,3.1637,2.6844,11.016,5.8108,17.882l9.462-2.103-0.42858-0.82726z"
     connector-curvature="0"
     stroke="#000"
     stroke-width="0.83058453"
     fill="#FFF" /><path
     id="front_left_anterior_medial_wrist"
     d="m179.29,162.8c2.7526,3.1396,5.1729,6.001,5.697,6.5492,1.0515,1.103,1.7077,2.9212,2.1006,4.7252,0.044,0.20017,0.0855,0.42858,0.12791,0.67361l6.8282-4.7003-6.8938-11.437-7.859,4.1895z"
     connector-curvature="0"
     stroke="#000"
     stroke-width="0.83058453"
     fill="#FFF" /><path
     id="front_left_anterior_medial_elbow"
     d="m160.59,113.24-9.462,2.103c0.94106,2.0665,2.0408,4.2551,3.3323,6.54,1.7392,3.0773,0.93939,2.4361,1.7808,6.354,0.14203,0.6628,0.31645,1.373,0.51746,2.1105l10.497-4.2551-6.6646-12.852z"
     connector-curvature="0"
     stroke="#000"
     stroke-width="0.83058453"
     fill="#FFF" /><path
     id="front_left_anterior_medial_forearm"
     d="m187.15,158.61-19.726-32.185-0.17443-0.33556-10.496,4.2551c0.98673,3.628,2.652,8.0102,4.7202,11.608,2.4901,4.3307,6.4063,9.3075,10.079,12.583,1.8464,1.6462,4.9627,5.099,7.7402,8.2676l7.8598-4.1895-0.002-0.002z"
     connector-curvature="0"
     stroke="#000"
     stroke-width="0.83058453"
     fill="#FFF" /><path
     id="front_left_anterior_lateral_upper_arm"
     d="m160.59,113.24,9.5252-2.1163c-0.64454-5.0242-4.4278-10.838-5.9711-15.01-0.95351-2.5781-1.3223-5.6986-1.6462-9.0027-2.5922,0.24337-5.5234,0.39453-8.3756,0.28157l6.0392,25.021,0.42858,0.82726z"
     connector-curvature="0"
     stroke="#000"
     stroke-width="0.83058453"
     fill="#FFF" /><path
     id="front_left_anterior_lateral_wrist"
     d="m192.74,155.64-5.5815,2.976,6.8938,11.438,6.1621-4.2418c-2.0399-2.1595-4.844-6.2917-7.4744-10.171z"
     connector-curvature="0"
     stroke="#000"
     stroke-width="0.83058453"
     fill="#FFF" /><path
     id="front_left_anterior_lateral_elbow"
     d="m167.25,126.09,9.4138-3.8165c-2.2816-2.8256-4.3747-5.0092-5.0923-5.7991-1.4095-1.5524-1.3995-4.868-1.3995-4.868-0.0141-0.16031-0.0415-0.32393-0.0615-0.48507l-9.5243,2.1163,6.6646,12.852z"
     connector-curvature="0"
     stroke="#000"
     stroke-width="0.83058453"
     fill="#FFF" /><path
     id="front_left_anterior_lateral_forearm"
     d="m167.43,126.43,19.726,32.185,0.002,0.002,5.5815-2.9752c-0.45599-0.67194-0.90617-1.3364-1.3472-1.9809-3.9253-5.7501-5.6181-15.46-8.653-22.082-1.4901-3.2509-3.868-6.5749-6.0699-9.3017l-9.4138,3.8165,0.17443,0.33556z"
     connector-curvature="0"
     stroke="#000"
     stroke-width="0.83058453"
     fill="#FFF" /><path
     id="front_left_anterior_2nd_-_4th_digits"
     d="m214.6,187.58-20.506-17.544,6.2294,19.986,6.5375,14.528c0.39121,0.0947,0.80235,0.0465,1.255-0.1603,1.3912-0.64038-0.21761-4.0956-0.21761-4.0956-0.44768-1.0191-1.3073-2.8647-2.5391-4.9677-0.89038-1.5191-1.3015-3.7891-1.4627-4.9386-0.0623-0.4427-0.088-0.72427-0.088-0.72427,0.50583,0.61795,2.5956,5.28,3.5665,6.6555,0.96846,1.3738,2.3713,4.4162,3.6712,5.7966,1.299,1.3804,2.2019,0.57144,2.2019,0.57144,1.8672-1.6313-2.0275-8.2942-3.1753-10.282-1.1462-1.9884-1.1097-4.3224-1.1097-4.3224,1.4269,1.3572,3.2484,4.9046,4.574,6.7967,1.3256,1.8904,2.4153,4.28,4.2061,3.3082,1.7916-0.97013-0.0374-4.9038-0.80318-6.251-0.70682-1.2367-1.4344-2.5848-2.3381-4.3556z"
     connector-curvature="0"
     stroke="#000"
     stroke-width="0.83058453"
     fill="#FFF" /><path
     id="front_left_anterior_thumb"
     d="m214.6,187.58c-0.0797-0.15698-0.15947-0.3123-0.24253-0.47675-1.02-2.0108-1.8323-4.319-3.0707-6.0982-1.2401-1.7791-1.7816-3.6828-1.7816-3.6828,2.3381,2.4178,5.6123,3.118,7.6596,3.2002,2.0457,0.0814,2.5723-2.1836,0.85218-3.2567-1.0108-0.63041-2.6006-2.049-3.5624-2.6504-0.96099-0.59968-3.1928-2.0698-5.1305-3.7218-1.9369-1.652-5.1347-3.0117-7.2086-3.6047-0.49835-0.14286-1.1512-0.67443-1.9078-1.476l-6.1131,4.2086-0.00083,0.0141,20.506,17.544z"
     connector-curvature="0"
     stroke="#000"
     stroke-width="0.83058453"
     fill="#FFF" /><path
     id="front_left_anterior_5th_digit"
     d="m194.1,170.03-0.01-0.007-0.54154,0.37293-6.3257,4.3539c0.33887,1.9693,0.65699,5.2277,1.3181,6.9495,0.74587,1.9311,1.4477,4.0009,2.3647,5.4495,0.91862,1.4494,2.5366,3.8689,3.5458,5.8191,1.0067,1.9494,2.7899,5.4644,4.1147,7.3556,1.3281,1.8937,1.6911,1.3738,1.6911,1.3738,1.3298-0.62626,1.3763-1.9411,0.19352-4.3614-0.75915-1.5565-2.7476-6.3133-2.7476-6.3133s0.91281,1.0623,1.2932,1.706c0.37709,0.64038,1.7301,3.0449,2.6429,4.1072,0.91447,1.0623,1.662,3.3813,2.8738,5.3606,0.81647,1.3339,1.5407,2.152,2.3539,2.3481l-6.5375-14.528-6.2294-19.986z"
     connector-curvature="0"
     stroke="#000"
     stroke-width="0.83058453"
     fill="#FFF" /><path
     id="front_right_anterior_medial_upper_arm"
     d="m59.309,113.45,6.3407-25.379c2.9436-0.11711,6.1056-0.39785,8.4213-1.2716l0.48506,10.178c-0.79819,3.1629-3.0873,12.539-6.2136,19.404l-9.462-2.103,0.42858-0.82726z"
     connector-curvature="0"
     stroke="#000"
     stroke-width="0.83058453"
     fill="#FFF" /><path
     id="front_right_anterior_medial_wrist"
     d="m40.173,163.84c-2.7526,3.1396-5.172,6.001-5.697,6.5492-1.0515,1.103-1.7077,2.9212-2.1005,4.7252-0.04319,0.20017-0.08555,0.42858-0.12791,0.67361l-6.8282-4.7003,6.8939-11.437,7.8598,4.1895z"
     connector-curvature="0"
     stroke="#000"
     stroke-width="0.83058453"
     fill="#FFF" /><path
     id="front_right_anterior_medial_elbow"
     d="m58.88,114.28,9.4628,2.103c-0.94105,2.0665-2.0407,4.2551-3.3323,6.54-1.7392,3.0773-0.93939,2.4361-1.7808,6.354-0.14203,0.6628-0.31645,1.373-0.51745,2.1105l-10.496-4.2551,6.6646-12.852z"
     connector-curvature="0"
     stroke="#000"
     stroke-width="0.83058453"
     fill="#FFF" /><path
     id="front_right_anterior_medial_forearm"
     d="m32.315,159.65,19.726-32.185,0.17442-0.33556,10.497,4.2551c-0.98673,3.628-2.6521,8.0102-4.7202,11.608-2.4893,4.3307-6.4055,9.3075-10.079,12.583-1.8464,1.6462-4.9627,5.099-7.7402,8.2676l-7.859-4.1895,0.0017-0.002z"
     connector-curvature="0"
     stroke="#000"
     stroke-width="0.83058453"
     fill="#FFF" /><path
     id="front_right_anterior_lateral_upper_arm"
     d="m58.88,114.28-9.5243-2.1163c0.64453-5.0242,4.4278-10.838,5.9711-15.01,0.95351-2.5781,1.6396-6.2601,1.9635-9.5642,2.5923,0.24336,5.447,0.47676,8.3,0.3638l-6.2809,25.501-0.42858,0.82726z"
     connector-curvature="0"
     stroke="#000"
     stroke-width="0.83058453"
     fill="#FFF" /><path
     id="front_right_anterior_lateral_wrist"
     d="m26.732,156.68,5.5815,2.976-6.8939,11.438-6.1621-4.2418c2.0399-2.1595,4.844-6.2917,7.4744-10.171z"
     connector-curvature="0"
     stroke="#000"
     stroke-width="0.83058453"
     fill="#FFF" /><path
     id="front_right_anterior_lateral_elbow"
     d="m52.215,127.13-9.4138-3.8165c2.2824-2.8256,4.3755-5.0092,5.0923-5.7991,1.4103-1.5524,1.3995-4.868,1.3995-4.868,0.01412-0.16031,0.04153-0.32393,0.06146-0.48507l9.5251,2.1163-6.6646,12.852z"
     connector-curvature="0"
     stroke="#000"
     stroke-width="0.83058453"
     fill="#FFF" /><path
     id="front_right_anterior_lateral_forearm"
     d="m52.041,127.46-19.726,32.185-0.0017,0.002-5.5815-2.9752c0.45599-0.67195,0.90617-1.3364,1.3472-1.981,3.9253-5.7501,5.6181-15.46,8.653-22.082,1.4901-3.2509,3.868-6.5749,6.0699-9.3017l9.4138,3.8165-0.17442,0.33556z"
     connector-curvature="0"
     stroke="#000"
     stroke-width="0.83058453"
     fill="#FFF" /><path
     id="front_right_anterior_shoulder"
     d="m74.96,86.455c9.2967-3.6521,16.469-13.249,20.432-19.694-3.7626-0.4535-6.7468-1.044-8.4919-1.5897-2.8805-0.90035-6.3847-2.6745-9.7344-4.6081-2.6155,0.16694-7.6505,0.0523-10.446,2.6479-3.3863,3.1421-6.9138,8.1754-8.1538,14.476-0.64287,3.2708-0.87959,6.6621-1.2093,9.8482,5.4561,0.57394,12.771,0.81813,17.604-1.0806z"
     connector-curvature="0"
     stroke="#000"
     stroke-width="0.83058453"
     fill="#FFF" /><path
     id="front_right_anterior_2nd_-_4th_digits"
     d="m25.037,170.83-0.13622-0.093-18.777,15.23c-0.3314,0.73756-0.66198,1.4751-1.0166,2.1753-1.02,2.0133-1.8107,3.4851-2.5806,4.8323-0.7658,1.3464-2.5947,5.2808-0.80318,6.251,1.7907,0.97178,2.8805-1.417,4.2061-3.3074,1.3256-1.8921,3.1471-5.4395,4.574-6.7967,0,0,0.03655,2.3339-1.1097,4.3224-1.1479,1.9876-5.0425,8.6497-3.1753,10.282,0,0,0.90202,0.80899,2.201-0.57061,1.2999-1.3804,2.7027-4.422,3.6712-5.7966,0.97095-1.3754,3.0615-6.0375,3.5665-6.6555,0,0-0.04734,0.52991-0.17608,1.2982-0.20432,1.2284-0.61629,3.0707-1.3746,4.3647-1.2309,2.103-2.0906,3.9486-2.5391,4.9677,0,0-1.6088,3.4561-0.21761,4.0956,0.09967,0.0457,0.19602,0.0814,0.29237,0.11213,2.4021-5.2069,7.2543-15.518,7.2543-15.518l6.1413-19.191z"
     connector-curvature="0"
     stroke="#000"
     stroke-width="0.83058453"
     fill="#FFF" /><path
     id="front_right_anterior_thumb"
     d="m19.257,166.85c-0.75666,0.80069-1.4095,1.3331-1.9079,1.476-2.074,0.59304-5.2709,1.9527-7.2086,3.6056-1.9378,1.652-4.1687,3.1213-5.1297,3.7218-0.96265,0.60134-2.5524,2.02-3.5632,2.6504-1.7193,1.0731-1.1927,3.3381,0.85218,3.2567,2.0474-0.0814,5.3216-0.78158,7.6605-3.1994,0,0-0.54154,1.9029-1.7824,3.6828-0.80733,1.1595-1.4336,2.5432-2.0532,3.9228l18.778-15.24-5.645-3.88z"
     connector-curvature="0"
     stroke="#000"
     stroke-width="0.83058453"
     fill="#FFF" /><path
     id="front_right_anterior_5th_digit"
     d="m14.958,203.24c1.2118-1.9793,1.9585-4.2991,2.873-5.3606,0.91281-1.0623,2.2658-3.4669,2.6438-4.1072,0.37958-0.64287,1.2924-1.7052,1.2924-1.7052s-1.9884,4.7568-2.7476,6.3133c-1.1819,2.4203-1.1354,3.7351,0.19353,4.3614,0,0,0.36297,0.51995,1.6911-1.373,1.3256-1.8912,3.108-5.4063,4.1155-7.3565,1.0083-1.9502,2.6271-4.3697,3.5458-5.8191,0.91697-1.4485,1.6188-3.5184,2.3647-5.4495,0.66115-1.7218,0.97926-4.9802,1.3181-6.9495l-6.6671-4.5898-0.5432-0.3746-6.1413,19.191s-4.8523,10.311-7.2543,15.518c1.245,0.39702,2.1936-0.4643,3.3174-2.2999z"
     connector-curvature="0"
     stroke="#000"
     stroke-width="0.83058453"
     fill="#FFF" /><path
     id="front_left_patellar_tendon"
     d="m130.16,277.38,14.851,26.331,6.0707-30.872s-9.3922,5.3922-20.922,4.5408z"
     connector-curvature="0"
     stroke="#000"
     stroke-width="0.83058453"
     fill="#FFF" /><path
     id="back_left_posterior_lateral_knee"
     d="m78.943,647.24,7.7867-28.032c-4.545-0.71762-8.756-0.88374-11.98-0.85467-0.46679,3.4154-1.9851,6.8864-2.2725,10.174-0.34968,4.0001-0.96514,9.1854-2.3971,12.232-0.32725,0.69686-0.79653,1.7849-1.3339,3.1238,2.7916,1.3962,6.3706,2.6114,10.176,3.5233l0.0191-0.16529zm-0.0191,0.16529"
     connector-curvature="0"
     stroke="#000"
     stroke-width="0.83058453"
     fill="#FFF" /><path
     id="back_left_posterior_medial_knee"
     d="m78.943,647.24-0.0191,0.16529c3.8174,0.9153,7.8631,1.5258,11.573,1.7052,0.21928-0.98342,0.43108-1.9029,0.61381-2.7293,0.84885-3.8531,3.5308-8.8814,4.4436-14.273,0.31396-1.8555,1.0839-5.5084,2.0009-9.732-2.8148-1.2176-6.5234-2.4893-10.825-3.1687l-7.7867,28.032z"
     connector-curvature="0"
     stroke="#000"
     stroke-width="0.83058453"
     fill="#FFF" /><path
     id="back_left_posterior_medial_upper_thigh"
     d="m91.652,577.23-4.9229,41.976c4.3016,0.67942,8.0093,1.951,10.825,3.1695,1.7476-8.05,4.0275-18.172,4.6953-21.858,1.652-9.1339,5.4736-19.868,6.2294-21.803l1.4984-3.5748c-7.496,2.2733-13.517,2.6969-18.324,2.0898z"
     connector-curvature="0"
     stroke="#000"
     stroke-width="0.83058453"
     fill="#FFF" /><path
     id="back_left_posterior_lateral_upper_thigh"
     d="m74.41,566.05c-0.06728,2.1562-0.14452,4.4229-0.22177,6.6854-0.20266,5.9404-0.40283,11.846-0.39785,15.599,0.0108,7.8515,0.9668,23.669,1.093,27.789,0.02242,0.73922-0.03073,1.4834-0.13372,2.2293,3.2235-0.0291,7.4346,0.13705,11.98,0.85467l4.9237-41.975c-12.027-1.5183-16.44-9.4994-17.242-11.181z"
     connector-curvature="0"
     stroke="#000"
     stroke-width="0.83058453"
     fill="#FFF" /><path
     id="back_left_sole_of_foot"
     d="m80.178,719.76c0.0565-1.1927-0.0739-1.912-0.23838-2.5341-1.6313-2.5158-4.2991-6.0923-6.3174-6.1397-4.3249-0.1005-6.5442,3.6936-7.3233,5.4063,0.33556,1.0449,0.603,3.8132-0.98175,10.946-0.88872,3.9993-2.3447,8.7261-3.1612,11.268,0.03821-0.0216,0.07392-0.0374,0.11379-0.0631-0.06479,1.2982,0.58141,2.5524,1.8173,0.97345,0.19436,1.8821,2.2035,2.6172,2.7874,0.15116-0.65118,3.0059,1.6869,3.5042,2.5009,1.6362,0.04236-0.0963,0.14203-0.53074,0.22592-0.90866,0.05316-0.35798,0.12874-0.59719,0.12874-0.59719s-0.05814,0.27908-0.12874,0.59719c-0.15449,1.0382-0.11545,3.0856,2.5325,3.275,1.8173,0.12957,3.1147-2.4012,2.3364-5.9046,0.19436-1.2243,1.3605-1.6005,1.8173-3.569,0.2716-1.1703-0.24668-2.5648,0.06479-3.7634,1.2558-4.8373,3.6986-8.0459,3.8282-10.772z"
     connector-curvature="0"
     stroke="#000"
     stroke-width="0.83058453"
     fill="#FFF" /><path
     id="back_left_lateral_foot"
     d="m66.298,716.49c-0.14535,0.31895-0.24087,0.56646-0.2907,0.70268-0.0033,0.26578-0.01578,0.52576-0.04236,0.76995-0.19436,1.7517-1.7492,4.4561-3.3066,7.0517-1.5573,2.5956-2.4037,4.2393-1.4951,10.209-1.015,2.4104-0.66198,4.4395,0.99172,3.481,0.81646-2.5416,2.2725-7.2684,3.1612-11.268,1.5856-7.1331,1.3173-9.9014,0.98258-10.946z"
     connector-curvature="0"
     stroke="#000"
     stroke-width="0.83058453"
     fill="#FFF" /><path
     id="back_left_posterior_medial_lower_leg"
     d="m90.496,649.11c-3.7094-0.18024-7.7552-0.78989-11.572-1.7052l-4.7476,41.242,0.26662-0.9153,1.3289,7.8c0.65865,0.0191,1.3107,0.0365,1.9485,0.0532,0.0556,0.00083,0.10881,0.002,0.16446,0.003,0.27741,0.007,0.55317,0.0141,0.82394,0.0199,0.17608,0.003,0.34718,0.007,0.51994,0.0108,0.14868,0.003,0.30068,0.007,0.44603,0.009,0.22758,0.004,0.44851,0.007,0.66945,0.0116,0.0897,0.002,0.18273,0.003,0.2716,0.005,0.30649,0.004,0.60467,0.008,0.89454,0.0116,0.34635-4.1546,0.93773-9.9404,2.5673-14.288,2.3863-6.3698,5.0483-13.593,4.8689-19.49-0.14037-4.6322,0.75002-9.1647,1.5507-12.766z"
     connector-curvature="0"
     stroke="#000"
     stroke-width="0.83058453"
     fill="#FFF" /><path
     id="back_left_posterior_lateral_lower_leg"
     d="m74.176,688.64,4.7476-41.242c-3.8057-0.91199-7.3847-2.128-10.176-3.5233-1.8082,4.5084-4.388,11.885-4.9445,16.962-0.72178,6.5849,0.04984,19.806,1.2567,27.359,0.32725,2.0499,0.68357,4.4644,0.96099,6.9769,1.7658,0.0731,3.932,0.15864,6.1845,0.23589l1.9718-6.7701z"
     connector-curvature="0"
     stroke="#000"
     stroke-width="0.83058453"
     fill="#FFF" /><path
     id="back_left_lateral_ankle"
     d="m66.021,695.18c0.6462,5.8498,2.6952,9.3657,1.1122,12.925,0,0-1.2974,2.3364-1.4278,4.672-0.04236,0.75833,0.2525,2.4195,0.29569,3.9444l6.2036-21.305c-2.2517-0.0781-4.4187-0.1628-6.1845-0.23589z"
     connector-curvature="0"
     stroke="#000"
     stroke-width="0.83058453"
     fill="#FFF" /><path
     id="back_left_medial_ankle"
     d="m80.344,695.64c-0.22094-0.003-0.44187-0.007-0.66945-0.0108-0.14618-0.003-0.29735-0.007-0.44603-0.009-0.17276-0.003-0.34386-0.007-0.51994-0.0108-0.27077-0.006-0.54653-0.0125-0.82394-0.0199-0.0548-0.00083-0.10881-0.003-0.16363-0.003-0.63706-0.0158-1.2899-0.034-1.9485-0.0532l3.535,20.751c0.22343,0.32559,0.43523,0.64453,0.63207,0.9477-0.18272-0.68773-0.40864-1.255-0.47509-2.2027-0.15366-2.2085,0.25167-3.0291,0.25167-3.0291s0.90284-1.1994,1.0432-1.427c0.53988-0.8746,0.505-1.7625,0.3123-3.3423-0.18854-1.5789-0.3912-4.2559,0.0341-7.1505,0.13455-0.9178,0.24336-2.4959,0.40366-4.4245-0.28987-0.003-0.58805-0.007-0.89454-0.0116-0.088-0.00083-0.1819-0.003-0.2716-0.005z"
     connector-curvature="0"
     stroke="#000"
     stroke-width="0.83058453"
     fill="#FFF" /><path
     id="back_left_achilles_tendon"
     d="m75.772,695.53-1.3289-7.8-0.26662,0.9153-1.9718,6.7701-6.2036,21.305c0.0042,0.1603,0.0083,0.32061,0.0066,0.47676,0.31645-0.86547,2.4834-6.2269,7.614-6.1081,1.7758,0.0415,4.0524,2.8132,5.6854,5.192l-3.535-20.751z"
     connector-curvature="0"
     stroke="#000"
     stroke-width="0.83058453"
     fill="#FFF" /><path
     id="back_right_sole_of_foot"
     d="m140.54,720.45c-0.0565-1.1927,0.0739-1.912,0.23921-2.5341,1.6313-2.5158,4.2991-6.0923,6.3174-6.1397,4.3248-0.1005,6.5442,3.6936,7.3241,5.4063-0.33555,1.0449-0.603,3.8132,0.98258,10.946,0.88873,3.9993,2.3447,8.7261,3.1612,11.268-0.0382-0.0216-0.0739-0.0374-0.11379-0.0631,0.0648,1.2982-0.58141,2.5524-1.8165,0.97344-0.19436,1.8821-2.2035,2.6172-2.7874,0.15117,0.65118,3.0059-1.6869,3.5042-2.5009,1.6362-0.0424-0.0963-0.14203-0.53074-0.22592-0.90866-0.0532-0.35798-0.12874-0.59719-0.12874-0.59719s0.0581,0.27908,0.12874,0.59719c0.15449,1.0382,0.11545,3.0856-2.5324,3.275-1.8165,0.12957-3.1147-2.4012-2.3356-5.9046-0.19352-1.2243-1.3597-1.6005-1.8165-3.569-0.2716-1.1703,0.24669-2.5648-0.0648-3.7634-1.2558-4.8373-3.6986-8.0467-3.8282-10.772z"
     connector-curvature="0"
     stroke="#000"
     stroke-width="0.83058453"
     fill="#FFF" /><path
     id="back_right_lateral_foot"
     d="m154.42,717.19c0.14452,0.31894,0.24004,0.56646,0.28988,0.70267,0.003,0.26579,0.0158,0.52576,0.0432,0.76996,0.19435,1.7517,1.7492,4.4561,3.3066,7.0517s2.4037,4.2393,1.4951,10.209c1.0141,2.4104,0.66197,4.4395-0.99255,3.481-0.81564-2.5416-2.2716-7.2684-3.1604-11.268-1.5856-7.1322-1.3173-9.9014-0.98175-10.946z"
     connector-curvature="0"
     stroke="#000"
     stroke-width="0.83058453"
     fill="#FFF" /><path
     id="back_right_lateral_ankle"
     d="m155.01,713.47c-0.12957-2.3356-1.4278-4.672-1.4278-4.672-1.5831-3.559,0.46596-7.0758,1.1122-12.925-1.8032,0.0747-4.0234,0.16113-6.3266,0.24087l6.3465,21.301c0.0424-1.5258,0.33722-3.1861,0.29569-3.9444z"
     connector-curvature="0"
     stroke="#000"
     stroke-width="0.83058453"
     fill="#FFF" /><path
     id="back_right_medial_ankle"
     d="m139.21,696.34c0.1603,1.9286,0.26911,3.5067,0.40366,4.4237,0.42526,2.8954,0.2226,5.5724,0.0341,7.1505-0.19269,1.5798-0.22758,2.4677,0.3123,3.3414,0.1412,0.22841,1.044,1.4269,1.044,1.4269s0.40532,0.82062,0.25167,3.0291c-0.0656,0.9477-0.29154,1.515-0.47427,2.2035,0.19602-0.30316,0.40948-0.6221,0.63208-0.94769l3.6463-20.754c-2.0947,0.0615-4.1272,0.10881-5.8481,0.12708z"
     connector-curvature="0"
     stroke="#000"
     stroke-width="0.83058453"
     fill="#FFF" /><path
     id="back_right_posterior_medial_lower_leg"
     d="m146.42,689.58-4.775-41.483c-3.8174,0.91531-7.8631,1.525-11.573,1.7052,0.80068,3.6014,1.6919,8.1339,1.5507,12.766-0.17941,5.898,2.4826,13.122,4.8689,19.49,1.6296,4.3473,2.2202,10.132,2.5673,14.288,1.7617-0.0183,3.8489-0.0673,5.9952-0.1304l1.2401-7.0583,0.12541,0.42194z"
     connector-curvature="0"
     stroke="#000"
     stroke-width="0.83058453"
     fill="#FFF" /><path
     id="back_right_posterior_lateral_lower_leg"
     d="m148.37,696.11c2.2517-0.0781,4.4179-0.16279,6.1829-0.23588,0.27742-2.5125,0.63374-4.927,0.96099-6.9769,1.2077-7.5533,1.9776-20.775,1.2575-27.359-0.55733-5.0774-3.1363-12.454-4.9453-16.962-2.7916,1.3954-6.3698,2.6114-10.176,3.5233l4.775,41.483,1.9452,6.5292z"
     connector-curvature="0"
     stroke="#000"
     stroke-width="0.83058453"
     fill="#FFF" /><path
     id="back_right_achilles_tendon"
     d="m148.37,696.11c-0.007,0-0.0116,0.00083-0.0183,0.00083,0.006-0.00083,0.0108-0.007,0.0166-0.007l-1.9452-6.5292-0.12541-0.42111-1.2401,7.0583c0.007,0,0.0149,0.003,0.0216,0.004-0.007,0-0.0149,0.00083-0.0224,0.00083l-3.6454,20.755c1.6329-2.3788,3.9104-5.1505,5.6854-5.192,5.1314-0.1196,7.2975,5.2418,7.614,6.1081-0.002-0.15615,0.003-0.31645,0.007-0.47675l-6.34-21.29z"
     connector-curvature="0"
     stroke="#000"
     stroke-width="0.83058453"
     fill="#FFF" /><path
     id="back_right_posterior_lateral_knee"
     d="m141.63,647.93-7.7867-28.032c4.545-0.71763,8.7568-0.88374,11.98-0.85467,0.46762,3.4154,1.9851,6.8864,2.2725,10.174,0.34968,4.0001,0.96514,9.1854,2.3971,12.232,0.32725,0.69686,0.79653,1.7849,1.3339,3.1238-2.7916,1.3962-6.3706,2.6114-10.176,3.5233l-0.0183-0.16528z"
     connector-curvature="0"
     stroke="#000"
     stroke-width="0.83058453"
     fill="#FFF" /><path
     id="back_right_posterior_medial_knee"
     d="m141.63,647.93,0.0191,0.16528c-3.8174,0.91531-7.8623,1.5258-11.572,1.7052-0.21927-0.98341-0.43107-1.9029-0.6138-2.7293-0.84886-3.8531-3.5308-8.8814-4.4428-14.273-0.31479-1.8555-1.0847-5.5084-2.0017-9.732,2.8148-1.2176,6.5234-2.4893,10.825-3.1687l7.7867,28.032z"
     connector-curvature="0"
     stroke="#000"
     stroke-width="0.83058453"
     fill="#FFF" /><path
     id="back_right_posterior_lateral_upper_thigh"
     d="m145.82,619.04c-0.10216-0.7467-0.15615-1.4901-0.13372-2.2293,0.12541-4.1189,1.0831-19.937,1.093-27.789,0.005-3.7534-0.19436-9.658-0.39785-15.599-0.11546-3.3664-0.23008-6.741-0.31147-9.7452-0.0548,0.0797-0.10881,0.15615-0.16363,0.23921-4.8896,7.545-10.759,10.949-17.333,12.079l5.2667,43.899c4.545-0.71763,8.7568-0.88374,11.98-0.85467z"
     connector-curvature="0"
     stroke="#000"
     stroke-width="0.83058453"
     fill="#FFF" /><path
     id="back_right_posterior_medial_upper_thigh"
     d="m110.27,575.05,1.8248,4.3539c0.75584,1.9336,4.5774,12.669,6.2302,21.803,0.66613,3.6853,2.9461,13.807,4.6945,21.857,2.8148-1.2176,6.5234-2.4893,10.825-3.1687l-5.2667-43.9c-5.6397,0.96929-11.798,0.26662-18.307-0.9452z"
     connector-curvature="0"
     stroke="#000"
     stroke-width="0.83058453"
     fill="#FFF" /><path
     id="back_left_posterior_medial_forearm"
     d="m33.261,528.88-0.50334,0.71929,6.0691,4.4137c3.1496-3.6388,7.5616-8.6688,9.9147-10.766,3.6737-3.2758,7.5899-8.2527,10.079-12.583,1.3032-2.2667,2.4452-4.8456,3.3597-7.3507-3.108-0.0972-6.9321-0.57227-10.749-1.9469l-18.169,27.513z"
     connector-curvature="0"
     stroke="#000"
     stroke-width="0.83058453"
     fill="#FFF" /><path
     id="back_left_medial_elbow"
     d="m51.43,501.36c3.8174,1.3738,7.6414,1.8489,10.75,1.9469,0.83308-2.2808,1.4776-4.5009,1.878-6.3681,0.84138-3.9179,0.0407-3.2767,1.7799-6.3531,1.8613-3.2924,3.3248-6.3864,4.4876-9.2004-1.1263-0.99587-3.5981-2.01-9.5509-3.9046l-9.3441,23.879z"
     connector-curvature="0"
     stroke="#000"
     stroke-width="0.83058453"
     fill="#FFF" /><path
     id="back_left_posterior_medial_wrist"
     d="m26.115,539.09,6.8963,4.7617c0.06312-0.39702,0.12625-0.75916,0.19186-1.0598,0.39287-1.804,1.049-3.623,2.1005-4.7252,0.37875-0.39619,1.7517-2.005,3.5225-4.0508l-6.0691-4.4137-6.6414,9.4878z"
     connector-curvature="0"
     stroke="#000"
     stroke-width="0.83058453"
     fill="#FFF" /><path
     id="back_left_posterior_lateral_forearm"
     d="m41.052,494.38c-1.3339,1.8921-2.5798,3.9096-3.4926,5.9005-3.035,6.6231-4.7269,16.332-8.653,22.082-0.6545,0.95849-1.3314,1.9594-2.015,2.9644l5.8656,4.2659,0.50334-0.71929,18.169-27.513c-5.2111-1.8763-8.4105-4.5051-10.377-6.9802z"
     connector-curvature="0"
     stroke="#000"
     stroke-width="0.83058453"
     fill="#FFF" /><path
     id="back_left_lateral_elbow"
     d="m50.121,480.32s0.0108,3.3157-1.3995,4.8681c-0.98507,1.0847-4.5666,4.8008-7.6696,9.2012,1.9668,2.4751,5.1654,5.1048,10.377,6.9802l9.3441-23.879c-3.5383-1.1263-6.8083-1.7625-9.3914-2.1238-0.64121,1.6869-1.1213,3.3647-1.26,4.9536z"
     connector-curvature="0"
     stroke="#000"
     stroke-width="0.83058453"
     fill="#FFF" /><path
     id="back_left_posterior_lateral_wrist"
     d="m26.892,525.33c-2.5325,3.7277-5.1505,7.5168-7.04,9.4296l6.2634,4.3249,6.6414-9.4886-5.8648-4.2659z"
     connector-curvature="0"
     stroke="#000"
     stroke-width="0.83058453"
     fill="#FFF" /><path
     id="back_left_posterior_lateral_upper_arm"
     d="m57.593,457.79c-0.13289,1.1703-0.28572,2.3074-0.48506,3.3929-0.23755,1.2949-0.53905,2.5208-0.95268,3.6404-1.0997,2.9735-3.3406,6.7809-4.7725,10.543,2.5839,0.3613,5.854,0.99753,9.3922,2.1238l10.934-26.19c-5.8664,3.8464-11.301,5.7111-14.113,6.4977z"
     connector-curvature="0"
     stroke="#000"
     stroke-width="0.83058453"
     fill="#FFF" /><path
     id="back_left_posterior_medial_upper_arm"
     d="m71.706,451.29-10.932,26.197c5.9536,1.8946,8.4246,2.9087,9.5509,3.9046,3.0142-7.2934,4.0076-12.709,4.6629-14.833l0.05482-0.17608s-0.74171-8.0534-3.3365-15.092z"
     connector-curvature="0"
     stroke="#000"
     stroke-width="0.83058453"
     fill="#FFF" /><path
     id="back_left_posterior_thumb"
     d="m8.1163,551.09c0.28572-0.5432,0.58972-1.0681,0.92527-1.5499,1.2401-1.7791,1.7816-3.6828,1.7816-3.6828-2.3381,2.417-5.6123,3.118-7.6597,3.2002-2.0449,0.0814-2.5715-2.1836-0.85218-3.2567,1.0117-0.63041,2.6006-2.049,3.5632-2.6504,0.96099-0.60052,3.1919-2.0698,5.1297-3.7218,1.9378-1.6529,5.1347-3.0125,7.2078-3.6056,0.44768-0.12791,1.0166-0.56729,1.6753-1.2342l6.2585,4.3215-2.1944,3.2924-15.835,8.8864z"
     connector-curvature="0"
     stroke="#000"
     stroke-width="0.83058453"
     fill="#FFF" /><path
     id="back_left_posterior_2nd_-_4th_digits"
     d="m3.3895,560.47c0.77078-1.3464,1.5615-2.819,2.5815-4.8323,0.74254-1.4652,1.3771-3.0864,2.1454-4.5466l15.835-8.8864-4.0881,16.092-7.4686,14.7c-0.0598-0.0224-0.1196-0.0432-0.1819-0.0723-1.3912-0.63955,0.21844-4.0956,0.21844-4.0956,0.44769-1.0191,1.3082-2.8655,2.5391-4.9686,1.2342-2.103,1.5515-5.6629,1.5515-5.6629-0.0216,0.0258-0.049,0.0689-0.07641,0.10881-0.60799,0.90783-2.5599,5.2294-3.4901,6.5467-0.96929,1.3738-2.3721,4.417-3.6712,5.7966-1.299,1.3813-2.2019,0.57144-2.2019,0.57144-1.8672-1.6313,2.0275-8.2942,3.1753-10.281,1.147-1.9884,1.1097-4.3224,1.1097-4.3224-1.4261,1.3572-3.2484,4.9038-4.5732,6.7958-1.3264,1.8912-2.4153,4.28-4.2061,3.3082-1.7916-0.97012,0.03655-4.9038,0.80317-6.251z"
     connector-curvature="0"
     stroke="#000"
     stroke-width="0.83058453"
     fill="#FFF" /><path
     id="back_left_posterior_5th_digit"
     d="m23.951,542.2,2.1952-3.2924,0.01495,0.01,6.8864,4.7551c-0.31645,1.9876-0.63457,4.9494-1.2542,6.5624-0.74503,1.9319-1.4477,4.0009-2.3638,5.4495-0.91863,1.4502-2.5383,3.8689-3.5466,5.8191-1.0067,1.9502-2.7891,5.4644-4.1155,7.3573-1.3273,1.8929-1.6902,1.373-1.6902,1.373-1.3289-0.62626-1.3754-1.9411-0.19353-4.3614,0.75915-1.5565,2.7476-6.3124,2.7476-6.3124s-0.91364,1.0623-1.2924,1.7052c-0.37709,0.64038-1.7309,3.0449-2.6438,4.1072-0.91447,1.0615-1.662,3.3813-2.873,5.3606-1.1562,1.8888-2.128,2.7451-3.4278,2.26l7.4694-14.699,4.0881-16.093z"
     connector-curvature="0"
     stroke="#000"
     stroke-width="0.83058453"
     fill="#FFF" /><path
     id="back_right_posterior_medial_forearm"
     d="m187.57,529.4,0.50333,0.71928-6.0691,4.4137c-3.1487-3.6388-7.5616-8.6688-9.9147-10.766-3.6728-3.2758-7.589-8.2527-10.079-12.583-1.3032-2.2667-2.4444-4.8456-3.3597-7.3507,3.108-0.0972,6.9321-0.57227,10.75-1.9469l18.169,27.513z"
     connector-curvature="0"
     stroke="#000"
     stroke-width="0.83058453"
     fill="#FFF" /><path
     id="back_right_medial_elbow"
     d="m169.4,501.88c-3.8174,1.3738-7.6422,1.8489-10.749,1.9469-0.83308-2.2808-1.4776-4.5009-1.878-6.3681-0.84139-3.9179-0.0407-3.2766-1.7808-6.3531-1.8613-3.2924-3.324-6.3864-4.4868-9.2004,1.1263-0.99587,3.5973-2.01,9.5509-3.9046l9.3441,23.879z"
     connector-curvature="0"
     stroke="#000"
     stroke-width="0.83058453"
     fill="#FFF" /><path
     id="back_right_posterior_medial_wrist"
     d="m194.71,539.6-6.8964,4.7617c-0.0631-0.39702-0.12541-0.75915-0.19186-1.0598-0.39204-1.804-1.0482-3.623-2.0997-4.7252-0.37958-0.39619-1.7517-2.005-3.5225-4.0508l6.0682-4.4137,6.6414,9.4878z"
     connector-curvature="0"
     stroke="#000"
     stroke-width="0.83058453"
     fill="#FFF" /><path
     id="back_right_posterior_lateral_forearm"
     d="m179.77,494.9c1.3339,1.8921,2.5806,3.9096,3.4934,5.9005,3.0341,6.6231,4.7269,16.332,8.6522,22.082,0.65533,0.9585,1.3323,1.9594,2.015,2.9644l-5.8648,4.2659-0.50333-0.71928-18.169-27.513c5.2111-1.8763,8.4105-4.5051,10.377-6.9802z"
     connector-curvature="0"
     stroke="#000"
     stroke-width="0.83058453"
     fill="#FFF" /><path
     id="back_right_lateral_elbow"
     d="m170.71,480.84s-0.01,3.3157,1.4004,4.8681c0.98507,1.0847,4.5666,4.8008,7.6696,9.2012-1.966,2.4751-5.1654,5.1048-10.377,6.9802l-9.3441-23.879c3.5391-1.1263,6.8091-1.7625,9.3922-2.1238,0.64204,1.6869,1.1213,3.3647,1.2608,4.9536z"
     connector-curvature="0"
     stroke="#000"
     stroke-width="0.83058453"
     fill="#FFF" /><path
     id="back_right_posterior_lateral_wrist"
     d="m193.93,525.85c2.5324,3.7277,5.1513,7.5168,7.0409,9.4296l-6.2643,4.3248-6.6414-9.4886,5.8648-4.2659z"
     connector-curvature="0"
     stroke="#000"
     stroke-width="0.83058453"
     fill="#FFF" /><path
     id="back_right_posterior_medial_upper_arm"
     d="m145.49,466.44,0,0.89786c0.0723-0.28572,0.11213-0.4427,0.11213-0.4427,0.0689,0.20848,0.12292-0.6246,0.16694-1.8888l0.0714,2.064c0.65533,2.1255,1.6487,7.5409,4.6621,14.834,1.1271-0.99587,3.5981-2.0108,9.5517-3.9046l-11.251-26.59c-2.5765,7.0234-3.3124,15.03-3.3124,15.03z"
     connector-curvature="0"
     stroke="#000"
     stroke-width="0.83058453"
     fill="#FFF" /><path
     id="back_right_posterior_lateral_upper_arm"
     d="m164.67,465.34c-0.41446-1.1204-0.71514-2.3456-0.95268-3.6404-0.0598,0-0.1221-0.002-0.18273-0.002-0.21512-1.1711-0.3746-2.4054-0.51496-3.6737-2.873-0.81149-8.3424-2.7152-14.22-6.609l11.251,26.59c3.5383-1.1263,6.8083-1.7625,9.3914-2.1238-1.4303-3.7609-3.672-7.5683-4.7725-10.542z"
     connector-curvature="0"
     stroke="#000"
     stroke-width="0.83058453"
     fill="#FFF" /><path
     id="back_right_posterior_thumb"
     d="m212.75,551.78c-0.28572-0.54403-0.58971-1.0681-0.92527-1.5507-1.2401-1.7791-1.7816-3.6828-1.7816-3.6828,2.3381,2.4178,5.6123,3.118,7.6605,3.2002,2.0449,0.0814,2.5715-2.1836,0.85218-3.2567-1.0108-0.63042-2.6006-2.049-3.5632-2.6504-0.96099-0.59968-3.1911-2.0698-5.1297-3.7218-1.9378-1.652-5.1347-3.0125-7.2078-3.6047-0.44769-0.12791-1.0166-0.56812-1.6753-1.2342l-6.2585,4.3215,2.1952,3.2924,15.835,8.8864z"
     connector-curvature="0"
     stroke="#000"
     stroke-width="0.83058453"
     fill="#FFF" /><path
     id="back_right_posterior_2nd_-_4th_digits"
     d="m217.47,561.16c-0.76995-1.3464-1.5615-2.8182-2.5815-4.8315-0.74254-1.4652-1.3771-3.0864-2.1454-4.5466l-15.835-8.8872,4.0881,16.093,7.4694,14.7c0.0606-0.0224,0.1196-0.044,0.1819-0.0723,1.3912-0.63955-0.21762-4.0956-0.21762-4.0956-0.44768-1.0191-1.3082-2.8655-2.5391-4.9686-1.2342-2.1039-1.5515-5.6629-1.5515-5.6629,0.0216,0.0258,0.049,0.0689,0.0764,0.10881,0.60799,0.907,2.5607,5.2294,3.491,6.5467,0.96929,1.3738,2.3722,4.4162,3.6712,5.7966,1.299,1.3813,2.2019,0.57144,2.2019,0.57144,1.8672-1.6313-2.0275-8.2942-3.1753-10.282-1.147-1.9884-1.1097-4.3224-1.1097-4.3224,1.4261,1.3572,3.2484,4.9046,4.5732,6.7967,1.3264,1.8912,2.4153,4.2792,4.2061,3.3074,1.7916-0.97012-0.0365-4.9038-0.80317-6.251z"
     connector-curvature="0"
     stroke="#000"
     stroke-width="0.83058453"
     fill="#FFF" /><path
     id="back_right_posterior_5th_digit"
     d="m196.91,542.89-2.1952-3.2924-0.0141,0.01-6.8864,4.7551c0.31646,1.9876,0.63457,4.9495,1.2542,6.5633,0.74503,1.9311,1.4477,4.0009,2.3638,5.4495,0.91863,1.4494,2.5383,3.8689,3.5466,5.8191,1.0075,1.9494,2.7891,5.4644,4.1155,7.3557,1.3273,1.8937,1.6902,1.3738,1.6902,1.3738,1.3289-0.62627,1.3754-1.9411,0.19353-4.3614-0.75916-1.5565-2.7476-6.3133-2.7476-6.3133s0.91364,1.0623,1.2924,1.706c0.37708,0.64038,1.7309,3.0449,2.6438,4.1072,0.91447,1.0623,1.662,3.3813,2.873,5.3606,1.1562,1.8888,2.128,2.7442,3.4286,2.26l-7.4694-14.699-4.0881-16.093z"
     connector-curvature="0"
     stroke="#000"
     stroke-width="0.83058453"
     fill="#FFF" /><path
     id="back_left_posterior_shoulder"
     d="m91.676,425.17c-1.5374,0.72926-3.0516,1.4303-4.0316,1.8447-2.2575,0.95351-7.1613,2.0981-8.8374,2.6072-1.6761,0.50831-8.3549-0.32393-11.739,2.819-3.3855,3.1429-6.9138,8.1754-8.1538,14.476-0.71181,3.6238-0.92693,7.3972-1.3215,10.872,6.3864-1.7858,26.277-9.1148,34.084-32.618z"
     connector-curvature="0"
     stroke="#000"
     stroke-width="0.83058453"
     fill="#FFF" /><path
     id="back_right_posterior_shoulder"
     d="m163.02,458.02c-0.3746-3.3963-0.59803-7.0616-1.2916-10.589-1.2401-6.3008-4.7684-11.333-8.1538-14.476-3.3855-3.1429-10.063-2.3107-11.74-2.819-1.6761-0.50915-6.5791-1.6537-8.8366-2.6072-0.94023-0.39785-2.3738-1.0598-3.8464-1.7575,7.8457,23.111,27.413,30.425,33.87,32.248z"
     connector-curvature="0"
     stroke="#000"
     stroke-width="0.83058453"
     fill="#FFF" /><path
     id="back_left_gluteal"
     d="m80.428,522.29c-0.10964,0.50998-0.2334,1.0681-0.37875,1.7168l-0.0914,0.402c-1.0216,4.496-1.4843,7.187-2.8389,11.574-1.3547,4.388-2.5806,12.588-2.515,19.9,0.02159,2.4868-0.06728,6.1289-0.1927,10.159,1.123,2.3547,9.3142,17.052,35.566,9.0916l0.29237-0.69686c-0.31313-10.653-3.1612-25.588-8.4852-33.883-7.2693-11.326-17.35-16.542-21.356-18.264z"
     connector-curvature="0"
     stroke="#000"
     stroke-width="0.83058453"
     fill="#FFF" /><path
     id="back_right_gluteal"
     d="m145.91,563.92c0.054-0.0839,0.10881-0.1603,0.16363-0.24004-0.0739-2.7899-0.11878-5.2609-0.103-7.099,0.0648-7.3116-1.1603-15.513-2.5158-19.9-1.3547-4.3872-2.8256-12.01-2.8256-12.01-0.20017-0.88291-0.35715-1.5997-0.49502-2.25-4.0524,1.7517-14.061,6.9736-21.29,18.235-5.324,8.2959-8.1721,23.231-8.4852,33.884-0.006,0.18106,0.002,0.35216,0.00083,0.52991,14.058,2.6072,26.484,2.8364,35.549-11.15z"
     connector-curvature="0"
     stroke="#000"
     stroke-width="0.83058453"
     fill="#FFF" /><path
     id="back_left_scapular"
     d="m102.69,428.69c-5.7751-0.71347-10.833-3.4262-11.016-3.52-4.3672,13.151-12.518,21.235-19.97,26.12,0,0,10.251,9.6115,30.97,11.571l0.0158-34.17z"
     connector-curvature="0"
     stroke="#000"
     stroke-width="0.83058453"
     fill="#FFF" /><path
     id="back_right_scapular"
     d="m117.62,462.86c20.908-1.9344,31.185-11.45,31.185-11.45-7.3307-4.8564-15.294-12.812-19.649-25.639-0.0307-0.0141-0.0606-0.0282-0.0905-0.0424-1.9992,1.0249-5.1629,1.7783-8.6372,2.3597-0.92112,0.18937-1.8588,0.35798-2.8082,0.50666v34.266z"
     connector-curvature="0"
     stroke="#000"
     stroke-width="0.83058453"
     fill="#FFF" /><path
     id="back_left_posterior_thorax"
     d="m71.706,451.29c2.5947,7.0384,3.3365,15.092,3.3365,15.092s4.182,16.384,6.0874,27.01c1.1686,6.5168,2.5233,11.635,1.1686,18.946-1.1014,5.9478-1.2965,7.2859-1.8713,9.9579,4.0067,1.7218,14.088,6.9379,21.357,18.264,0.35715,0.55649,0.70184,1.1446,1.0374,1.7575l-0.14452-79.457c-20.722-1.96-30.973-11.57-30.973-11.57z"
     connector-curvature="0"
     stroke="#000"
     stroke-width="0.83058453"
     fill="#FFF" /><path
     id="back_sacrum"
     d="m110.27,574.44,0,0.61131c0.0299,0.006,0.0606,0.0108,0.0905,0.0158,0.00083-0.17775-0.006-0.34968-0.00083-0.52908,0.28738-9.7536,2.7002-23.093,7.1912-31.644l-14.404,0.0316c4.4486,8.5542,6.8382,21.81,7.1239,31.515z"
     connector-curvature="0"
     stroke="#000"
     stroke-width="0.83058453"
     fill="#FFF" /><path
     id="back_right_posterior_thorax"
     d="m117.62,462.86,0,79.904c0.3937-0.74171,0.80151-1.451,1.2268-2.1138,7.2286-11.262,17.237-16.484,21.29-18.235-0.51247-2.4236-0.74172-3.917-1.7874-9.5634-1.3547-7.3116,0-12.43,1.1686-18.946,1.7218-9.5982,5.3-23.892,5.9752-26.567v-0.89786s0.73589-8.006,3.3124-15.03-10.278,9.5152-31.185,11.45z"
     connector-curvature="0"
     stroke-width="0.83058453"
     stroke="#000"
     fill="#FFF" /><path
     id="back_midline_upper_back"
     d="m109.16,429.22c-0.21429-0.00083-0.42526-0.003-0.62792-0.009-0.42443-0.0133-0.84055-0.0332-1.2517-0.0565-0.15532-0.009-0.30815-0.0199-0.46181-0.0299-0.24502-0.0158-0.48838-0.0341-0.72759-0.0532-0.19187-0.0158-0.38124-0.0316-0.56978-0.049-0.18771-0.0174-0.3721-0.0365-0.55649-0.0565-0.79736-0.0839-1.5673-0.18605-2.3115-0.30399-0.0133-0.002-0.0257-0.003-0.039-0.006l0.0623,34.207c2.3497,0.22177,4.8265,0.35134,7.4454,0.35134,2.6371,0,5.1305-0.12625,7.4952-0.34553v-34.266c-2.7442,0.42858-5.589,0.66613-8.4562,0.61878z"
     connector-curvature="0"
     stroke="#000"
     stroke-width="0.83058453"
     fill="#FFF" /><path
     id="back_midline_lower_back"
     d="m102.82,542.32c0.1088,0.20017,0.21761,0.40366,0.32476,0.60965l14.404-0.0307c0.0224-0.0424,0.0448-0.0839,0.0673-0.12625v-34.482l-14.858,0.00083,0.0615,34.029z"
     connector-curvature="0"
     stroke="#000"
     stroke-width="0.83058453"
     fill="#FFF" /><path
     id="back_midline_posterior_thorax"
     d="m110.12,463.21c-2.6188,0-5.0956-0.12958-7.4454-0.35051l0.0822,45.428,14.858-0.00083v-45.422c-2.3647,0.21928-4.8581,0.34553-7.4952,0.34553z"
     connector-curvature="0"
     stroke="#000"
     stroke-width="0.83058453"
     fill="#FFF" /><path
     id="back_posterior_head"
     d="m110.44,406.02c4.8448,0,8.3058-1.3846,8.3058-1.3846l6.6247,4.8415c0.23838-1.2525,0.29735-2.1313,0.29735-2.1313,1.8638,0.13705,2.9677-3.1969,2.829-4.4212-0.13787-1.2243,0.75916-2.4494,1.7949-4.2858,1.0349-1.8364,1.5548-5.1588,0.82892-5.5782-1.201-0.6952-2.554,0.74752-2.554,0.74752,0.82893-5.1696-1.8929-13.718-1.8929-13.718s-3.4444-11.21-16.407-10.406c-2.0524,0-12.764,0.36462-16.285,9.8499,0,0-2.7218,8.5484-1.8929,13.718,0,0-1.3547-1.4427-2.5549-0.74835-0.72676,0.42027-0.20681,3.7418,0.8281,5.5782,1.0357,1.8372,1.9336,3.0615,1.7949,4.285-0.13788,1.2243,0.96597,4.5591,2.8298,4.422,0,0,0.0465,0.70018,0.22509,1.7401l7.2701-3.8946s3.7924,1.3846,7.9595,1.3846z"
     connector-curvature="0"
     stroke-width="0.83058453"
     stroke="#000"
     fill="#FFF" /><path
     id="back_left_posterior_neck"
     d="m92.567,425.61c0.15449,0.0739,0.31064,0.14702,0.47011,0.21928,0.0922,0.0424,0.18605,0.0847,0.28074,0.12708,0.152,0.0673,0.30648,0.13455,0.46347,0.20183,0.0997,0.0424,0.19851,0.0856,0.29984,0.12791,0.17774,0.0739,0.35964,0.14618,0.54237,0.21844,0.11711,0.0465,0.23505,0.0922,0.35466,0.13788,0.21346,0.0822,0.43024,0.16279,0.65035,0.24253,0.1304,0.0465,0.26412,0.0922,0.39701,0.13788,0.14536,0.0507,0.29154,0.1005,0.44105,0.1495,0.14867,0.049,0.29901,0.098,0.451,0.14619,0.13788,0.044,0.27742,0.0864,0.41862,0.12957,0.16196,0.049,0.32393,0.0988,0.48921,0.14618,0.13206,0.0382,0.26828,0.0747,0.40367,0.11213,0.35964,0.0997,0.72759,0.19602,1.1038,0.28738,0.0922,0.0233,0.18273,0.0465,0.27659,0.0689,0.19768,0.0465,0.39951,0.0905,0.60134,0.13538,0.12957,0.0282,0.25831,0.0573,0.38871,0.0847,0.20433,0.0432,0.41031,0.0847,0.61962,0.12459,0.13289,0.0257,0.26745,0.0515,0.402,0.0764,0.21429,0.0399,0.43025,0.0781,0.64869,0.11545,0.11379,0.0191,0.23007,0.0365,0.34469,0.0548l-0.00083-0.21928,2.7027-23.009c-1.7052-0.3746-2.8398-0.78657-2.8398-0.78657l-7.2693,3.8946c0.34552,2.0034,1.1836,5.2692,3.1363,7.2394l0.0108,0.13622,0.33556,4.4943s-0.33722,1.5258-2.0142,2.3522c-0.94936,0.46762-2.9934,1.4652-4.9985,2.4153,0.21346,0.11047,0.43523,0.22094,0.66115,0.33058,0.0756,0.0365,0.15283,0.0731,0.22924,0.10963z"
     connector-curvature="0"
     stroke="#000"
     stroke-width="0.83058453"
     fill="#FFF" /><path
     id="back_right_posterior_neck"
     d="m117.62,428.52c0.9477-0.1304,1.8888-0.27243,2.8082-0.42609,3.0889-0.63374,6.006-1.4735,8.6231-2.3663-2.0308-0.96181-4.1164-1.9784-5.0782-2.4535-1.677-0.8256-1.8672-2.3522-1.8672-2.3522l0.19934-4.594c0.13871-0.13954,0.26994-0.28821,0.39785-0.44021,1.5582-1.8547,2.3123-4.545,2.6678-6.4088l-6.6248-4.8406s-1.5615,0.62128-4.0483,1.0316l2.9228,22.761v0.088z"
     connector-curvature="0"
     stroke="#000"
     stroke-width="0.83058453"
     fill="#FFF" /><path
     id="back_midline_posterior_neck"
     d="m102.61,428.65c0.0133,0.002,0.0258,0.004,0.039,0.006,0.54902,0.0872,1.1097,0.16778,1.6878,0.23672,0.20515,0.0241,0.41529,0.0457,0.62377,0.0673,0.18522,0.0199,0.36878,0.039,0.55649,0.0565,0.18771,0.0174,0.37874,0.0341,0.56978,0.049,0.24004,0.0191,0.48257,0.0374,0.72759,0.0532,0.15366,0.01,0.30566,0.0208,0.46181,0.0299,0.41197,0.0233,0.82726,0.0432,1.2517,0.0565,0.21013,0.007,0.41861,0.007,0.62875,0.009,2.5632,0.008,5.7734-0.35466,5.7734-0.35466,0.89122-0.10548,1.7891-0.22093,2.682-0.34469v-0.088l-2.9228-22.761c-1.221,0.201-2.662,0.35217-4.2576,0.35217-1.8921,0-3.7019-0.28572-5.1197-0.59719l-2.7027,23.01,0.00083,0.21927z"
     connector-curvature="0"
     stroke="#000"
     stroke-width="0.83058453"
     fill="#FFF" /><g
     id="layer1"
     display="none"
     transform="translate(-15.138067,-9.27308)"><g
       id="g12"
       transform="matrix(1.25,0,0,-1.25,4.49407e-7,1052.3625)"><g
         id="g14"
         clip-path="url(#clipPath16-7)"><g
           id="g20"
           transform="translate(495.584,415.9609)"><path
             id="path22"
             d="m0,0c-1.947,1.214-5.01,3.947-6.863,5.105-1.852,1.157-6.15,3.988-9.883,7.17-3.733,3.184-9.891,5.803-13.886,6.945-3.995,1.145-13.104,15.176-20.669,26.252-7.562,11.077-10.822,29.78-16.669,42.538-5.845,12.755-18.788,26.1-21.502,29.09-2.716,2.99-2.696,9.377-2.696,9.377-0.865,9.884-8.553,21.554-11.621,29.851-3.453,9.335-2.93,22.353-5.316,34.491-2.389,12.138-9.185,21.832-15.708,27.886-6.52,6.054-19.385,4.451-22.615,5.43-3.228,0.981-12.675,3.185-17.023,5.022-4.35,1.838-14.164,6.614-17.396,8.206-3.23,1.592-3.597,4.531-3.597,4.531l0.384,8.849c5.716,5.766,6.477,17.299,6.477,17.299,3.59-0.264,5.717,6.159,5.45,8.518-0.266,2.358,1.463,4.717,3.457,8.255,1.993,3.538,2.995,9.937,1.596,10.746-2.313,1.338-4.92-1.441-4.92-1.441,1.597,9.958-3.647,26.426-3.647,26.426s-6.636,21.595-31.607,20.045c-3.953,0-24.588-0.702-31.371-18.975,0,0-5.243-16.468-3.646-26.426,0,0-2.609,2.78-4.921,1.441-1.4-0.809-0.398-7.208,1.595-10.746,1.995-3.538,3.724-5.897,3.458-8.255-0.266-2.359,1.86-8.781,5.451-8.518,0,0,0.76-11.533,6.476-17.299l0.667-8.919s-0.65-2.939-3.88-4.531c-3.232-1.592-13.046-6.368-17.396-8.206-4.348-1.837-13.795-4.041-17.023-5.022-3.23-0.979-16.095,0.624-22.615-5.43-6.523-6.054-13.319-15.748-15.708-27.886-2.386-12.138-1.863-25.156-5.316-34.491-3.068-8.297-10.756-19.967-11.621-29.851,0,0,0.02-6.387-2.696-9.377-2.714-2.99-15.657-16.335-21.502-29.09-5.847-12.758-9.107-31.461-16.669-42.538-7.565-11.076-16.674-25.107-20.669-26.252-3.995-1.142-10.153-3.761-13.886-6.945-3.733-3.182-8.031-6.013-9.883-7.17-1.853-1.158-4.916-3.891-6.863-5.105-3.312-2.067-2.299-6.431,1.642-6.273,3.944,0.157,10.251,1.506,14.755,6.164,0,0-1.042-3.666-3.432-7.094-2.387-3.427-3.951-7.873-5.916-11.747-1.965-3.879-3.488-6.714-4.972-9.308-1.476-2.595-4.999-10.172-1.548-12.041,3.45-1.872,5.548,2.73,8.102,6.372,2.553,3.645,6.062,10.478,8.811,13.093,0,0,0.07-4.496-2.138-8.326-2.211-3.829-9.713-16.663-6.116-19.806,0,0,1.738-1.559,4.24,1.1,2.504,2.659,5.206,8.519,7.072,11.166,1.871,2.65,5.897,11.63,6.871,12.821,0,0-0.611-6.855-2.987-10.909-2.372-4.051-4.029-7.608-4.891-9.57,0,0-3.1-6.658-0.42-7.89,2.684-1.23,4.622,0.407,6.952,4.214,2.334,3.813,3.774,8.281,5.536,10.327,1.758,2.047,4.365,6.678,5.091,7.912,0.732,1.238,2.491,3.285,2.491,3.285s-3.83-9.163-5.293-12.161c-2.278-4.662-2.188-7.195,0.373-8.402,0,0,0.699-1.002,3.257,2.645,2.553,3.644,5.987,10.415,7.927,14.171,1.944,3.757,5.062,8.417,6.831,11.209,1.767,2.791,3.119,6.777,4.555,10.498,1.432,3.73,2.029,11.211,2.785,14.684,0.756,3.475,2.021,6.978,4.046,9.102,2.028,2.122,18.803,22.232,25.884,28.543,7.076,6.311,14.62,15.898,19.416,24.24,4.795,8.341,8.473,18.877,10.09,26.426,1.621,7.548,0.079,6.313,3.429,12.24,13.141,23.244,15.996,41.354,17.732,46.636,0,0,8.056-31.56,11.727-52.029,2.251-12.553,4.861-22.413,2.251-36.497-2.609-14.085-2.578-14.749-4.51-23.265-1.968-8.66-2.861-13.845-5.47-22.296-2.609-8.452-4.971-24.251-4.845-38.336,0.123-14.084-1.586-47.367-1.564-62.497,0.019-15.125,1.863-45.595,2.104-53.531,0.242-7.933-3.961-16.176-4.634-23.893-0.674-7.706-1.859-17.694-4.617-23.563-2.757-5.869-10.703-26.01-12.094-38.693-1.389-12.685,0.096-38.154,2.421-52.704,2.325-14.559,5.425-38.685-1.212-46.63-6.638-7.943-10.436-11.772-14.64-13.544-4.207-1.774-9.606-2.765-12.28-4.426-2.675-1.661-4.042-2.861-5.987-3.896-1.938-1.039-3.769-4.223-1.403-5.866,0,0-1.427-1.747-0.693-2.617,0.735-0.87,1.529-1.375,2.551-1.303,0,0-1.672-1.699-0.773-3.096,0.894-1.392,2.449-1.16,3.103-1.02,0,0-2.372-2.085-1.003-3.682,1.369-1.599,3.636-1.608,6.27-0.939,0,0-0.901-2.329,1.552-3.489,2.447-1.162,5.551-2.187,10.799,0.533,5.25,2.707,4.229,0.402,9.679,2.088,5.452,1.686,6.066,4.561,9.374,6.981,3.31,2.424,7.15,5.002,11.62,5.365,4.471,0.357,10.023,0.414,11.885,6.931,1.86,6.517-2.084,10.041-0.53,19.22,0,0,0.697,3.363,1.738,5.048,1.04,1.684,1.167,4.648,0.796,7.691-0.363,3.041-0.753,8.198,0.065,13.775,0.818,5.576,1.127,23.784,5.723,36.046,4.596,12.269,9.725,26.183,9.379,37.545-0.346,11.363,2.532,22.426,4.169,29.851,1.635,7.423,6.802,17.108,8.56,27.495,1.757,10.385,10.94,50.026,12.898,60.851,3.184,17.595,10.544,38.274,12,42l4.104,11,15-54c1.958-10.825,11.141-50.466,12.898-60.851,1.758-10.387,6.925-20.072,8.56-27.495,1.637-7.425,4.515-18.488,4.169-29.851-0.346-11.362,4.783-25.276,9.379-37.545,4.596-12.262,4.905-30.47,5.723-36.046,0.818-5.577,0.428-10.734,0.065-13.775-0.371-3.043-0.244-6.007,0.796-7.691,1.041-1.685,1.738-5.048,1.738-5.048,1.554-9.179-2.39-12.703-0.53-19.22,1.862-6.517,7.414-6.574,11.885-6.931,4.47-0.363,8.31-2.941,11.62-5.365,3.308-2.42,3.922-5.295,9.374-6.981,5.45-1.686,4.429,0.619,9.679-2.088,5.248-2.72,8.352-1.695,10.799-0.533,2.453,1.16,1.552,3.489,1.552,3.489,2.634-0.669,4.901-0.66,6.27,0.939,1.369,1.597-1.003,3.682-1.003,3.682,0.654-0.14,2.209-0.372,3.103,1.02,0.899,1.397-0.773,3.096-0.773,3.096,1.022-0.072,1.816,0.433,2.551,1.303,0.734,0.87-0.693,2.617-0.693,2.617,2.366,1.643,0.535,4.827-1.403,5.866-1.945,1.035-3.312,2.235-5.987,3.896-2.674,1.661-8.073,2.652-12.28,4.426-4.204,1.772-8.002,5.601-14.64,13.544-6.637,7.945-3.537,32.071-1.212,46.63,2.325,14.55,3.81,40.019,2.421,52.704-1.391,12.683-9.337,32.824-12.094,38.693-2.758,5.869-3.943,15.857-4.617,23.563-0.673,7.717-4.876,15.96-4.634,23.893,0.241,7.936,2.085,38.406,2.104,53.531,0.022,15.13-1.687,48.413-1.564,62.497,0.126,14.085-2.235,29.884-4.845,38.336-2.609,8.451-3.502,13.636-5.47,22.296-1.932,8.516-1.901,9.18-4.51,23.265-2.61,14.084,0,23.944,2.251,36.497,3.671,20.469,11.727,52.029,11.727,52.029,1.737-5.282,4.591-23.392,17.732-46.636,3.35-5.927,1.808-4.692,3.429-12.24,1.618-7.549,5.295-18.085,10.09-26.426,4.796-8.342,12.34-17.929,19.416-24.24,7.081-6.311,23.856-26.421,25.884-28.543,2.025-2.124,3.29-5.627,4.046-9.102,0.756-3.473,1.353-10.954,2.785-14.684,1.436-3.721,2.788-7.707,4.555-10.498,1.769-2.792,4.887-7.452,6.831-11.209,1.94-3.756,5.374-10.527,7.928-14.171,2.557-3.647,3.256-2.645,3.256-2.645,2.561,1.207,2.651,3.74,0.373,8.402-1.463,2.998-5.293,12.161-5.293,12.161s1.759-2.047,2.491-3.285c0.726-1.234,3.333-5.865,5.091-7.912,1.762-2.046,3.202-6.514,5.536-10.327,2.33-3.807,4.268-5.444,6.952-4.214,2.68,1.232-0.42,7.89-0.42,7.89-0.862,1.962-2.519,5.519-4.891,9.57-2.376,4.054-2.987,10.909-2.987,10.909,0.975-1.191,5-10.171,6.871-12.821,1.866-2.647,4.568-8.507,7.072-11.166,2.502-2.659,4.24-1.1,4.24-1.1,3.597,3.143-3.905,15.977-6.116,19.806-2.208,3.83-2.138,8.326-2.138,8.326,2.749-2.615,6.258-9.448,8.811-13.093,2.554-3.642,4.652-8.244,8.102-6.372,3.451,1.869-0.072,9.446-1.548,12.041-1.484,2.594-3.007,5.429-4.972,9.308-1.965,3.874-3.529,8.32-5.916,11.747-2.389,3.428-3.432,7.094-3.432,7.094,4.504-4.658,10.811-6.007,14.755-6.164,3.947-0.123,4.961,4.241,1.648,6.308z"
             connector-curvature="0"
             stroke="#869dc5"
             stroke-width="3"
             fill="none" /></g></g></g></g><text
     id="text3126"
     style="word-spacing:0px;letter-spacing:0px;writing-mode:lr-tb;text-anchor:start;text-align:start;"
     font-family="Sans"
     xml:space="preserve"
     font-size="14px"
     font-style="normal"
     font-stretch="normal"
     line-height="125%"
     font-variant="normal"
     y="221.23036"
     x="1.9999995"
     font-weight="normal"
     fill="#333333"><tspan
       id="tspan3128"
       y="221.23036"
       x="1.9999995">Right</tspan></text>
<text
     id="text3126-1"
     style="word-spacing:0px;letter-spacing:0px;writing-mode:lr-tb;text-anchor:start;text-align:start;"
     font-family="Sans"
     xml:space="preserve"
     font-size="14px"
     font-style="normal"
     font-stretch="normal"
     line-height="125%"
     font-variant="normal"
     y="587.33569"
     x="184.44495"
     font-weight="normal"
     fill="#333333"><tspan
       id="tspan3128-7"
       y="587.33569"
       x="184.44495">Right</tspan></text>
<text
     id="text3126-1-4"
     style="word-spacing:0px;letter-spacing:0px;writing-mode:lr-tb;text-anchor:start;text-align:start;"
     font-family="Sans"
     xml:space="preserve"
     font-size="14px"
     font-style="normal"
     font-stretch="normal"
     line-height="125%"
     font-variant="normal"
     y="587.06958"
     x="3.1330576"
     font-weight="normal"
     fill="#333333"><tspan
       id="tspan3942"
       y="587.06958"
       x="3.1330576">Left</tspan></text>
<text
     id="text3126-1-4-9"
     style="word-spacing:0px;letter-spacing:0px;writing-mode:lr-tb;text-anchor:start;text-align:start;"
     font-family="Sans"
     xml:space="preserve"
     font-size="14px"
     font-style="normal"
     font-stretch="normal"
     line-height="125%"
     font-variant="normal"
     y="221.19513"
     x="193.85791"
     font-weight="normal"
     fill="#333333"><tspan
       id="tspan3942-4"
       y="221.19513"
       x="193.85791">Left</tspan></text>
<rect
     id="rect3143"
     height="19.581"
     width="18.798"
     stroke="#333"
     y="6.1824"
     x="7.0493"
     fill="none"
     class="severe_key"><title
       id="title3964">Worst Pain Key</title></rect><rect
     id="rect3143-1"
     height="19.581"
     width="18.798"
     stroke="#333"
     y="29.555"
     x="6.8819"
     fill="none"
     class="pain_key"><title
       id="title3966">Other Pain Key</title></rect><text
     id="text3933"
     style="writing-mode:lr;letter-spacing:0px;text-anchor:start;word-spacing:0px;text-align:start;"
     font-weight="normal"
     xml:space="preserve"
     font-size="11px"
     font-style="normal"
     font-stretch="normal"
     font-variant="normal"
     y="20.182377"
     x="28.813206"
     font-family="Sans"
     line-height="125%"
     fill="#333333"><tspan
       id="tspan3935"
       x="28.813206"
       y="20.182377">Worst Pain</tspan></text>
<text
     id="text3933-7"
     style="writing-mode:lr-tb;letter-spacing:0px;text-anchor:start;word-spacing:0px;text-align:start;"
     font-weight="normal"
     xml:space="preserve"
     font-size="11px"
     font-style="normal"
     font-stretch="normal"
     font-variant="normal"
     y="37.301624"
     x="29.533651"
     font-family="Sans"
     line-height="100%"
     fill="#333333"><tspan
       id="tspan3960"
       x="29.533651"
       y="37.301624">Other</tspan><tspan
       id="tspan3962"
       x="29.533651"
       y="48.301624">Locations</tspan></text>
<path
     d="M 109.99414 51.402344 C 104.88068 51.556037 100.99627 50.057542 98.193359 46.871094 L 98.34375 51.171875 C 98.34375 51.171875 98.005105 52.697837 96.328125 53.523438 C 94.650325 54.350707 89.556328 56.828803 87.298828 57.783203 C 85.041328 58.737543 80.138191 59.881525 78.462891 60.390625 C 78.171361 60.478625 77.718629 60.524827 77.167969 60.560547 C 80.517669 62.494147 84.021944 64.269622 86.902344 65.169922 C 90.559522 66.312936 99.677406 67.640904 109.99414 67.501953 L 109.99414 51.402344 z "
     id="front_right_anterior_neck"
     fill="none" /><path
     d="M 109.99414 51.402344 L 109.99414 67.501953 C 120.48843 67.360611 132.22598 65.700797 140.82422 60.71875 L 140.82031 60.71875 C 138.75961 60.15063 134.66074 59.151634 132.65234 58.302734 C 130.39394 57.348384 125.29889 54.870269 123.62109 54.042969 C 121.94409 53.217369 121.75391 51.691406 121.75391 51.691406 L 121.94141 47.130859 C 118.12821 49.472259 114.45902 51.239662 110.26172 51.414062 C 110.16675 51.418026 110.08826 51.399515 109.99414 51.402344 z "
     id="front_left_anterior_neck"
     fill="none" /><path
     d="M 109.99414 67.494141 C 104.59504 67.567542 99.517363 67.257628 95.390625 66.759766 C 91.427925 73.204266 84.254984 82.801125 74.958984 86.453125 C 74.669944 86.566915 74.372066 86.671521 74.066406 86.769531 C 74.066406 86.769531 74.554649 97.574391 74.693359 97.150391 C 74.693359 97.150391 78.87585 113.53611 80.78125 124.16211 C 81.94985 130.67891 83.303919 135.79642 81.949219 143.10742 C 81.898519 143.37902 81.852037 143.63729 81.804688 143.89062 C 86.478387 144.06421 92.954906 143.9236 94.878906 142 L 94.880859 142 C 97.951402 138.92946 99.022928 113.68873 109.99414 112.49609 L 109.99414 67.494141 z "
     id="front_right_anterior_chest"
     fill="none" /><path
     d="M 109.99414 67.494141 L 109.99414 112.49609 C 110.15192 112.47894 110.29121 112.4172 110.45312 112.41016 C 122.39312 111.89105 120.83587 136.80794 126.54688 140.96094 C 129.24207 142.92034 133.89931 143.72414 138.07031 144.02734 C 138.04621 143.89445 138.02295 143.764 137.99805 143.62695 C 136.64335 136.31535 137.99742 131.19569 139.16602 124.67969 C 141.07142 114.05369 145.25391 97.669922 145.25391 97.669922 C 145.41754 98.167442 146.00195 86 146.00195 86 C 145.94295 85.9776 145.88011 85.955994 145.82031 85.933594 C 136.45051 82.252394 129.23792 72.533844 125.29492 66.089844 C 120.22097 67.036856 114.97134 67.426475 109.99414 67.494141 z "
     id="front_left_anterior_chest"
     fill="none" /><path
     d="M 109.99414 112.49219 C 99.024973 113.68781 97.95245 138.92742 94.882812 141.99805 C 92.959213 143.92165 86.481194 144.06137 81.808594 143.88867 C 80.599294 150.44447 80.577328 150.92454 79.611328 155.18164 C 78.589728 159.67764 78.127084 162.36976 76.771484 166.75586 C 76.691744 167.015 76.613236 167.29016 76.535156 167.57422 L 109.99414 168.0918 L 109.99414 112.49219 z "
     id="front_right_anterior_upper_abdomen"
     fill="none" /><path
     d="M 109.99414 112.49219 L 109.99414 168.0918 L 144.18359 168.62109 C 144.00169 167.86443 141.3634 160.19737 140.3418 155.70117 L 140.33984 155.69922 C 139.3556 151.36192 139.35221 150.94454 138.07227 144.02344 C 133.90187 143.72111 129.24283 142.91838 126.54883 140.95898 C 120.83853 136.80608 122.39518 111.88725 110.45508 112.40625 C 110.29237 112.41333 110.15267 112.47491 109.99414 112.49219 z "
     id="front_left_anterior_upper_abdomen"
     fill="none" /><path
     d="M 109.99414 168.09961 L 76.533203 167.58203 C 81.791223 170.7812 92.497827 178.06591 94.880859 185.61133 C 97.851928 195.01814 103.20127 200.11829 109.99414 200.57422 L 109.99414 168.09961 z "
     id="front_right_anterior_pelvic"
     fill="none" /><path
     d="M 109.99414 168.09961 L 109.99414 200.57422 C 110.32283 200.59628 110.63723 200.66406 110.97266 200.66406 C 115.48606 200.66406 119.46089 198.06604 122.24609 193.90234 C 124.26609 190.88154 125.11077 187.05981 127.73047 182.69531 C 131.25047 176.82811 138.90164 171.89995 144.18164 168.62695 L 109.99414 168.09961 z "
     id="front_left_anterior_pelvic"
     fill="none" /><path
     d="M 110.44141 369.69141 C 110.37824 369.69478 110.33121 369.67965 110.26758 369.68359 C 108.21518 369.68359 97.503422 370.04792 93.982422 379.5332 C 93.982422 379.5332 91.260944 388.08235 92.089844 393.25195 C 92.089844 393.25195 90.733403 391.80956 89.533203 392.50391 C 88.806443 392.92418 89.326418 396.24563 90.361328 398.08203 C 91.397028 399.91923 92.29495 401.14369 92.15625 402.36719 C 92.01837 403.59149 93.122498 406.92616 94.986328 406.78906 C 94.986328 406.78906 95.032347 407.48938 95.210938 408.5293 L 102.48242 404.63477 C 102.48242 404.63477 106.27516 406.01905 110.44141 406.01953 L 110.44141 369.69141 z "
     id="back_left_posterior_head"
     fill="none" /><path
     d="M 110.44141 369.69141 L 110.44141 406.01953 C 115.28498 406.01908 118.74609 404.63477 118.74609 404.63477 L 125.37109 409.47656 C 125.60947 408.22406 125.66797 407.3457 125.66797 407.3457 C 127.53177 407.48275 128.63479 404.14813 128.49609 402.92383 C 128.35822 401.69953 129.25528 400.47507 130.29102 398.63867 C 131.32592 396.80227 131.84697 393.47995 131.12109 393.06055 C 129.92009 392.36535 128.56641 393.80859 128.56641 393.80859 C 129.39534 388.63899 126.67383 380.08984 126.67383 380.08984 C 126.67383 380.08984 123.24754 369.00816 110.44141 369.69141 z "
     id="back_right_posterior_head"
     fill="none" /><path
     d="M 137.86719 508.375 L 117.61914 508.375 L 117.61914 542.76367 C 118.01284 542.02196 118.42237 541.31319 118.84766 540.65039 C 126.07626 529.38839 136.08372 524.16702 140.13672 522.41602 C 139.62425 519.99242 139.39529 518.49796 138.34961 512.85156 C 138.05401 511.25615 137.93487 509.79887 137.86719 508.375 z "
     id="back_lower_right_posterior_thorax"
     fill="none" /><path
     d="M 149.0625 449.80664 C 148.04229 448.29327 135.91472 461.16838 117.62109 462.86133 L 117.61914 462.85938 L 117.61914 508.375 L 137.86719 508.375 C 137.6247 503.27343 138.60397 499.00044 139.51758 493.90625 C 141.23938 484.30805 144.81894 470.01289 145.49414 467.33789 L 145.49414 466.44141 C 145.49414 466.44141 146.22818 458.43416 148.80469 451.41016 C 149.12675 450.53216 149.20824 450.02284 149.0625 449.80664 z "
     id="back_upper_right_posterior_thorax"
     fill="none" /><path
     d="M 102.75977 508.375 L 82.726562 508.375 C 82.646204 509.64949 82.560513 510.92564 82.298828 512.33789 C 81.197428 518.28569 81.002534 519.62488 80.427734 522.29688 C 84.434434 524.01868 94.516156 529.23445 101.78516 540.56055 C 102.14231 541.11704 102.48671 541.70546 102.82227 542.31836 L 102.75977 508.375 z "
     id="back_lower_left_posterior_thorax"
     fill="none" /><path
     d="M 71.707031 451.29297 C 74.300514 458.3304 75.042969 466.38281 75.042969 466.38281 C 75.042969 466.38281 79.225459 482.76658 81.130859 493.39258 C 82.073723 498.65054 83.062208 503.05164 82.726562 508.375 L 102.75977 508.375 L 102.67773 462.86133 C 81.964732 460.90218 71.715929 451.30131 71.707031 451.29297 z "
     id="back_upper_left_posterior_thorax"
     fill="none" /></svg>
