<?xml version="1.0" encoding="UTF-8" standalone="no"?>
<!-- Generator: Adobe Illustrator 15.0.2, SVG Export Plug-In . SVG Version: 6.00 Build 0)  -->

<svg
   id="svg2"
   xml:space="preserve"
   preserveAspectRatio="xMinYMin"
   viewBox="0 0 475.80758 397.7652"
   version="1.1"
   sodipodi:docname="body_diagram_horizontal.svg"
   width="475.80759"
   height="397.7652"
   inkscape:version="1.2.2 (b0a8486, 2022-12-01)"
   xmlns:inkscape="http://www.inkscape.org/namespaces/inkscape"
   xmlns:sodipodi="http://sodipodi.sourceforge.net/DTD/sodipodi-0.dtd"
   xmlns="http://www.w3.org/2000/svg"
   xmlns:svg="http://www.w3.org/2000/svg"
   xmlns:rdf="http://www.w3.org/1999/02/22-rdf-syntax-ns#"
   xmlns:cc="http://creativecommons.org/ns#"
   xmlns:dc="http://purl.org/dc/elements/1.1/"><sodipodi:namedview
   id="namedview798"
   pagecolor="#ffffff"
   bordercolor="#000000"
   borderopacity="0.25"
   inkscape:showpageshadow="2"
   inkscape:pageopacity="0.0"
   inkscape:pagecheckerboard="0"
   inkscape:deskcolor="#d1d1d1"
   showgrid="false"
   inkscape:zoom="0.41918295"
   inkscape:cx="344.71822"
   inkscape:cy="126.43644"
   inkscape:window-width="1309"
   inkscape:window-height="456"
   inkscape:window-x="0"
   inkscape:window-y="25"
   inkscape:window-maximized="0"
   inkscape:current-layer="svg2" />
  <style
   id="style3">
path {
    fill:white;
    stroke:black;
}
path.transparent {
    fill:rgba(128,128,128,0);
}
path.pain {
    fill:yellow;
}
path.severe_pain {
    fill:red;
}
  </style>
        <metadata
   id="metadata8"><rdf:RDF><cc:Work
       rdf:about=""><dc:format>image/svg+xml</dc:format><dc:type
         rdf:resource="http://purl.org/dc/dcmitype/StillImage" /></cc:Work></rdf:RDF></metadata>
  <defs
   id="defs6">
    <clipPath
   id="clipPath16-7"
   clipPathUnits="userSpaceOnUse">
      <path
   id="path18-5"
   fill="#FFF"
   d="M 0,841.89 H 595.28 V 0 H 0 Z"
   stroke="#000" />
    </clipPath>
  </defs>
<path
   id="front_anterior_neck"
   d="m 148.28711,64.368957 c -2.17948,-0.600879 -6.51475,-1.65768 -8.63904,-2.555491 -2.38859,-1.009364 -7.77597,-3.630718 -9.55048,-4.505685 -1.77363,-0.873199 -1.97568,-2.487839 -1.97568,-2.487839 l 0.19852,-4.822822 c -4.03306,2.476417 -7.91431,4.344929 -12.35279,4.529413 -5.55723,0.231932 -9.74593,-1.37217 -12.76495,-4.804373 l 0.159,4.548735 c 0,0 -0.35666,1.61464 -2.1303,2.487839 -1.774512,0.874956 -7.163071,3.496321 -9.550475,4.505685 -2.387687,1.009375 -7.573901,2.219033 -9.346221,2.75753 -0.308343,0.0931 -0.785352,0.142308 -1.367786,0.180088 3.542885,2.045087 7.249163,3.922403 10.295714,4.874654 7.802309,2.438637 38.994708,5.741701 57.029028,-4.707734 z M 99.699479,150.3349"
   style="stroke-width:0.732061" />
  <path
   class="transparent"
   d="m 115.72699,54.515865 c -5.43066,0.172879 -9.551,-1.414616 -12.5237,-4.794157 l 0.15871,4.549672 c 0,0 -0.35676,1.61464 -2.13041,2.48785 -1.774515,0.874967 -7.163718,3.495954 -9.551107,4.505318 -2.387696,1.009365 -7.572897,2.219604 -9.345217,2.758101 -0.30835,0.09311 -0.785908,0.14095 -1.368341,0.178731 3.542894,2.045087 7.249507,3.923372 10.296057,4.875645 3.875047,1.211156 13.527308,2.628068 24.464008,2.474984 z"
   id="front_right_anterior_neck"
   style="stroke-width:0.732061" />
  <path
   class="transparent"
   d="m 115.72699,54.515865 v 17.036144 c 11.08402,-0.15512 23.48777,-1.923663 32.56528,-7.183343 h -0.005 c -2.1795,-0.600868 -6.5146,-1.657259 -8.6389,-2.55506 -2.38857,-1.009364 -7.77517,-3.630363 -9.54967,-4.505318 -1.77364,-0.87321 -1.976,-2.487872 -1.976,-2.487872 l 0.19874,-4.822746 c -4.03306,2.476427 -7.91506,4.343732 -12.35354,4.528206 -0.0852,0.0032 -0.15556,-0.01261 -0.2402,-0.0097 z"
   id="front_left_anterior_neck"
   style="stroke-width:0.732061" />
  <path
   id="front_anterior_chest"
   d="m 99.700207,150.33857 c 3.294273,-3.29428 4.391493,-30.77001 16.471383,-31.29562 12.62805,-0.54905 10.98091,25.80517 17.02043,30.19752 2.85064,2.07233 7.77814,2.9218 12.18955,3.24245 -0.0255,-0.14055 -0.0517,-0.27847 -0.0781,-0.42341 -1.43281,-7.7335 0,-13.14637 1.23602,-20.03873 2.01521,-11.23861 6.43919,-28.56722 6.43919,-28.56722 0.17308,0.5262 0.79065,-12.343289 0.79065,-12.343289 -0.0623,-0.02371 -0.12914,-0.04483 -0.1924,-0.06843 -9.90991,-3.893393 -17.538,-14.17344 -21.7078,-20.989667 -11.1881,2.088137 -23.2393,1.720935 -31.62652,0.70893 -4.191195,6.816076 -11.777405,16.966995 -21.609717,20.829343 -0.305716,0.120356 -0.621087,0.231037 -0.944365,0.334712 0,0 0.515669,11.428191 0.662373,10.979451 0,0 4.423993,17.32861 6.439212,28.56723 1.236013,6.8925 2.668804,12.30594 1.236013,20.03872 -0.05361,0.28724 -0.103665,0.56133 -0.153732,0.82926 4.943174,0.18362 11.793511,0.0343 13.828641,-2.00027 z"
   style="stroke-width:0.732061" />
  <path
   class="transparent"
   d="m 115.72699,71.536287 v 47.589693 c 0.15322,-0.0157 0.28775,-0.0762 0.44466,-0.083 12.62805,-0.54905 10.98091,25.80516 17.02042,30.19751 2.85064,2.07233 7.7777,2.92217 12.18912,3.24282 -0.0255,-0.14056 -0.0509,-0.27828 -0.0772,-0.42322 -1.43278,-7.73351 -6.5e-4,-13.1464 1.23536,-20.03876 2.01522,-11.2386 6.43986,-28.56753 6.43986,-28.56753 0.17306,0.52619 0.79067,-12.343533 0.79067,-12.343533 -0.0623,-0.02371 -0.12976,-0.04493 -0.19303,-0.06864 -9.9099,-3.893382 -17.53751,-14.173332 -21.70732,-20.989548 -5.35309,0.999095 -10.89011,1.410909 -16.14251,1.484121 z"
   id="front_left_anterior_chest"
   style="stroke-width:0.732061" />
  <path
   class="transparent"
   d="m 115.72699,71.536287 c -5.72527,0.07974 -11.11058,-0.247158 -15.48483,-0.774955 -4.191192,6.816077 -11.776355,16.967081 -21.608674,20.829429 -0.305709,0.120357 -0.621826,0.230918 -0.945102,0.334583 0,0 0.5153,11.428236 0.662004,10.979486 0,0 4.42463,17.32894 6.43985,28.56755 1.236013,6.8925 2.668141,12.30599 1.235358,20.03875 -0.05361,0.28726 -0.102911,0.56134 -0.152989,0.82929 4.943169,0.18359 11.792534,0.0342 13.827664,-2.00031 v -0.002 c 3.251479,-3.2515 4.383159,-30.01136 16.026719,-31.21271 z"
   id="front_right_anterior_chest"
   style="stroke-width:0.732061" />
  <path
   id="front_anterior_upper_abdomen"
   d="m 147.78199,164.83339 c -1.04099,-4.58739 -1.0445,-5.03014 -2.39824,-12.35061 -4.4108,-0.31977 -9.3389,-1.16926 -12.1888,-3.24158 -6.03951,-4.39235 -4.39238,-30.74657 -17.02117,-30.19751 -12.07974,0.52531 -13.17709,28.00134 -16.471373,31.29561 -2.034551,2.03454 -8.885757,2.18389 -13.827901,2.00116 -1.279058,6.93379 -1.301905,7.44141 -2.32357,11.94358 -1.080521,4.75519 -1.569831,7.60246 -3.003501,12.24153 -0.08433,0.27409 -0.168669,0.56487 -0.251246,0.8653 l 71.550941,1.10687 c -0.19238,-0.80027 -2.98417,-8.90918 -4.06469,-13.66464 z"
   style="stroke-width:0.732061" />
  <path
   class="transparent"
   d="m 115.72699,119.12743 v 58.81082 l 36.11978,0.55906 c -0.19238,-0.80023 -2.98424,-8.90761 -4.06494,-13.66324 0,0 0,-0.002 0,-0.002 -1.04065,-4.58593 -1.04422,-5.02959 -2.3978,-12.34924 -4.41082,-0.31977 -9.33919,-1.17048 -12.18909,-3.2428 -6.03952,-4.39237 -4.39308,-30.74658 -17.02187,-30.19752 -0.15749,0.007 -0.29231,0.0684 -0.44608,0.0843 z"
   id="front_left_anterior_upper_abdomen"
   style="stroke-width:0.732061" />
  <path
   class="transparent"
   d="m 115.72699,119.12743 c -11.64183,1.20349 -12.77397,27.95993 -16.025291,31.21126 -2.034542,2.03454 -8.885523,2.18444 -13.827667,2.00173 -1.279058,6.93378 -1.301775,7.44099 -2.32344,11.94317 -1.080519,4.75518 -1.568921,7.60294 -3.002592,12.24201 -0.08434,0.27409 -0.16907,0.56459 -0.251648,0.86502 l 35.430638,0.54763 z"
   id="front_right_anterior_upper_abdomen"
   style="stroke-width:0.732061" />
  <path
   id="front_anterior_pelvic"
   d="m 99.700207,196.45843 c 3.294273,10.43187 9.333783,15.92234 17.020423,15.92234 4.77362,0 8.97726,-2.74875 11.92235,-7.15254 2.13644,-3.19501 3.02986,-7.23599 5.80057,-11.85208 3.72297,-6.20553 11.81618,-11.41722 17.4011,-14.87841 l -71.550949,-1.106 c 5.561623,3.38389 16.8872,11.08708 19.406217,19.06801 z"
   style="stroke-width:0.732061" />
  <path
   class="transparent"
   d="m 115.72699,177.93968 v 34.35112 c 0.33393,0.0215 0.6532,0.0901 0.99369,0.0901 4.77363,0 8.97665,-2.74954 11.92174,-7.15333 2.13644,-3.195 3.03002,-7.23558 5.80073,-11.85167 3.72297,-6.20554 11.81729,-11.41737 17.40219,-14.87856 z"
   id="front_left_anterior_pelvic"
   style="stroke-width:0.732061" />
  <path
   class="transparent"
   d="m 115.72699,177.93968 -35.433502,-0.54761 c 5.561345,3.3837 16.887012,11.0874 19.406783,19.06791 3.148429,9.9689 8.822419,15.36698 16.026719,15.83082 z"
   id="front_right_anterior_pelvic"
   style="stroke-width:0.732061" />
  <path
   id="front_posterior_head"
   d="m 132.95043,11.637112 c 0,0 -3.64304,-11.85646429 -17.35351,-11.00580829 -2.17071,0 -13.49921,0.38564799 -17.223941,10.41796329 0,0 -2.790905,8.771559 -2.035419,14.259089 l 0.411125,0.576279 c 0,0 0.987408,-0.361053 2.618726,-0.727375 l -0.05625,-0.187995 c 0,0 0.182732,-20.1309523 16.471389,-19.7656533 16.28835,0.366323 15.55629,19.5826383 15.55629,19.5826383 l -0.0343,0.183602 c 1.99414,0.507757 3.64919,1.175397 3.64919,1.175397 0.87671,-5.46762 -2.00205,-14.508722 -2.00205,-14.508722 z"
   style="stroke-width:0.732061" />
  <path
   id="front_right_cheek"
   d="m 115.70307,26.735877 c -0.70277,-0.01933 -1.44157,-0.148464 -2.11185,-0.48404 -2.19619,-1.098092 -3.84332,-2.012583 -8.60172,-1.82986 -0.28902,0.01143 -0.57276,0.02635 -0.85124,0.04568 -0.0975,0.0061 -0.19063,0.01581 -0.28639,0.02283 -0.17832,0.01405 -0.35665,0.02724 -0.53059,0.04305 -0.12035,0.01142 -0.23719,0.02459 -0.35578,0.03777 -0.14143,0.01494 -0.28376,0.02898 -0.42166,0.04568 -0.13705,0.01669 -0.2697,0.03427 -0.40323,0.05182 -0.11069,0.01493 -0.22138,0.02899 -0.32943,0.04481 -0.15109,0.02197 -0.2978,0.04481 -0.44274,0.06764 -0.0809,0.01231 -0.16427,0.02547 -0.24335,0.03865 -0.16427,0.02723 -0.32327,0.05535 -0.47964,0.08345 -0.0518,0.0097 -0.10365,0.01844 -0.15461,0.02811 -0.17482,0.03337 -0.34437,0.0659 -0.508641,0.09927 -0.0263,0.0053 -0.05271,0.01056 -0.07817,0.01581 -0.181845,0.03777 -0.357534,0.07555 -0.525321,0.112444 -1.634845,0.367201 -2.623129,0.728254 -2.623129,0.728254 l -0.412,-0.576277 c 0.01138,0.08346 0.02108,0.167788 0.03433,0.249486 0,0 -1.431918,-1.525909 -2.702195,-0.790626 -0.664126,0.383892 -0.341723,3.056209 0.462962,5.030144 0.126501,0.310979 0.264419,0.606145 0.413765,0.870567 1.095447,1.942305 2.045083,3.238049 1.898378,4.532041 -0.14583,1.294868 1.02166,4.821063 2.99208,4.676984 0,0 0.06763,1.019035 0.350509,2.443044 l 15.936252,-6.093093 -0.0255,-9.491174 z"
   style="stroke-width:0.732061" />
  <path
   id="front_right_jaw"
   d="m 99.788059,42.319992 c 0.422541,2.126788 1.325621,5.158405 3.205551,7.055031 l 1.99238,2.269981 c 2.56426,1.903642 6.04829,2.759276 10.78766,2.667044 l -0.0484,-18.084849 -15.93625,6.093089 z"
   style="stroke-width:0.732061" />
  <path
   id="front_right_brow"
   d="m 99.978394,25.027977 c 0.165156,-0.03337 0.332946,-0.06677 0.508646,-0.09839 0.0509,-0.0097 0.10366,-0.01844 0.1546,-0.02811 0.15725,-0.02811 0.31537,-0.05622 0.47964,-0.08346 0.0799,-0.01405 0.16253,-0.02547 0.24423,-0.03865 0.14583,-0.02283 0.29253,-0.04568 0.44274,-0.06765 0.10805,-0.01493 0.21874,-0.02899 0.33031,-0.04391 0.13352,-0.01758 0.2653,-0.03601 0.40235,-0.05183 0.13791,-0.01669 0.28023,-0.03163 0.42166,-0.04568 0.11859,-0.01231 0.23543,-0.02547 0.35578,-0.0369 0.17306,-0.0167 0.35228,-0.02987 0.5306,-0.04305 0.0957,-0.0079 0.18975,-0.01669 0.28638,-0.02283 0.27936,-0.01844 0.5631,-0.03427 0.85124,-0.04481 4.7587,-0.1836 6.40583,0.731769 8.60172,1.829861 0.67027,0.334698 1.40907,0.463833 2.11185,0.484038 L 115.64227,5.2088747 C 99.498799,4.9664237 99.31286,24.973073 99.31286,24.973073 l 0.05625,0.187115 c 7.28e-4,0 0.0038,-9e-4 0.0038,-9e-4 0.168674,-0.0369 0.343485,-0.07467 0.525331,-0.112445 0.02546,-0.0053 0.05177,-0.01056 0.07817,-0.01581 z"
   style="stroke-width:0.732061" />
  <path
   id="front_left_cheek"
   d="m 130.79086,24.844962 c -0.005,-0.0016 -0.0123,-0.0026 -0.0183,-0.0044 -0.44891,-0.103665 -0.90835,-0.194142 -1.36339,-0.267055 -0.0965,-0.01494 -0.19328,-0.03163 -0.28989,-0.04481 -0.0923,-0.01318 -0.18362,-0.02372 -0.27585,-0.03427 -0.11332,-0.01405 -0.22752,-0.02635 -0.3391,-0.0369 -0.0817,-0.0079 -0.16339,-0.01405 -0.2442,-0.0202 -0.12738,-0.0097 -0.25301,-0.01494 -0.37774,-0.01933 -0.0651,-0.0026 -0.1309,-0.0061 -0.19591,-0.007 -0.188,-0.0016 -0.37336,-9.01e-4 -0.55168,0.01056 -4.0199,0.236308 -8.41944,1.830737 -8.41944,1.830737 0,0 -1.41346,0.527964 -3.01228,0.483162 l 0.0255,9.491173 0.24157,-0.09223 15.803,5.406128 c 0.0924,-0.66413 0.11948,-1.076136 0.11948,-1.076136 1.9713,0.144947 3.13879,-3.381242 2.99208,-4.67611 -0.14671,-1.294875 0.80293,-2.590619 1.89838,-4.532924 0.33733,-0.598241 0.62197,-1.345826 0.83366,-2.105704 0.47438,-1.709513 0.57453,-3.486663 0.043,-3.793249 -1.27027,-0.735283 -2.7013,0.790624 -2.7013,0.790624 0,0 -1.65505,-0.667639 -3.64918,-1.175397 -0.17042,-0.04305 -0.34349,-0.08521 -0.51743,-0.12562 z"
   style="stroke-width:0.732061" />
  <path
   id="front_left_jaw"
   d="m 126.53758,50.959059 1.79735,-0.996196 c 2.33937,-2.359584 3.16691,-6.476987 3.4366,-8.421629 l -15.80302,-5.406131 -0.24157,0.09224 0.0484,18.084843 c 0.50862,-0.0097 1.02781,-0.02726 1.56631,-0.05894 2.33322,-0.137049 5.16366,-0.816981 9.19689,-3.29426 z"
   style="stroke-width:0.732061" />
  <path
   id="front_left_brow"
   d="m 118.71184,26.251984 c 0,0 4.40028,-1.593551 8.41943,-1.830739 0.17833,-0.01056 0.36369,-0.01231 0.5517,-0.0097 0.065,9e-4 0.13087,0.0044 0.19588,0.007 0.12476,0.0044 0.25036,0.01056 0.37776,0.01933 0.0809,0.0061 0.16251,0.01318 0.24421,0.02108 0.11244,0.01056 0.22489,0.02283 0.33909,0.03602 0.0913,0.01142 0.1836,0.02197 0.27584,0.03427 0.0966,0.01404 0.19326,0.02898 0.29077,0.04481 0.45682,0.07291 0.91449,0.163398 1.36339,0.267057 0.005,9e-4 0.0123,0.0026 0.0183,0.0036 0.17481,0.04041 0.34699,0.08258 0.51741,0.126501 l 0.0343,-0.183601 c 0,0 0.73265,-19.2166093 -15.5563,-19.5826393 -0.0491,-9e-4 -0.0931,0.0036 -0.1423,0.0026 l 0.0579,21.5284593 c 1.59882,0.04481 3.01229,-0.484039 3.01229,-0.484039 z"
   style="stroke-width:0.732061" />
  <path
   id="front_right_anterior_medial_upper_thigh"
   d="m 99.700207,196.45843 c -0.624585,-1.97831 -1.791205,-3.9382 -3.274952,-5.82078 l -6.263505,68.41188 c 4.521498,0.79765 9.167602,3.14141 12.76129,5.34551 1.69721,-7.74814 3.5912,-16.24225 4.20174,-19.62071 1.74817,-9.66028 5.79001,-21.01382 6.58856,-23.05993 l 2.11624,-5.21551 v -4.11738 c -7.18505,-0.48142 -12.98677,-5.971 -16.129514,-15.92234 z"
   style="stroke-width:0.732061" />
  <path
   id="front_right_anterior_medial_knee"
   d="m 83.02386,291.44338 c 3.886362,1.10688 8.45604,1.16926 12.571684,0.84158 1.087555,-3.92853 3.558697,-8.84989 4.447706,-14.10024 0.4164,-2.45972 1.59092,-7.91064 2.87964,-13.7891 -3.59296,-2.2041 -8.24008,-4.54785 -12.760559,-5.34551 l -7.137596,32.39371 z"
   style="stroke-width:0.732061" />
  <path
   id="front_right_medial_ankle"
   d="m 75.776446,350.41824 -2.359577,15.10903 c 5.631891,0.84068 5.596751,0.90306 9.723973,1.24655 0.0097,-0.65359 0.06325,-1.35901 0.196777,-2.14612 0,0 0.383016,-1.84655 0.954021,-2.77158 0.571005,-0.92505 0.640409,-2.55198 0.437476,-4.22282 -0.171302,-1.43632 -0.350512,-3.73352 -0.11244,-6.29515 -3.080805,0.13089 -6.111548,-0.28287 -8.838912,-0.91975 z"
   style="stroke-width:0.732061" />
  <path
   id="front_right_anterior_lateral_upper_thigh"
   d="m 80.293267,177.38823 c -1.329132,4.79911 -2.473785,12.90551 -2.4079,20.18294 0.06767,7.7335 -0.870568,26.00649 -0.859143,34.3139 0.0088,6.91447 0.712438,19.66463 1.0243,26.25612 3.722969,7.2e-4 8.117095,0.20117 12.11269,0.90658 l 6.262638,-68.41186 C 91.921034,184.92318 84.477879,179.93463 80.294143,177.38853 Z"
   style="stroke-width:0.732061" />
  <path
   id="front_right_anterior_lateral_knee"
   d="m 78.177605,261.27514 c 0.132652,4.35634 -2.175099,8.88136 -2.544058,13.11927 -0.370714,4.23073 -1.020788,9.71445 -2.535274,12.93625 -0.02816,0.0607 -0.05973,0.12914 -0.09049,0.19591 3.147573,1.50043 6.64565,2.95518 10.013141,3.91359 l 7.137595,-32.39371 c -3.994417,-0.70454 -8.388691,-0.90572 -12.111226,-0.90659 0.06236,1.32475 0.108925,2.40615 0.131769,3.13528 z"
   style="stroke-width:0.732061" />
  <path
   id="front_right_lateral_ankle"
   d="m 75.776446,350.41824 c -2.551085,-0.59649 -4.838634,-1.38623 -6.64741,-2.11449 0.456805,6.10452 0.236308,12.13099 -2.000284,14.80961 -0.159005,0.18976 -0.310102,0.36895 -0.462957,0.54992 1.423127,0.53938 3.009652,0.99619 4.674357,1.38272 l 2.077593,0.4814 2.359577,-15.109 z"
   style="stroke-width:0.732061" />
  <path
   id="front_right_top_of_foot"
   d="m 83.140988,367.12388 c -7.37e-4,-0.11509 -0.005,-0.22577 -0.0033,-0.34437 -3.071145,-0.25563 -6.550777,-0.665 -9.852813,-1.31244 -2.37188,-0.4647 -4.653276,-1.0524 -6.622814,-1.79911 -3.360161,3.98564 -5.368352,5.95518 -7.576103,6.88637 -2.309507,0.97421 -5.273476,1.51799 -6.742284,2.42985 -1.468807,0.91186 -2.219024,1.57072 -3.286369,2.13908 -1.06471,0.57013 -2.069684,2.31828 -0.770421,3.22049 0,0 -0.783599,0.9593 -0.381259,1.43718 0.404099,0.47788 0.839822,0.7546 1.401167,0.71507 0,0 -0.918006,0.93382 -0.424304,1.70073 0.491068,0.76428 1.344943,0.63689 1.703361,0.56048 0,0 -1.301898,1.14464 -0.550804,2.02135 0.751096,0.8776 1.996771,0.88287 3.442738,0.51567 0,0 -0.08521,0.22489 -0.08785,0.53235 -0.0026,0.42693 0.156368,1.01289 0.939089,1.38272 1.344064,0.63777 3.048305,1.20089 5.928818,-0.29253 0.419909,-0.21698 0.760758,-0.36985 1.056804,-0.48492 1.629568,-7.10333 18.005784,-17.06728 21.826413,-19.30738 z"
   style="stroke-width:0.732061" />
  <path
   id="front_right_medial_foot"
   d="m 65.57151,385.76949 c 2.993838,-0.92592 3.330294,-2.50453 5.146977,-3.83279 1.817562,-1.33089 3.925017,-2.74611 6.380355,-2.94552 2.454458,-0.1959 5.502761,-0.22753 6.525302,-3.80554 0.832793,-2.91742 -0.444506,-4.75431 -0.48404,-8.06147 -3.819607,2.24011 -20.19684,12.20493 -21.826409,19.3074 1.732351,-0.67379 1.702482,0.12825 4.25884,-0.66151 z"
   style="stroke-width:0.732061" />
  <path
   id="front_right_anterior_medial_lower_leg"
   d="m 95.593351,292.27793 c -0.552559,0.044 -1.114784,0.0799 -1.681402,0.10803 0.462962,-0.0167 0.928545,-0.037 1.401171,-0.0614 -1.727083,4.49162 -15.807407,27.89959 -15.807407,27.89959 0,0 -0.0033,-0.0193 -0.0082,-0.0484 l -3.61316,29.46035 -0.111573,0.78097 c 2.728542,0.63688 5.758402,1.05065 8.840378,0.91888 0.03863,-0.41641 0.08609,-0.83896 0.148463,-1.26677 0.4489,-3.06148 0.618443,-13.05851 3.141419,-19.79127 2.52386,-6.73702 5.339362,-14.37623 5.149606,-20.61412 -0.189745,-6.23805 1.390632,-12.31253 2.289308,-16.38939 0.07118,-0.32239 0.159,-0.6571 0.252124,-0.99531 z"
   style="stroke-width:0.732061" />
  <path
   id="front_right_anterior_lateral_lower_leg"
   d="m 79.502635,320.17679 c -0.217858,-1.25006 -5.03014,-28.80222 -6.271423,-32.5511 0.0369,0.0176 0.0712,0.0324 0.107177,0.0501 -0.107177,-0.0501 -0.216983,-0.10011 -0.323277,-0.1511 -1.587405,3.44712 -5.800565,14.21663 -6.549903,21.04896 -0.763393,6.96454 0.05271,20.94792 1.329131,28.93692 0.492824,3.08607 1.048019,6.95486 1.33528,10.7935 1.808777,0.72827 4.09632,1.51801 6.648289,2.1145 l 0.111565,-0.78098 3.61316,-29.46033 z"
   style="stroke-width:0.732061" />
  <path
   id="front_right_patellar_tendon"
   d="m 93.916921,292.38774 c -3.650048,0.18272 -7.525583,0.01 -10.890141,-0.94962 -1.871146,-0.53236 -3.780948,-1.22109 -5.649464,-1.98272 -0.926786,-0.37336 -1.894867,-0.78975 -2.910386,-1.25621 -0.381256,-0.17307 -0.756359,-0.34788 -1.127959,-0.52358 -0.03691,-0.0167 -0.0712,-0.0324 -0.108056,-0.0501 1.241283,3.74932 6.05444,31.30073 6.272307,32.55111 0.005,0.0289 0.0082,0.0491 0.0082,0.0491 0,0 14.080472,-23.40839 15.807404,-27.89959 -0.472617,0.0247 -0.938208,0.0448 -1.401162,0.0615 z"
   style="stroke-width:0.732061" />
  <path
   id="front_left_anterior_medial_upper_thigh"
   d="m 132.43067,197.63704 c 0.62459,-1.97831 1.79121,-3.93819 3.27495,-5.82075 l 6.26264,68.41186 c -4.52063,0.79765 -9.1676,3.14141 -12.76056,5.3455 -1.69721,-7.74813 -3.59121,-16.24225 -4.20175,-19.6207 -1.74816,-9.66028 -5.79,-21.01381 -6.58942,-23.05994 l -2.54933,-6.49015 v -3.86705 c 7.30714,-0.77833 13.42014,-4.94755 16.56362,-14.8989 z"
   style="stroke-width:0.732061" />
  <path
   id="front_left_anterior_medial_knee"
   d="m 149.10702,292.622 c -3.88636,1.10688 -8.45604,1.16925 -12.57168,0.84157 -1.08756,-3.92852 -3.55958,-8.84988 -4.44683,-14.10022 -0.4164,-2.45973 -1.59179,-7.91065 -2.87964,-13.78911 3.59296,-2.20409 8.24009,-4.54786 12.76057,-5.34551 l 7.13758,32.39373 z"
   style="stroke-width:0.732061" />
  <path
   id="front_left_medial_ankle"
   d="m 156.35443,351.60418 2.21464,15.10169 c 0,0 -5.89544,0.94699 -9.57902,1.25446 -0.01,-0.65358 -0.0633,-1.359 -0.19679,-2.14611 0,0 -0.38301,-1.84655 -0.95402,-2.77158 -0.57189,-0.92504 -0.64129,-2.55197 -0.43748,-4.22283 0.17218,-1.4363 0.35228,-3.73351 0.11332,-6.29513 3.08169,0.13088 6.11066,-0.28288 8.84038,-0.91977 z"
   style="stroke-width:0.732061" />
  <path
   id="front_left_anterior_lateral_upper_thigh"
   d="m 151.83762,178.57417 c 1.32913,4.79911 2.47377,12.90477 2.40876,20.1822 -0.0676,7.73349 0.87058,26.00647 0.85915,34.31391 -0.009,6.91447 -0.71243,19.66536 -1.0243,26.25684 -3.7221,7.3e-4 -8.11709,0.20117 -12.11122,0.90659 l -6.26263,-68.41186 c 4.5048,-5.71184 11.94797,-10.70054 16.1317,-13.24666 z"
   style="stroke-width:0.732061" />
  <path
   id="front_left_anterior_lateral_knee"
   d="m 153.94596,262.46108 c -0.13266,4.35634 2.17509,8.88136 2.54492,13.11927 0.36985,4.23073 1.0208,9.71445 2.53527,12.93625 0.0281,0.0607 0.0597,0.12914 0.0904,0.19591 -3.14669,1.50042 -6.64564,2.95518 -10.01166,3.91359 l -7.13761,-32.39372 c 3.99443,-0.70453 8.3887,-0.90571 12.11123,-0.90658 -0.0623,1.32474 -0.1089,2.40615 -0.13176,3.13528 z"
   style="stroke-width:0.732061" />
  <path
   id="front_left_lateral_ankle"
   d="m 156.35443,351.60418 c 2.5511,-0.59649 4.83863,-1.38624 6.6483,-2.11449 -0.45681,6.10453 -0.23631,12.13099 2.00115,14.8096 0.15812,0.18976 0.3101,0.36896 0.46207,0.54993 -1.42311,0.53937 -3.00965,0.99619 -4.67435,1.38271 l -2.05298,0.47438 -2.3833,-15.10168 z"
   style="stroke-width:0.732061" />
  <path
   id="front_left_top_of_foot"
   d="m 183.06734,376.30392 c -1.06645,-0.56836 -1.81755,-1.22722 -3.28636,-2.13908 -1.46794,-0.91273 -4.43279,-1.4565 -6.74229,-2.42986 -2.2076,-0.93117 -4.21578,-2.90071 -7.57611,-6.88634 -1.95986,0.7423 -4.22721,1.32737 -6.58591,1.7912 -3.31359,0.65182 -6.80728,1.06295 -9.89015,1.32035 0,0 18.58705,10.96261 21.14926,19.01529 0.0491,0.15373 0.0825,0.30131 0.12124,0.45066 0.39705,0.10625 0.89691,0.30394 1.60848,0.67114 2.8814,1.49253 4.58474,0.93031 5.92882,0.29254 1.20965,-0.57189 0.93556,-1.65768 0.86705,-1.87466 -0.009,-0.0246 -0.0141,-0.0413 -0.0141,-0.0413 1.44597,0.36721 2.69077,0.36281 3.44274,-0.51479 0.75199,-0.87759 -0.55079,-2.02225 -0.55079,-2.02225 0.35929,0.0774 1.21316,0.2047 1.70336,-0.55957 0.4937,-0.76779 -0.42431,-1.70073 -0.42431,-1.70073 0.56136,0.0395 0.99707,-0.23719 1.40205,-0.71509 0.40234,-0.47788 -0.38126,-1.43718 -0.38126,-1.43718 1.29926,-0.90131 0.29342,-2.65035 -0.77043,-3.22048 z"
   style="stroke-width:0.732061" />
  <path
   id="front_left_medial_foot"
   d="m 148.98989,367.95842 c 0.0517,3.53148 -1.34933,5.38769 -0.48843,8.40628 1.02343,3.57801 4.07085,3.60964 6.5253,3.80554 2.45446,0.19853 4.56279,1.61463 6.38037,2.94551 1.81668,1.32914 2.15312,2.90687 5.1461,3.83367 2.25503,0.69662 2.49397,0.15198 3.70627,0.47525 -0.0386,-0.14932 -0.072,-0.29692 -0.12036,-0.45065 -2.56251,-8.05195 -21.14998,-19.01529 -21.14998,-19.01529 z"
   style="stroke-width:0.732061" />
  <path
   id="front_left_anterior_medial_lower_leg"
   d="m 152.60629,321.16508 c -1.63924,-2.73382 -14.01313,-23.40619 -15.62658,-27.59872 2.55194,0.13266 4.92735,0.17394 7.44798,-0.094 -2.62488,0.25124 -5.34639,0.20028 -7.89235,-0.003 0.0931,0.33821 0.18096,0.67202 0.25124,0.9953 0.89867,4.07699 2.47905,10.15077 2.28931,16.38939 -0.18976,6.23804 2.62663,13.8784 5.1496,20.6141 2.52386,6.73176 2.6934,16.72907 3.14229,19.79127 0.0624,0.4287 0.10979,0.85037 0.14849,1.26767 3.08167,0.13087 6.11064,-0.28289 8.84035,-0.91977 l -0.11155,-0.78097 -3.63777,-29.66093 z"
   style="stroke-width:0.732061" />
  <path
   id="front_left_anterior_lateral_lower_leg"
   d="m 165.66625,309.75957 c -0.74933,-6.83278 -4.96162,-17.6017 -6.54989,-21.04898 -2.93235,14.67198 -6.33116,32.75316 -6.33116,32.75316 0,0 -0.0642,-0.10625 -0.18097,-0.30043 l 3.63776,29.66093 0.11156,0.78095 c 2.55198,-0.59646 4.83951,-1.38711 6.64829,-2.11448 0.28814,-3.83806 0.84334,-7.70715 1.33528,-10.79279 1.27729,-7.98897 2.09252,-21.97208 1.33001,-28.9369 z"
   style="stroke-width:0.732061" />
  <path
   id="front_left_anterior_shoulder"
   d="m 153.57259,91.041606 c 4.82635,1.896627 11.99483,1.771 17.6383,1.240402 -0.30044,-3.073784 -0.564,-6.2969 -1.17803,-9.415771 -1.31157,-6.664091 -5.04332,-11.9875 -8.6237,-15.31106 -3.57978,-3.324142 -10.64343,-2.443917 -12.41649,-2.981541 -0.19502,-0.05895 -0.43748,-0.128266 -0.70717,-0.202933 -4.77626,2.768069 -10.47653,4.570696 -16.4194,5.680212 4.17099,6.816066 11.79789,17.095832 21.70783,20.989668 z"
   style="stroke-width:0.732061" />
  <path
   id="front_left_anterior_medial_upper_arm"
   d="m 168.74091,119.04295 -6.38738,-26.463288 c -3.1133,-0.12387 -6.13789,-0.54465 -8.58636,-1.469693 l -0.72561,12.119281 c 0.84421,3.34611 2.83923,11.6515 6.1458,18.91281 l 10.00729,-2.22429 -0.4533,-0.87496 z"
   style="stroke-width:0.732061" />
  <path
   id="front_left_anterior_medial_wrist"
   d="m 188.98241,172.33701 c 2.91126,3.32063 5.47112,6.34698 6.02544,6.92676 1.11216,1.16662 1.80615,3.08959 2.22166,4.99763 0.0465,0.21173 0.0904,0.4533 0.13528,0.71245 l 7.22195,-4.97127 -7.29135,-12.09658 -8.31182,4.43101 z"
   style="stroke-width:0.732061" />
  <path
   id="front_left_anterior_medial_elbow"
   d="m 169.19479,119.91409 -10.00728,2.2243 c 0.99532,2.18564 2.15841,4.50042 3.52444,6.91711 1.83952,3.25473 0.99355,2.57656 1.88343,6.72031 0.15023,0.70103 0.33472,1.45213 0.54731,2.23221 l 11.10244,-4.50043 -7.04888,-13.59364 z"
   style="stroke-width:0.732061" />
  <path
   id="front_left_anterior_medial_forearm"
   d="m 197.29129,167.90803 -20.86374,-34.04084 -0.18449,-0.35491 -11.10097,4.50043 c 1.04362,3.83717 2.80497,8.47215 4.99237,12.2774 2.63366,4.58036 6.77566,9.84402 10.66028,13.30814 1.95285,1.74113 5.24887,5.39294 8.18664,8.74447 l 8.31329,-4.43102 -0.002,-0.003 z"
   style="stroke-width:0.732061" />
  <path
   id="front_left_anterior_lateral_upper_arm"
   d="m 169.19479,119.91409 10.07462,-2.23834 c -0.68169,-5.31389 -4.68314,-11.46334 -6.31535,-15.87547 -1.00849,-2.726787 -1.39852,-6.027221 -1.74114,-9.521925 -2.7417,0.257384 -5.84183,0.417267 -8.85866,0.297794 l 6.38739,26.463291 0.45329,0.87496 z"
   style="stroke-width:0.732061" />
  <path
   id="front_left_anterior_lateral_wrist"
   d="m 203.19904,164.76016 -5.90336,3.14759 7.29133,12.0973 6.5174,-4.48635 c -2.15752,-2.28403 -5.12324,-6.65444 -7.90553,-10.75764 z"
   style="stroke-width:0.732061" />
  <path
   id="front_left_anterior_lateral_elbow"
   d="m 176.24454,133.50848 9.95676,-4.03658 c -2.41316,-2.98858 -4.62691,-5.29807 -5.38592,-6.13351 -1.49076,-1.64186 -1.48022,-5.14872 -1.48022,-5.14872 -0.0151,-0.16956 -0.044,-0.34261 -0.0651,-0.51305 l -10.07316,2.23836 7.04887,13.59366 z"
   style="stroke-width:0.732061" />
  <path
   id="front_left_anterior_lateral_forearm"
   d="m 176.42755,133.86719 20.86374,34.04084 0.002,0.003 5.90335,-3.14669 c -0.48229,-0.71069 -0.95842,-1.41346 -1.42488,-2.09515 -4.15167,-6.08168 -5.94201,-16.35133 -9.15223,-23.35495 -1.57599,-3.43836 -4.09106,-6.954 -6.41989,-9.83817 l -9.95677,4.03657 0.18449,0.35491 z"
   style="stroke-width:0.732061" />
  <path
   id="front_left_anterior_2nd_-_4th_digits"
   d="m 226.32486,198.53748 -21.68878,-18.55629 6.58855,21.13901 6.91445,15.36523 c 0.41376,0.10011 0.84861,0.0491 1.32738,-0.16955 1.47145,-0.6773 -0.23016,-4.33176 -0.23016,-4.33176 -0.4735,-1.07787 -1.38272,-3.02985 -2.68549,-5.25414 -0.94172,-1.60672 -1.37657,-4.00759 -1.54699,-5.2234 -0.0658,-0.46823 -0.0931,-0.76604 -0.0931,-0.76604 0.53499,0.6536 2.74523,5.58447 3.77216,7.03921 1.0243,1.453 2.50803,4.67084 3.88286,6.13087 1.37393,1.46004 2.32883,0.6044 2.32883,0.6044 1.9748,-1.72532 -2.14435,-8.7723 -3.35841,-10.87478 -1.21229,-2.10306 -1.17364,-4.57157 -1.17364,-4.57157 1.50922,1.43542 3.43571,5.18737 4.83774,7.18855 1.40206,1.99941 2.55461,4.52677 4.44861,3.49895 1.89486,-1.02606 -0.0395,-5.1865 -0.84948,-6.61139 -0.74759,-1.30805 -1.51713,-2.73381 -2.47291,-4.60671 z"
   style="stroke-width:0.732061" />
  <path
   id="front_left_anterior_thumb"
   d="m 226.32486,198.53748 c -0.0843,-0.16604 -0.16868,-0.3303 -0.25652,-0.50424 -1.07877,-2.12678 -1.93791,-4.56806 -3.24772,-6.44975 -1.31156,-1.88169 -1.88432,-3.89515 -1.88432,-3.89515 2.47289,2.55723 5.93585,3.29779 8.10098,3.38475 2.16369,0.0861 2.72064,-2.3095 0.90131,-3.44449 -1.06909,-0.66675 -2.7505,-2.1672 -3.76776,-2.80321 -1.01641,-0.63426 -3.37686,-2.18916 -5.42633,-3.93644 -2.0486,-1.74728 -5.43073,-3.18534 -7.62443,-3.81258 -0.52709,-0.15109 -1.21756,-0.71332 -2.01786,-1.56105 l -6.46554,4.45124 -7.4e-4,0.015 21.68878,18.55629 z"
   style="stroke-width:0.732061" />
  <path
   id="front_left_anterior_5th_digit"
   d="m 204.63389,179.98705 -0.011,-0.009 -0.57276,0.39444 -6.69047,4.60495 c 0.35842,2.08288 0.69489,5.52912 1.39416,7.34991 0.78886,2.04243 1.53118,4.23159 2.501,5.76366 0.97161,1.53292 2.68286,4.09193 3.75022,6.15457 1.06471,2.06179 2.95078,5.77948 4.35194,7.77963 1.40468,2.00291 1.78858,1.45298 1.78858,1.45298 1.40643,-0.66236 1.45564,-2.05299 0.20469,-4.61285 -0.80293,-1.64627 -2.906,-6.67728 -2.906,-6.67728 0,0 0.96544,1.12355 1.36779,1.80439 0.39883,0.6773 1.82987,3.22047 2.7953,4.34403 0.9672,1.12358 1.75782,3.57628 3.03951,5.66968 0.86354,1.41083 1.62958,2.27613 2.4896,2.48345 l -6.91447,-15.36524 -6.58853,-21.13754 z"
   style="stroke-width:0.732061" />
  <path
   id="front_right_anterior_medial_upper_arm"
   d="m 62.077381,120.14105 6.706267,-26.842501 c 3.11331,-0.12387 6.457661,-0.42078 8.906993,-1.34495 l 0.513028,10.764961 c -0.844217,3.34522 -3.265285,13.2613 -6.571863,20.52262 l -10.007276,-2.22432 0.45329,-0.87494 z"
   style="stroke-width:0.732061" />
  <path
   id="front_right_anterior_medial_wrist"
   d="m 41.838083,173.4351 c -2.911261,3.32062 -5.470254,6.34698 -6.02545,6.92676 -1.112148,1.16662 -1.806141,3.08959 -2.22166,4.99764 -0.04568,0.21171 -0.09049,0.45328 -0.135285,0.71245 l -7.221931,-4.97129 7.29133,-12.09658 8.313288,4.43102 z"
   style="stroke-width:0.732061" />
  <path
   id="front_right_anterior_medial_elbow"
   d="m 61.624236,121.01219 10.008742,2.2243 c -0.995311,2.18563 -2.158411,4.50041 -3.524436,6.9171 -1.839523,3.25475 -0.993553,2.57656 -1.883446,6.72032 -0.150221,0.70102 -0.3347,1.45211 -0.547291,2.23221 L 54.576828,134.6057 61.6257,121.01205 Z"
   style="stroke-width:0.732061" />
  <path
   id="front_right_anterior_medial_forearm"
   d="m 33.526991,169.00613 20.863747,-34.04085 0.184479,-0.3549 11.102442,4.50042 c -1.043626,3.83717 -2.804965,8.47214 -4.992366,12.2774 -2.632785,4.58035 -6.774787,9.84403 -10.660276,13.30814 -1.952847,1.74114 -5.24888,5.39294 -8.186642,8.74448 l -8.311822,-4.43102 0.0016,-0.003 z"
   style="stroke-width:0.732061" />
  <path
   id="front_right_anterior_lateral_upper_arm"
   d="m 61.624236,121.01219 -10.073164,-2.23835 c 0.681695,-5.31388 4.683143,-11.46335 6.315346,-15.87548 1.008489,-2.72678 1.734108,-6.62105 2.076712,-10.115625 2.741716,0.257395 5.76103,0.504241 8.77888,0.384778 L 62.078991,120.1381 61.6257,121.01307 Z"
   style="stroke-width:0.732061" />
  <path
   id="front_right_anterior_lateral_wrist"
   d="m 27.622916,165.85827 5.903342,3.14758 -7.291329,12.09731 -6.517396,-4.48638 c 2.157531,-2.28403 5.123258,-6.65443 7.905531,-10.75763 z"
   style="stroke-width:0.732061" />
  <path
   id="front_right_anterior_lateral_elbow"
   d="m 54.575217,134.60657 -9.956764,-4.03659 c 2.414043,-2.98857 4.627798,-5.29807 5.38592,-6.13349 1.491648,-1.64187 1.480228,-5.14874 1.480228,-5.14874 0.01493,-0.16955 0.04392,-0.34261 0.06501,-0.51303 l 10.074628,2.23835 -7.048873,13.59365 z"
   style="stroke-width:0.732061" />
  <path
   id="front_right_anterior_lateral_forearm"
   d="m 54.390738,134.96528 -20.863747,34.04085 -0.0016,0.003 -5.903343,-3.14668 c 0.482283,-0.71068 0.958415,-1.41347 1.424883,-2.09518 4.151667,-6.08166 5.941997,-16.35131 9.152231,-23.35494 1.575983,-3.43834 4.091052,-6.95399 6.419886,-9.83818 l 9.956765,4.03659 -0.18448,0.35492 z"
   style="stroke-width:0.732061" />
  <path
   id="front_right_anterior_shoulder"
   d="m 78.631488,91.590653 c 9.833048,-3.862649 17.418668,-14.013115 21.609722,-20.829342 -3.979489,-0.47965 -7.13584,-1.104236 -8.981665,-1.681387 -3.04655,-0.952284 -6.752829,-2.828705 -10.295714,-4.873781 -2.766317,0.176575 -8.091474,0.05528 -11.04827,2.80058 -3.581535,3.323258 -7.312413,8.647109 -8.623682,15.311049 -0.679937,3.459435 -0.930304,7.04623 -1.279057,10.415771 5.770693,0.607021 13.507264,0.8653 18.619247,-1.14289 z"
   style="stroke-width:0.732061" />
  <path
   id="front_right_anterior_2nd_-_4th_digits"
   d="m 25.830099,180.8216 -0.144071,-0.0984 -19.8593573,16.10827 c -0.350512,0.78007 -0.700144,1.56017 -1.075252,2.30073 -1.078765,2.12941 -1.915072,3.68606 -2.729417,5.11096 -0.809953,1.42399 -2.744352,5.58533 -0.849485,6.61138 1.893989,1.02782 3.046546,-1.49868 4.448591,-3.49808 1.4020431,-2.00116 3.328536,-5.75314 4.8377533,-7.18856 0,0 0.03865,2.46853 -1.1736411,4.57159 -1.21405,2.10219 -5.3332122,9.14857 -3.3584032,10.87477 0,0 0.9540214,0.85562 2.3279535,-0.60351 1.3748112,-1.46002 2.8585528,-4.677 3.8828538,-6.13087 1.026936,-1.45475 3.238053,-6.38563 3.772165,-7.03921 0,0 -0.05008,0.56047 -0.186235,1.37305 -0.216106,1.29928 -0.651828,3.24773 -1.453875,4.61637 -1.301897,2.2243 -2.211117,4.17627 -2.685493,5.25417 0,0 -1.7016043,3.65532 -0.230161,4.33175 0.105421,0.0484 0.20732,0.0861 0.309223,0.11858 2.540545,-5.50715 7.672735,-16.41281 7.672735,-16.41281 l 6.495434,-20.29785 z"
   style="stroke-width:0.732061" />
  <path
   id="front_right_anterior_thumb"
   d="m 35.428329,192.54427 c -0.742662,0.78588 -1.383421,1.30843 -1.872549,1.44865 -2.035591,0.58207 -5.173352,1.91657 -7.075384,3.53885 -1.901896,1.62145 -4.091562,3.06356 -5.034765,3.65297 -0.944834,0.59021 -2.505155,1.98259 -3.49727,2.60135 -1.687495,1.05326 -1.170649,3.27635 0.836409,3.19646 2.009505,-0.0799 5.22308,-0.76712 7.518996,-3.14021 0,0 -0.531519,1.86766 -1.74945,3.61466 -0.792388,1.13804 -1.40706,2.49619 -2.015211,3.85025 l 18.429285,-14.94832 -5.540197,-3.81274 z"
   style="stroke-width:0.679345" />
  <path
   id="front_right_anterior_5th_digit"
   d="m 15.169822,215.10403 c 1.281692,-2.09341 2.07144,-4.54698 3.038639,-5.66967 0.965444,-1.12357 2.396477,-3.66674 2.796183,-4.34405 0.401462,-0.67993 1.366903,-1.80351 1.366903,-1.80351 0,0 -2.103066,5.03102 -2.90599,6.67728 -1.250067,2.55988 -1.200873,3.9505 0.204685,4.61286 0,0 0.383892,0.54993 1.788572,-1.45211 1.402044,-2.00028 3.287248,-5.71799 4.352837,-7.78035 1.066467,-2.06266 2.778612,-4.62165 3.750204,-6.15458 0.969834,-1.53206 1.712144,-3.72121 2.501012,-5.76367 0.699266,-1.82108 1.035723,-5.26732 1.39414,-7.34989 l -7.051509,-4.85444 -0.574522,-0.3962 -6.495432,20.29786 c 0,0 -5.132042,10.90552 -7.672736,16.41282 1.316833,0.41991 2.32005,-0.49107 3.508625,-2.43249 z"
   style="stroke-width:0.732061" />
  <path
   id="front_left_patellar_tendon"
   d="m 137.00604,293.52244 15.70711,27.84908 6.42076,-32.65215 c 0,0 -9.93406,5.70306 -22.12801,4.80263 z"
   style="stroke-width:0.732061" />
  <path
   id="back_left_posterior_lateral_knee"
   d="m 324.73585,294.56197 8.23569,-29.64848 c -4.80701,-0.75902 -9.26058,-0.9347 -12.67051,-0.90395 -0.49371,3.61227 -2.09955,7.28342 -2.40351,10.76056 -0.36983,4.23073 -1.02079,9.71519 -2.53527,12.937 -0.34613,0.73703 -0.84247,1.88782 -1.41083,3.30393 2.95255,1.4767 6.7379,2.76192 10.76276,3.72648 l 0.0203,-0.17481 z m -0.0203,0.17482"
   style="stroke-width:0.732061"><title
     id="title3133">Left Posterior Lateral Knee</title></path>
  <path
   id="back_left_posterior_medial_knee"
   d="m 324.73585,294.56197 -0.0203,0.17482 c 4.03746,0.96808 8.3162,1.61373 12.24006,1.80351 0.23192,-1.04013 0.45593,-2.0126 0.6492,-2.88668 0.89779,-4.07524 3.73439,-9.39381 4.69983,-15.09583 0.33208,-1.96251 1.14641,-5.82603 2.11624,-10.29279 -2.97715,-1.28784 -6.89952,-2.63279 -11.44943,-3.35138 l -8.2357,29.64849 z"
   style="stroke-width:0.732061"><title
     id="title3135">Left Posterior Medial Knee</title></path>
  <path
   id="back_left_posterior_medial_upper_thigh"
   d="m 338.17649,220.51396 -5.2067,44.39659 c 4.5496,0.71859 8.4714,2.06354 11.44943,3.35226 1.84831,-8.51388 4.25972,-19.21954 4.966,-23.11777 1.7473,-9.66028 5.78915,-21.01381 6.58857,-23.05992 l 1.58478,-3.78096 c -7.92824,2.40439 -14.29645,2.85241 -19.38061,2.21024 z"
   style="stroke-width:0.732061" />
  <path
   id="back_left_posterior_lateral_upper_thigh"
   d="m 319.94085,208.69117 c -0.0712,2.28053 -0.15286,4.67788 -0.23456,7.07083 -0.21434,6.28285 -0.42606,12.52851 -0.42079,16.49846 0.0114,8.30451 1.02254,25.0336 1.15609,29.39082 0.0237,0.78183 -0.0324,1.56894 -0.14145,2.35781 3.40936,-0.0307 7.86309,0.14494 12.67052,0.90396 l 5.2076,-44.39514 c -12.72031,-1.60584 -17.38794,-10.0468 -18.2364,-11.82571 z"
   style="stroke-width:0.732061" />
  <path
   id="back_left_sole_of_foot"
   d="m 326.03891,371.26734 c 0.0597,-1.26148 -0.0781,-2.02224 -0.25211,-2.68022 -1.72533,-2.66089 -4.54698,-6.4436 -6.68168,-6.49367 -4.57421,-0.10625 -6.92149,3.90658 -7.7452,5.71799 0.35491,1.10511 0.63779,4.03306 -1.03836,11.57754 -0.93996,4.22984 -2.47992,9.2291 -3.34347,11.91722 0.0403,-0.0229 0.0781,-0.0396 0.12036,-0.0668 -0.0684,1.37305 0.61493,2.69954 1.9221,1.02956 0.20556,1.99062 2.33059,2.76808 2.94815,0.15989 -0.68873,3.17919 1.78418,3.70627 2.64509,1.73059 0.0448,-0.10183 0.15022,-0.56135 0.23894,-0.96104 0.0562,-0.37863 0.13616,-0.63163 0.13616,-0.63163 0,0 -0.0614,0.29517 -0.13616,0.63163 -0.1634,1.09808 -0.12212,3.26352 2.67847,3.46382 1.92209,0.13702 3.29427,-2.53968 2.47114,-6.24507 0.20556,-1.29487 1.43894,-1.69283 1.9221,-3.77482 0.28726,-1.23775 -0.26092,-2.71272 0.0684,-3.98036 1.32826,-5.11622 3.91184,-8.50947 4.04889,-11.39306 z"
   style="stroke-width:0.732061" />
  <path
   id="back_left_lateral_foot"
   d="m 311.36108,367.81201 c -0.15372,0.33734 -0.25474,0.59912 -0.30746,0.7432 -0.003,0.2811 -0.0167,0.55606 -0.0448,0.81435 -0.20556,1.85269 -1.85006,4.71299 -3.4972,7.45823 -1.64714,2.74523 -2.54229,4.48372 -1.58125,10.79717 -1.0735,2.54934 -0.70014,4.69544 1.04889,3.68168 0.86355,-2.68812 2.40352,-7.68737 3.34348,-11.91722 1.67701,-7.54463 1.39326,-10.47213 1.03923,-11.57754 z"
   style="stroke-width:0.732061" />
  <path
   id="back_left_posterior_medial_lower_leg"
   d="m 336.95395,296.53853 c -3.92326,-0.19063 -8.20201,-0.83543 -12.2386,-1.80351 l -5.02135,43.61987 0.28198,-0.96807 1.40557,8.24959 c 0.69662,0.0203 1.38623,0.0387 2.06089,0.0563 0.059,7.3e-4 0.11508,0.003 0.17395,0.003 0.29339,0.009 0.58505,0.015 0.87144,0.0211 0.18623,0.003 0.3672,0.009 0.54992,0.0114 0.15725,0.003 0.31801,0.008 0.47174,0.01 0.2407,0.003 0.47438,0.009 0.70805,0.0122 0.0948,0.002 0.19327,0.003 0.28726,0.004 0.32418,0.003 0.63954,0.009 0.94612,0.0123 0.36632,-4.39413 0.99179,-10.51387 2.71537,-15.11121 2.52384,-6.73703 5.33936,-14.37623 5.1496,-20.61412 -0.14845,-4.89926 0.79326,-9.69323 1.64012,-13.50214 z"
   style="stroke-width:0.732061" />
  <path
   id="back_left_posterior_lateral_lower_leg"
   d="M 319.69195,338.35388 324.7133,294.734 c -4.02517,-0.96455 -7.81036,-2.25065 -10.76276,-3.72649 -1.91244,4.76836 -4.64098,12.57023 -5.22955,17.9399 -0.7634,6.96454 0.0527,20.94793 1.32912,28.93692 0.34612,2.16807 0.72299,4.72179 1.0164,7.37917 1.86763,0.0774 4.1587,0.16779 6.54111,0.24949 l 2.0855,-7.16045 z"
   style="stroke-width:0.732061" />
  <path
   id="back_left_lateral_ankle"
   d="m 311.06827,345.26454 c 0.68345,6.18708 2.85064,9.90551 1.17627,13.66977 0,0 -1.37216,2.47114 -1.5101,4.94141 -0.0448,0.80204 0.26706,2.55899 0.31274,4.17188 l 6.56132,-22.53358 c -2.38155,-0.0825 -4.67348,-0.17219 -6.54111,-0.24948 z"
   style="stroke-width:0.732061" />
  <path
   id="back_left_medial_ankle"
   d="m 326.21462,345.74768 c -0.23367,-0.003 -0.46736,-0.009 -0.70805,-0.0114 -0.15461,-0.003 -0.3145,-0.008 -0.47174,-0.01 -0.18273,-0.003 -0.36369,-0.009 -0.54992,-0.0114 -0.28639,-0.005 -0.57805,-0.0131 -0.87146,-0.0211 -0.0579,-7.3e-4 -0.11507,-0.003 -0.17306,-0.003 -0.67379,-0.0167 -1.36427,-0.036 -2.0609,-0.0562 l 3.7388,21.94793 c 0.2363,0.34436 0.46031,0.68169 0.66851,1.00234 -0.19327,-0.72738 -0.43221,-1.32737 -0.50249,-2.32972 -0.16252,-2.33586 0.26618,-3.20378 0.26618,-3.20378 0,0 0.95489,-1.26852 1.10335,-1.50922 0.57101,-0.92504 0.53413,-1.86412 0.33031,-3.53499 -0.19941,-1.66997 -0.41375,-4.50129 0.036,-7.56291 0.14231,-0.97072 0.2574,-2.63983 0.42694,-4.67964 -0.3066,-0.003 -0.62196,-0.008 -0.94611,-0.0123 -0.0931,-7.4e-4 -0.19239,-0.003 -0.28727,-0.004 z"
   style="stroke-width:0.732061" />
  <path
   id="back_left_achilles_tendon"
   d="m 321.383,345.63789 -1.40554,-8.24961 -0.282,0.96808 -2.0855,7.16043 -6.56131,22.53359 c 0.003,0.16953 0.009,0.33908 0.008,0.50425 0.33469,-0.91537 2.62662,-6.58593 8.05267,-6.46031 1.87817,0.044 4.28607,2.9754 6.01315,5.49134 l -3.73879,-21.94793 z"
   style="stroke-width:0.732061" />
  <path
   id="back_right_sole_of_foot"
   d="m 389.88199,371.99941 c -0.0597,-1.26148 0.0781,-2.02225 0.25299,-2.68023 1.72533,-2.6609 4.54698,-6.44359 6.68168,-6.49367 4.57421,-0.10625 6.92149,3.90658 7.74666,5.718 -0.35489,1.1051 -0.63777,4.03305 1.03924,11.57754 0.93996,4.22984 2.47994,9.22909 3.34347,11.91722 -0.0403,-0.0229 -0.0781,-0.0395 -0.12036,-0.0668 0.0684,1.37306 -0.61492,2.69956 -1.92121,1.02957 -0.20555,1.99063 -2.3306,2.76808 -2.94816,0.1599 0.68873,3.17919 -1.78418,3.70627 -2.64508,1.73059 -0.0448,-0.10184 -0.15022,-0.56136 -0.23895,-0.96106 -0.0562,-0.37861 -0.13615,-0.63163 -0.13615,-0.63163 0,0 0.0614,0.29518 0.13615,0.63163 0.1634,1.0981 0.12211,3.26354 -2.67847,3.46382 -1.92121,0.13704 -3.29427,-2.53967 -2.47026,-6.24507 -0.20468,-1.29487 -1.43805,-1.69282 -1.92123,-3.7748 -0.28725,-1.23776 0.26091,-2.71272 -0.0684,-3.98037 -1.32826,-5.11622 -3.91186,-8.51094 -4.04889,-11.39306 z"
   style="stroke-width:0.732061" />
  <path
   id="back_right_lateral_foot"
   d="m 404.56713,368.54408 c 0.15286,0.33734 0.25389,0.59912 0.30659,0.74319 0.003,0.28111 0.0167,0.55607 0.0456,0.81436 0.20556,1.85269 1.85006,4.71299 3.4972,7.45821 1.64714,2.74524 2.5423,4.48374 1.58125,10.79719 1.07261,2.54932 0.70014,4.69544 -1.04978,3.68168 -0.86266,-2.68812 -2.40262,-7.68737 -3.34258,-11.91723 -1.67701,-7.54317 -1.39326,-10.47214 -1.03836,-11.57755 z"
   style="stroke-width:0.732061" />
  <path
   id="back_right_lateral_ankle"
   d="m 405.18938,364.60559 c -0.13704,-2.47027 -1.5101,-4.9414 -1.5101,-4.9414 -1.67436,-3.76427 0.49284,-7.48388 1.17629,-13.6698 -1.90717,0.079 -4.25533,0.17042 -6.69134,0.25477 l 6.71242,22.52918 c 0.0448,-1.61376 0.35666,-3.36982 0.31273,-4.17187 z"
   style="stroke-width:0.732061" />
  <path
   id="back_right_medial_ankle"
   d="m 388.47642,346.50172 c 0.16955,2.03981 0.28464,3.70891 0.42695,4.67874 0.44978,3.06236 0.23543,5.89368 0.0361,7.56293 -0.20381,1.67086 -0.24071,2.60995 0.3303,3.5341 0.14934,0.24158 1.10425,1.50922 1.10425,1.50922 0,0 0.42869,0.86793 0.26618,3.20379 -0.0695,1.00233 -0.30835,1.60233 -0.50161,2.33059 0.20731,-0.32065 0.43308,-0.65797 0.66852,-1.00235 l 3.85649,-21.95012 c -2.21552,0.065 -4.36514,0.11508 -6.18532,0.13441 z"
   style="stroke-width:0.732061" />
  <path
   id="back_right_posterior_medial_lower_leg"
   d="m 396.1045,339.34217 -5.05034,-43.87465 c -4.03746,0.96808 -8.3162,1.61288 -12.24006,1.80351 0.84684,3.80907 1.78945,8.60318 1.6401,13.50215 -0.18974,6.23803 2.62576,13.87841 5.14962,20.6141 1.72357,4.59794 2.34816,10.71666 2.71536,15.11121 1.86324,-0.0193 4.07084,-0.0712 6.34081,-0.13792 l 1.31158,-7.46556 0.13264,0.44626 z"
   style="stroke-width:0.732061" />
  <path
   id="back_right_posterior_lateral_lower_leg"
   d="m 398.1616,346.24549 c 2.38154,-0.0825 4.6726,-0.17216 6.53935,-0.24949 0.29341,-2.65737 0.67028,-5.2111 1.01639,-7.37917 1.27731,-7.98899 2.09165,-21.97209 1.33002,-28.93693 -0.58945,-5.3701 -3.31712,-13.17197 -5.23043,-17.93989 -2.95255,1.47584 -6.73702,2.76193 -10.76277,3.7265 l 5.05034,43.87461 2.05739,6.90569 z"
   style="stroke-width:0.732061" />
  <path
   id="back_right_achilles_tendon"
   d="m 398.1616,346.25281 c -0.008,0 -0.0123,7.3e-4 -0.0193,7.3e-4 0.005,-7.3e-4 0.0114,-0.008 0.0177,-0.008 l -2.0574,-6.90568 -0.13264,-0.44539 -1.31156,7.46557 c 0.009,0 0.0157,0.003 0.0228,0.003 -0.009,0 -0.0157,7.3e-4 -0.0237,7.3e-4 l -3.85561,21.95159 c 1.72707,-2.51595 4.13585,-5.44742 6.01315,-5.49133 5.42721,-0.12651 7.71813,5.54403 8.05268,6.46027 -0.002,-0.16514 0.003,-0.33468 0.009,-0.50422 l -6.71242,-22.52845 z"
   style="stroke-width:0.732061" />
  <path
   id="back_right_posterior_lateral_knee"
   d="m 391.03865,295.29402 -8.2357,-29.64847 c 4.80702,-0.75901 9.26204,-0.93469 12.67052,-0.90395 0.49459,3.61227 2.09956,7.28342 2.4035,10.76056 0.36985,4.23074 1.02078,9.71519 2.53528,12.937 0.34612,0.73704 0.84246,1.88783 1.41083,3.30393 -2.95256,1.47671 -6.7379,2.76193 -10.76277,3.72649 l -0.0193,-0.17483 z"
   style="stroke-width:0.732061"><title
     id="title3139">Left Posterior Lateral Knee</title></path>
  <path
   id="back_right_posterior_medial_knee"
   d="m 391.03865,295.29402 0.0203,0.17484 c -4.03747,0.96807 -8.31549,1.61373 -12.23862,1.8035 -0.23192,-1.04012 -0.45592,-2.0126 -0.64919,-2.88668 -0.89781,-4.07524 -3.73439,-9.3938 -4.69895,-15.09583 -0.33294,-1.96251 -1.14729,-5.82604 -2.11712,-10.29279 2.97713,-1.28784 6.89953,-2.63279 11.44942,-3.35137 l 8.23571,29.64848 z"
   style="stroke-width:0.732061"><title
     id="title3137">Right Posterior Medial Knee</title></path>
  <path
   id="back_right_posterior_lateral_upper_thigh"
   d="m 395.46761,264.73779 c -0.10802,-0.78975 -0.16515,-1.57598 -0.14143,-2.35783 0.13266,-4.35635 1.14553,-21.08702 1.15607,-29.39078 0.004,-3.96984 -0.20556,-10.21519 -0.42079,-16.49849 -0.1221,-3.56043 -0.24334,-7.12969 -0.32943,-10.30742 -0.0579,0.0843 -0.11508,0.16517 -0.17305,0.25301 -5.17158,7.9802 -11.37918,11.57974 -18.33229,12.77594 l 5.5704,46.43024 c 4.80702,-0.75899 9.26204,-0.93468 12.67052,-0.90394 z"
   style="stroke-width:0.732061" />
  <path
   id="back_right_posterior_medial_upper_thigh"
   d="m 357.86895,218.21529 1.93,4.60496 c 0.79941,2.04508 4.84127,13.39965 6.58943,23.05993 0.70454,3.89779 3.11594,14.60316 4.96513,23.11703 2.97717,-1.28784 6.89954,-2.63278 11.44944,-3.35137 l -5.5704,-46.43099 c -5.96484,1.02518 -12.47871,0.28199 -19.36229,-0.99971 z"
   style="stroke-width:0.732061" />
  <path
   id="back_left_posterior_medial_forearm"
   d="m 276.4198,169.37948 -0.53235,0.76077 6.41901,4.6682 c 3.33117,-3.8486 7.99777,-9.16834 10.48604,-11.38649 3.88549,-3.46469 8.02778,-8.72836 10.66028,-13.30814 1.37833,-2.39735 2.58622,-5.125 3.55343,-7.77449 -3.28725,-0.1027 -7.33159,-0.60526 -11.36892,-2.05914 l -19.21661,29.09944 z"
   style="stroke-width:0.732061" />
  <path
   id="back_left_medial_elbow"
   d="m 295.63642,140.28005 c 4.03747,1.45299 8.08196,1.95547 11.37038,2.05915 0.88111,-2.4123 1.5628,-4.76045 1.98621,-6.73527 0.8899,-4.14376 0.0431,-3.46559 1.88257,-6.71945 1.96868,-3.48227 3.51654,-6.75458 4.7464,-9.73056 -1.19121,-1.05328 -3.80555,-2.1259 -10.1017,-4.1297 l -9.88284,25.25611 z"
   style="stroke-width:0.732061" />
  <path
   id="back_left_posterior_medial_wrist"
   d="m 268.85763,180.17007 7.29394,5.0363 c 0.0668,-0.41992 0.13354,-0.80294 0.20294,-1.12094 0.41552,-1.90804 1.10951,-3.83191 2.22165,-4.99764 0.40058,-0.41904 1.8527,-2.12064 3.72561,-4.28432 l -6.419,-4.66822 -7.02427,10.03511 z"
   style="stroke-width:0.732061" />
  <path
   id="back_left_posterior_lateral_forearm"
   d="m 284.66282,132.89354 c -1.41084,2.00117 -2.72854,4.13498 -3.69398,6.24068 -3.20995,7.00494 -4.99939,17.27372 -9.15224,23.35495 -0.69224,1.01376 -1.40819,2.07233 -2.13117,3.13527 l 6.20377,4.51186 0.53236,-0.76077 19.21661,-29.09944 c -5.51154,-1.98448 -8.89526,-4.76483 -10.97579,-7.38283 z"
   style="stroke-width:0.732061" />
  <path
   id="back_left_lateral_elbow"
   d="m 294.25281,118.01806 c 0,0 0.0114,3.50687 -1.48023,5.14874 -1.04185,1.14728 -4.82983,5.07758 -8.11197,9.73202 2.08024,2.61786 5.46324,5.3991 10.97581,7.38283 l 9.88282,-25.2561 c -3.74229,-1.19122 -7.20085,-1.86413 -9.93261,-2.24626 -0.67817,1.78417 -1.18594,3.55869 -1.33264,5.23922 z"
   style="stroke-width:0.732061" />
  <path
   id="back_left_posterior_lateral_wrist"
   d="m 269.68484,165.624 c -2.67846,3.9426 -5.44742,7.9502 -7.4458,9.97361 l 6.62458,4.57421 7.02426,-10.03583 -6.2029,-4.51183 z"
   style="stroke-width:0.732061" />
  <path
   id="back_left_posterior_lateral_upper_arm"
   d="m 302.15176,94.189464 c -0.14055,1.237783 -0.30219,2.440403 -0.51302,3.588573 -0.25126,1.369541 -0.57014,2.666163 -1.00761,3.850343 -1.16311,3.14494 -3.53323,7.17185 -5.04772,11.15074 2.73294,0.38214 6.19149,1.05506 9.93407,2.24627 L 317.08113,87.3176 c -6.20467,4.068223 -11.95237,6.040378 -14.92673,6.872306 z"
   style="stroke-width:0.732061" />
  <path
   id="back_left_posterior_medial_upper_arm"
   d="M 317.07848,87.315402 305.51631,115.0232 c 6.2969,2.0038 8.91065,3.07641 10.10171,4.1297 3.18798,-7.71373 4.23865,-13.44137 4.93175,-15.68881 l 0.0581,-0.18622 c 0,0 -0.78448,-8.517538 -3.52882,-15.961875 z"
   style="stroke-width:0.732061" />
  <path
   id="back_left_posterior_thumb"
   d="m 249.82401,192.87134 c 0.30219,-0.57454 0.62373,-1.12972 0.97862,-1.63925 1.31156,-1.88168 1.88432,-3.89515 1.88432,-3.89515 -2.47289,2.55636 -5.93584,3.29779 -8.10099,3.38477 -2.16278,0.0861 -2.71974,-2.3095 -0.90129,-3.44449 1.06998,-0.66678 2.75048,-2.16721 3.76864,-2.80322 1.01639,-0.63513 3.37598,-2.18915 5.42546,-3.93643 2.04947,-1.74818 5.43071,-3.18622 7.62368,-3.81346 0.47351,-0.13528 1.07526,-0.60001 1.77188,-1.30541 l 6.6193,4.57069 -2.32092,3.48227 -16.7481,9.39894 z"
   style="stroke-width:0.732061" />
  <path
   id="back_left_posterior_2nd_-_4th_digits"
   d="m 244.82403,202.79075 c 0.81524,-1.424 1.65154,-2.98153 2.7303,-5.11095 0.78537,-1.54963 1.45651,-3.26441 2.2691,-4.80877 l 16.7481,-9.39893 -4.32384,17.01969 -7.89895,15.54753 c -0.0633,-0.0237 -0.1265,-0.0456 -0.19238,-0.0764 -1.47144,-0.67643 0.23103,-4.33175 0.23103,-4.33175 0.4735,-1.07788 1.3836,-3.03074 2.6855,-5.25503 1.30541,-2.22429 1.64098,-5.98944 1.64098,-5.98944 -0.0228,0.0273 -0.0517,0.073 -0.0809,0.11509 -0.64306,0.96017 -2.70746,5.53086 -3.69136,6.92412 -1.02518,1.453 -2.50892,4.67173 -3.88286,6.13088 -1.37392,1.4609 -2.32883,0.60438 -2.32883,0.60438 -1.97481,-1.72532 2.14435,-8.77229 3.35842,-10.87404 1.21316,-2.10306 1.17362,-4.57157 1.17362,-4.57157 -1.50834,1.43543 -3.43571,5.18652 -4.83687,7.18766 -1.40293,2.00029 -2.5546,4.52679 -4.4486,3.49896 -1.89486,-1.02605 0.0386,-5.1865 0.8495,-6.61139 z"
   style="stroke-width:0.732061" />
  <path
   id="back_left_posterior_5th_digit"
   d="m 266.57358,183.47166 2.32181,-3.48227 0.0157,0.011 7.28343,5.02927 c -0.33471,2.10219 -0.67115,5.23483 -1.32649,6.94082 -0.788,2.04332 -1.53119,4.2316 -2.50015,5.76366 -0.97158,1.53381 -2.68461,4.09193 -3.75107,6.15458 -1.06472,2.06267 -2.94992,5.77948 -4.35284,7.78181 -1.4038,2.00205 -1.78769,1.45213 -1.78769,1.45213 -1.40557,-0.66237 -1.45475,-2.053 -0.20469,-4.61286 0.80292,-1.64627 2.906,-6.67642 2.906,-6.67642 0,0 -0.96634,1.12357 -1.36691,1.80351 -0.39882,0.67731 -1.83074,3.22049 -2.79619,4.34407 -0.96719,1.12268 -1.75783,3.57625 -3.03864,5.66966 -1.22283,1.99765 -2.25064,2.90335 -3.62546,2.39033 l 7.90041,-15.54607 4.32384,-17.02041 z"
   style="stroke-width:0.732061" />
  <path
   id="back_right_posterior_medial_forearm"
   d="m 439.61823,169.92854 0.53235,0.76074 -6.419,4.66821 c -3.33028,-3.84859 -7.99777,-9.16833 -10.48604,-11.38647 -3.88462,-3.46471 -8.02633,-8.72838 -10.66029,-13.30814 -1.37831,-2.39736 -2.58534,-5.12504 -3.55342,-7.77449 3.28724,-0.1027 7.3316,-0.60528 11.37038,-2.05915 l 19.21661,29.09944 z"
   style="stroke-width:0.732061" />
  <path
   id="back_right_medial_elbow"
   d="m 420.40163,140.82909 c -4.03747,1.453 -8.0827,1.95548 -11.36892,2.05913 -0.88111,-2.41227 -1.56279,-4.76044 -1.98624,-6.73524 -0.88989,-4.14376 -0.043,-3.46558 -1.88343,-6.71944 -1.96868,-3.48227 -3.51567,-6.75459 -4.74553,-9.73056 1.19121,-1.0533 3.80468,-2.12592 10.10172,-4.12971 l 9.88284,25.25612 z"
   style="stroke-width:0.732061" />
  <path
   id="back_right_posterior_medial_wrist"
   d="m 447.18042,180.71911 -7.29398,5.03629 c -0.0668,-0.41992 -0.13263,-0.80292 -0.20291,-1.12094 -0.41465,-1.90805 -1.10863,-3.83188 -2.22079,-4.99763 -0.40146,-0.41902 -1.85269,-2.12063 -3.7256,-4.28432 l 6.41813,-4.6682 7.02428,10.03509 z"
   style="stroke-width:0.732061" />
  <path
   id="back_right_posterior_lateral_forearm"
   d="m 431.38253,133.4426 c 1.41084,2.00115 2.72943,4.13497 3.69487,6.24068 3.20906,7.00494 4.99939,17.27371 9.15077,23.35494 0.69311,1.01376 1.40907,2.07231 2.13118,3.13528 l -6.20292,4.51184 -0.53235,-0.76076 -19.2166,-29.09944 c 5.51155,-1.98447 8.89527,-4.76485 10.9758,-7.38285 z"
   style="stroke-width:0.732061" />
  <path
   id="back_right_lateral_elbow"
   d="m 421.78521,118.5671 c 0,0 -0.011,3.50688 1.48112,5.14874 1.04187,1.14728 4.82984,5.07757 8.11197,9.73202 -2.07935,2.61785 -5.46324,5.39911 -10.97581,7.38284 l -9.88281,-25.2561 c 3.74318,-1.19122 7.20172,-1.86413 9.93406,-2.24628 0.67907,1.78419 1.18594,3.5587 1.33352,5.23922 z"
   style="stroke-width:0.732061" />
  <path
   id="back_right_posterior_lateral_wrist"
   d="m 446.35319,166.17306 c 2.67847,3.94258 5.44831,7.95017 7.44653,9.9736 l -6.62545,4.57422 -7.02427,-10.03584 6.2029,-4.51183 z"
   style="stroke-width:0.732061" />
  <path
   id="back_right_posterior_medial_upper_arm"
   d="m 395.11623,103.34023 v 0.94964 c 0.0764,-0.3022 0.11859,-0.46823 0.11859,-0.46823 0.0729,0.22049 0.13001,-0.66061 0.17657,-1.99765 l 0.0756,2.18299 c 0.69311,2.24802 1.74377,7.97583 4.93087,15.68955 1.19209,-1.05329 3.80555,-2.12678 10.10245,-4.1297 L 398.62068,87.443216 c -2.72503,7.428238 -3.50336,15.896724 -3.50336,15.896724 z"
   style="stroke-width:0.732061" />
  <path
   id="back_right_posterior_lateral_upper_arm"
   d="m 415.40896,102.17626 c -0.43835,-1.18506 -0.75636,-2.480821 -1.0076,-3.85035 -0.0633,0 -0.12914,-0.0022 -0.19328,-0.0022 -0.22752,-1.238655 -0.39619,-2.544068 -0.54465,-3.885505 -3.03863,-0.858264 -8.82353,-2.871723 -15.03946,-6.990011 l 11.89965,28.123596 c 3.7423,-1.19121 7.20085,-1.86412 9.93261,-2.24625 -1.51272,-3.97773 -3.88374,-8.00435 -5.0477,-11.14928 z"
   style="stroke-width:0.732061" />
  <path
   id="back_right_posterior_thumb"
   d="m 466.25062,193.60339 c -0.30219,-0.5754 -0.62372,-1.12971 -0.97862,-1.64011 -1.31157,-1.88169 -1.88432,-3.89515 -1.88432,-3.89515 2.4729,2.55724 5.93584,3.29779 8.10245,3.38476 2.16281,0.0862 2.71976,-2.30951 0.90132,-3.4445 -1.06911,-0.66675 -2.7505,-2.16719 -3.76866,-2.8032 -1.01639,-0.63426 -3.37509,-2.18917 -5.42545,-3.93644 -2.04948,-1.74729 -5.43073,-3.18622 -7.62369,-3.81259 -0.4735,-0.13528 -1.07524,-0.60087 -1.77186,-1.30541 l -6.61932,4.57071 2.32181,3.48227 16.74811,9.39892 z"
   style="stroke-width:0.732061" />
  <path
   id="back_right_posterior_2nd_-_4th_digits"
   d="m 471.2506,203.52281 c -0.81434,-1.424 -1.65152,-2.98064 -2.7303,-5.11007 -0.78534,-1.54962 -1.45649,-3.2644 -2.26909,-4.80876 l -16.7481,-9.39966 4.32385,17.02042 7.9004,15.54751 c 0.0642,-0.0237 0.1265,-0.0464 0.19238,-0.0764 1.47145,-0.67643 -0.23015,-4.33176 -0.23015,-4.33176 -0.4735,-1.07788 -1.38359,-3.03074 -2.68551,-5.25502 -1.30541,-2.22518 -1.64098,-5.98944 -1.64098,-5.98944 0.0228,0.0273 0.0517,0.0729 0.0808,0.11509 0.64304,0.95929 2.70833,5.53086 3.69221,6.92413 1.02519,1.45299 2.50893,4.67083 3.88286,6.13085 1.37395,1.4609 2.32884,0.60439 2.32884,0.60439 1.97481,-1.72532 -2.14435,-8.77228 -3.3584,-10.87476 -1.21317,-2.10307 -1.17364,-4.57158 -1.17364,-4.57158 1.50834,1.43542 3.4357,5.18738 4.83687,7.18855 1.40292,2.00029 2.55462,4.5259 4.44858,3.49807 1.89488,-1.02605 -0.0386,-5.18651 -0.84947,-6.61138 z"
   style="stroke-width:0.732061" />
  <path
   id="back_right_posterior_5th_digit"
   d="m 449.50837,184.20373 -2.32181,-3.48227 -0.015,0.011 -7.28343,5.02927 c 0.3347,2.10219 0.67116,5.23482 1.3265,6.9417 0.78797,2.04245 1.53117,4.2316 2.50012,5.76366 0.97161,1.53293 2.68462,4.09194 3.75109,6.15458 1.06559,2.06179 2.94991,5.77948 4.35283,7.77962 1.4038,2.00292 1.7877,1.45299 1.7877,1.45299 1.40555,-0.66235 1.45475,-2.05299 0.20468,-4.61285 -0.80293,-1.64627 -2.90598,-6.67728 -2.90598,-6.67728 0,0 0.96631,1.12356 1.36691,1.80437 0.39883,0.67732 1.83072,3.22049 2.79616,4.34406 0.9672,1.12356 1.75783,3.57627 3.03864,5.66967 1.22284,1.99764 2.25067,2.90248 3.62635,2.39033 l -7.90041,-15.54606 -4.32384,-17.02041 z"
   style="stroke-width:0.732061" />
  <path
   id="back_left_posterior_shoulder"
   d="m 338.20578,59.688152 c -1.62606,0.771312 -3.22751,1.512743 -4.26412,1.951088 -2.38768,1.008492 -7.5739,2.219033 -9.34695,2.757519 -1.77276,0.537635 -8.83672,-0.34259 -12.4165,2.981563 -3.58066,3.324141 -7.3124,8.647087 -8.62368,15.311049 -0.75285,3.832768 -0.98038,7.823544 -1.39764,11.498476 6.75459,-1.888705 27.79197,-9.640503 36.04889,-34.49838 z"
   style="stroke-width:0.732061" />
  <path
   id="back_right_posterior_shoulder"
   d="m 413.65933,94.438357 c -0.39619,-3.592065 -0.6325,-7.468476 -1.36602,-11.199788 -1.31156,-6.664102 -5.04331,-11.986779 -8.62368,-15.311071 -3.58066,-3.324142 -10.64345,-2.443906 -12.41723,-2.98153 -1.77274,-0.538519 -6.95838,-1.749049 -9.34623,-2.757541 -0.99442,-0.42078 -2.51065,-1.120928 -4.0682,-1.858846 8.29791,24.443531 28.99329,32.179229 35.82268,34.107472 z"
   style="stroke-width:0.732061" />
  <path
   id="back_left_gluteal"
   d="m 326.30246,162.41026 c -0.11596,0.53939 -0.24685,1.12972 -0.40057,1.81581 l -0.0966,0.42517 c -1.08053,4.75518 -1.56982,7.60173 -3.00262,12.24153 -1.43279,4.64098 -2.72941,13.31401 -2.66001,21.04749 0.0228,2.63016 -0.0712,6.48227 -0.20381,10.74447 1.18771,2.49047 9.85134,18.03506 37.61697,9.61563 l 0.30922,-0.73705 c -0.33118,-11.26714 -3.34347,-27.06283 -8.97435,-35.83659 -7.6881,-11.97871 -18.35057,-17.49553 -22.58702,-19.31691 z"
   style="stroke-width:0.732061" />
  <path
   id="back_right_gluteal"
   d="m 395.56278,206.43642 c 0.057,-0.0887 0.11509,-0.16955 0.17305,-0.25387 -0.0781,-2.95081 -0.12561,-5.56426 -0.1089,-7.50801 0.0684,-7.73352 -1.22723,-16.40697 -2.66089,-21.0475 -1.43281,-4.6401 -2.98858,-12.70273 -2.98858,-12.70273 -0.2117,-0.93382 -0.37773,-1.69194 -0.52357,-2.37978 -4.28607,1.8527 -14.87181,7.37551 -22.51673,19.28687 -5.63102,8.7745 -8.64346,24.57092 -8.97434,35.83733 -0.005,0.19152 0.002,0.37249 7.3e-4,0.56047 14.86889,2.75752 28.01085,2.99999 37.59867,-11.79278 z"
   style="stroke-width:0.732061" />
  <path
   id="back_left_scapular"
   d="m 349.85287,63.410682 c -6.10802,-0.75461 -11.45822,-3.623704 -11.65148,-3.722972 -4.61902,13.90916 -13.23932,22.458908 -21.12143,27.626528 0,0 10.84183,10.165402 32.75535,12.23787 l 0.0167,-36.140392 z"
   style="stroke-width:0.732061" />
  <path
   id="back_right_scapular"
   d="m 365.63611,99.55547 c 22.11411,-2.045959 32.98303,-12.110476 32.98303,-12.110476 -7.75326,-5.136435 -16.17636,-13.55047 -20.78174,-27.117751 -0.0324,-0.01498 -0.0642,-0.02985 -0.0957,-0.04483 -2.11448,1.084042 -5.4606,1.880807 -9.13541,2.495738 -0.97422,0.200304 -1.96602,0.378636 -2.97011,0.535879 z"
   style="stroke-width:0.732061" />
  <path
   id="back_left_posterior_thorax"
   d="m 317.07848,87.315402 c 2.74436,7.444337 3.52883,15.961878 3.52883,15.961878 0,0 4.42312,17.32862 6.43835,28.56721 1.23602,6.89251 2.66879,12.30597 1.23602,20.03873 -1.16487,6.29075 -1.37131,7.70567 -1.97922,10.53217 4.23776,1.82107 14.89965,7.33819 22.5885,19.31689 0.37772,0.58858 0.7423,1.21055 1.0972,1.85886 L 349.83531,99.550503 C 327.92179,97.478185 317.07996,87.312622 317.07996,87.312622 Z"
   style="stroke-width:0.732061" />
  <path
   class="transparent"
   d="m 317.07957,87.312794 -0.002,0.0032 c 2.74436,7.444316 3.52876,15.960926 3.52876,15.960926 0,0 4.42322,17.32894 6.43843,28.56754 0.99186,5.53101 2.0358,10.16469 1.69862,15.75362 h 21.1783 l -0.0873,-48.047244 C 327.92072,97.478562 317.07879,87.313161 317.07879,87.313161 Z"
   id="back_upper_left_posterior_thorax"
   style="stroke-width:0.732061" />
  <path
   class="transparent"
   d="m 349.92225,147.59775 h -21.1783 c -0.0831,1.37574 -0.17881,2.75763 -0.46183,4.28512 -1.16485,6.29076 -1.37239,7.70547 -1.98028,10.53197 4.23775,1.82107 14.90068,7.33941 22.58951,19.31812 0.37774,0.58857 0.74177,1.21044 1.09668,1.85874 z"
   id="back_lower_left_posterior_thorax"
   style="stroke-width:0.732061" />
  <path
   id="back_sacrum"
   d="m 357.86895,217.56375 v 0.64656 c 0.0317,0.005 0.0642,0.0114 0.0957,0.0167 7.3e-4,-0.18799 -0.005,-0.36984 -7.4e-4,-0.55958 0.30395,-10.31621 2.85594,-24.42449 7.60612,-33.46838 l -15.23418,0.0334 c 4.7051,9.04754 7.23247,23.06798 7.53437,33.33222 z"
   style="stroke-width:0.732061" />
  <path
   id="back_right_posterior_thorax"
   d="m 365.63611,99.55547 v 84.50916 c 0.41641,-0.78448 0.84773,-1.53469 1.29751,-2.23571 7.64565,-11.91137 18.23126,-17.43404 22.51674,-19.28689 -0.54201,-2.56338 -0.78447,-4.14288 -1.89048,-10.11489 -1.43278,-7.73349 0,-13.14636 1.23602,-20.03871 1.82107,-10.15149 5.60554,-25.2693 6.31974,-28.09872 v -0.94962 c 0,0 0.77833,-8.467752 3.50336,-15.896712 2.72501,-7.428949 -10.87039,10.063643 -32.98303,12.110487 z"
   style="stroke-width:0.732061" />
  <path
   class="transparent"
   d="m 398.48137,85.627043 c -2.53566,0.404186 -14.87902,12.263258 -32.84553,13.926326 v 0.0022 48.042961 h 21.40277 c -0.24008,-5.35535 0.79635,-9.85067 1.75725,-15.20888 1.82106,-10.15149 5.60554,-25.26915 6.31974,-28.09857 v -0.95082 c 0,0 0.77799,-8.46763 3.50302,-15.896589 0.51095,-1.392925 0.44789,-1.909127 -0.13725,-1.81585 z"
   id="back_upper_right_posterior_thorax"
   style="stroke-width:0.732061" />
  <path
   class="transparent"
   d="m 387.03861,147.59775 h -21.40277 v 36.46722 c 0.41638,-0.78447 0.84848,-1.5352 1.29826,-2.23623 7.64564,-11.91135 18.2311,-17.4338 22.5166,-19.28666 -0.54201,-2.56337 -0.7842,-4.14244 -1.8902,-10.11444 -0.31893,-1.7214 -0.45314,-3.29656 -0.52189,-4.82989 z"
   id="back_lower_right_posterior_thorax"
   style="stroke-width:0.732061" />
  <path
   id="back_midline_upper_back"
   d="m 356.69764,63.970698 c -0.22663,-8.08e-4 -0.44977,-0.0032 -0.66412,-0.0097 -0.4489,-0.01412 -0.88901,-0.03502 -1.32386,-0.0597 -0.16427,-0.0097 -0.32591,-0.02112 -0.48844,-0.03168 -0.25914,-0.0167 -0.51653,-0.03599 -0.76953,-0.05625 -0.20293,-0.0167 -0.40323,-0.03341 -0.60264,-0.05172 -0.19853,-0.01832 -0.39355,-0.03869 -0.58856,-0.0597 -0.84335,-0.08869 -1.6577,-0.196781 -2.44481,-0.321534 -0.014,-0.0022 -0.0273,-0.0032 -0.0413,-0.0065 l 0.0658,36.179207 c 2.48519,0.23455 5.10481,0.371599 7.87478,0.371599 2.78915,0 5.42632,-0.133536 7.9275,-0.365445 V 63.317879 c -2.9025,0.453281 -5.91126,0.704533 -8.94361,0.654457 z"
   style="stroke-width:0.732061" />
  <path
   id="back_midline_lower_back"
   d="m 349.99198,183.58879 c 0.11506,0.21172 0.23015,0.42694 0.34347,0.6448 l 15.2342,-0.0324 c 0.0237,-0.0448 0.0475,-0.0887 0.0712,-0.13352 v -36.46983 l -15.71443,7.3e-4 0.0651,35.99106 z"
   style="stroke-width:0.732061" />
  <path
   id="back_midline_posterior_thorax"
   d="m 357.70789,99.921509 c -2.76982,0 -5.38943,-0.137038 -7.87479,-0.370715 l 0.087,48.047376 15.71442,-7.4e-4 V 99.556656 c -2.501,0.231909 -5.13819,0.365435 -7.92748,0.365435 z"
   style="stroke-width:0.732061" />
  <path
   id="back_posterior_head"
   d="m 358.04464,39.436413 c 5.12413,0 8.78473,-1.464421 8.78473,-1.464421 l 7.0067,5.120625 c 0.25213,-1.324742 0.3145,-2.254162 0.3145,-2.254162 1.9713,0.144947 3.13879,-3.38125 2.99209,-4.676118 -0.14583,-1.294867 0.80292,-2.590619 1.89838,-4.532925 1.09458,-1.942307 1.64449,-5.456199 0.87671,-5.899827 -1.27027,-0.735284 -2.70131,0.790625 -2.70131,0.790625 0.87672,-5.467619 -2.00204,-14.508722 -2.00204,-14.508722 0,0 -3.64303,-11.85573329 -17.35351,-11.0058073 -2.1707,0 -13.4992,0.385648 -17.22394,10.4179613 0,0 -2.87875,9.040958 -2.00204,14.508724 0,0 -1.43278,-1.52591 -2.70218,-0.791505 -0.76867,0.444508 -0.21874,3.957522 0.87584,5.899828 1.09545,1.943182 2.04508,3.238058 1.89838,4.532042 -0.14583,1.294876 1.02166,4.821949 2.99296,4.67699 0,0 0.0491,0.74056 0.23807,1.84041 l 7.68956,-4.119165 c 0,0 4.01112,1.464415 8.4187,1.464415 z"
   style="stroke-width:0.732061" />
  <path
   class="transparent"
   d="M 357.96062,1.0096177 V 39.429974 c 0.0296,1.32e-4 0.056,0.0055 0.0859,0.0055 l -0.002,0.0022 c 5.12414,0 8.78474,-1.465547 8.78474,-1.465547 l 7.00604,5.121565 c 0.25213,-1.324733 0.31456,-2.254812 0.31456,-2.254812 1.9713,0.144969 3.13929,-3.380589 2.99258,-4.675457 -0.14582,-1.294876 0.80334,-2.591618 1.89879,-4.533923 1.09458,-1.942307 1.64425,-5.455753 0.87648,-5.899384 -1.27028,-0.73528 -2.70235,0.790686 -2.70235,0.790686 0.87673,-5.467621 -2.00172,-14.508255 -2.00172,-14.508255 0,0 -3.6332,-11.78250229 -17.25349,-11.0023663 z"
   id="back_right_posterior_head"
   style="stroke-width:0.732061" />
  <path
   class="transparent"
   d="m 357.96062,1.0096177 c -0.0364,0.0022 -0.0635,-0.0065 -0.10011,-0.0043 -2.17071,0 -13.49874,0.386692 -17.22345,10.4190063 0,0 -2.87846,9.040488 -2.00174,14.508254 0,0 -1.43296,-1.526517 -2.70234,-0.792113 -0.76867,0.444508 -0.21953,3.958505 0.87505,5.900809 1.09544,1.943191 2.04547,3.237068 1.89877,4.53106 -0.14582,1.294868 1.0213,4.821847 2.9926,4.676911 0,0 0.0499,0.741746 0.23878,1.841597 l 7.68949,-4.119289 c 0,0 3.96056,1.4389 8.33292,1.458406 z"
   id="back_left_posterior_head"
   style="stroke-width:0.732061" />
  <path
   id="back_left_posterior_neck"
   d="m 339.14282,60.153739 c 0.16339,0.07813 0.32853,0.155497 0.49721,0.23191 0.0974,0.04483 0.19678,0.08966 0.29692,0.13443 0.16078,0.07123 0.32417,0.142297 0.49019,0.213451 0.10539,0.04483 0.20997,0.09041 0.31714,0.135292 0.18798,0.07813 0.38037,0.154603 0.57364,0.231048 0.12387,0.04914 0.24861,0.09752 0.37511,0.14581 0.22576,0.08696 0.45505,0.172189 0.68785,0.256522 0.1379,0.04914 0.27935,0.09741 0.4199,0.145831 0.15374,0.05366 0.30834,0.106251 0.46647,0.158105 0.15725,0.05172 0.31624,0.103773 0.47701,0.154636 0.14583,0.04655 0.29342,0.09127 0.44275,0.137027 0.1713,0.05172 0.3426,0.104527 0.51743,0.154624 0.13967,0.0403 0.28374,0.07899 0.42692,0.118579 0.38038,0.105389 0.76956,0.20733 1.1675,0.303948 0.0975,0.02468 0.19326,0.04914 0.29254,0.07295 0.20908,0.04914 0.42254,0.09569 0.63602,0.14318 0.13703,0.02985 0.27319,0.06067 0.41111,0.08955 0.21611,0.04569 0.43396,0.08966 0.65536,0.131768 0.14054,0.02726 0.28285,0.05453 0.42517,0.08093 0.22664,0.04224 0.45505,0.08254 0.68608,0.122113 0.12035,0.02026 0.24334,0.03858 0.36458,0.05797 l -7.4e-4,-0.231931 2.85855,-24.335176 c -1.80351,-0.396191 -3.0035,-0.831914 -3.0035,-0.831914 l -7.6881,4.119164 c 0.36544,2.118876 1.25181,5.573038 3.3171,7.656628 l 0.0114,0.144074 0.35489,4.753414 c 0,0 -0.35665,1.613757 -2.13029,2.48784 -1.0041,0.494574 -3.16602,1.549628 -5.28665,2.554607 0.22575,0.116822 0.46032,0.233666 0.69925,0.349627 0.0799,0.03858 0.16164,0.07737 0.24247,0.11596 z"
   style="stroke-width:0.732061" />
  <path
   id="back_right_posterior_neck"
   d="m 365.63611,63.229861 c 1.00235,-0.137922 1.99765,-0.288128 2.97012,-0.450652 3.26706,-0.670287 6.35226,-1.558422 9.12001,-2.502786 -2.14784,-1.017263 -4.3537,-2.092511 -5.37097,-2.594995 -1.77364,-0.873199 -1.97482,-2.487829 -1.97482,-2.487829 l 0.21084,-4.858846 c 0.14671,-0.147588 0.2855,-0.304831 0.42078,-0.465598 1.64803,-1.961627 2.44568,-4.806994 2.82166,-6.778307 l -7.0067,-5.119734 c 0,0 -1.65153,0.657094 -4.28168,1.091063 l 3.09135,24.073836 v 0.0931 z"
   style="stroke-width:0.732061" />
  <path
   id="back_midline_posterior_neck"
   d="m 349.77235,63.371888 c 0.0141,0.0022 0.0273,0.0032 0.0414,0.0065 0.58066,0.09235 1.17364,0.177458 1.78505,0.250347 0.217,0.02554 0.43925,0.04838 0.65974,0.07123 0.19591,0.02112 0.39005,0.04127 0.58858,0.0597 0.19853,0.01832 0.40059,0.0361 0.60264,0.05172 0.25387,0.02026 0.51038,0.03955 0.76953,0.05625 0.16252,0.01099 0.32328,0.02198 0.48844,0.03168 0.43572,0.02446 0.87495,0.04558 1.32385,0.0597 0.22226,0.0075 0.44276,0.0075 0.66501,0.0097 2.71097,0.0086 6.10627,-0.37509 6.10627,-0.37509 0.94259,-0.111574 1.89224,-0.233688 2.83659,-0.364584 v -0.0931 l -3.09136,-24.074242 c -1.29136,0.212582 -2.81551,0.372467 -4.50306,0.372467 -2.00116,0 -3.91536,-0.302189 -5.41491,-0.631626 l -2.85856,24.336652 7.4e-4,0.231909 z"
   style="stroke-width:0.732061" />
  <g
   id="layer1"
   display="none"
   transform="translate(65.744162,-103.73871)">
    <g
   id="g12"
   transform="matrix(1.25,0,0,-1.25,4.49407e-7,1052.3625)">
      <g
   id="g14"
   clip-path="url(#clipPath16-7)">
        <g
   id="g20"
   transform="translate(495.584,415.9609)">
          <path
   id="path22"
   d="m 0,0 c -1.947,1.214 -5.01,3.947 -6.863,5.105 -1.852,1.157 -6.15,3.988 -9.883,7.17 -3.733,3.184 -9.891,5.803 -13.886,6.945 -3.995,1.145 -13.104,15.176 -20.669,26.252 -7.562,11.077 -10.822,29.78 -16.669,42.538 -5.845,12.755 -18.788,26.1 -21.502,29.09 -2.716,2.99 -2.696,9.377 -2.696,9.377 -0.865,9.884 -8.553,21.554 -11.621,29.851 -3.453,9.335 -2.93,22.353 -5.316,34.491 -2.389,12.138 -9.185,21.832 -15.708,27.886 -6.52,6.054 -19.385,4.451 -22.615,5.43 -3.228,0.981 -12.675,3.185 -17.023,5.022 -4.35,1.838 -14.164,6.614 -17.396,8.206 -3.23,1.592 -3.597,4.531 -3.597,4.531 l 0.384,8.849 c 5.716,5.766 6.477,17.299 6.477,17.299 3.59,-0.264 5.717,6.159 5.45,8.518 -0.266,2.358 1.463,4.717 3.457,8.255 1.993,3.538 2.995,9.937 1.596,10.746 -2.313,1.338 -4.92,-1.441 -4.92,-1.441 1.597,9.958 -3.647,26.426 -3.647,26.426 0,0 -6.636,21.595 -31.607,20.045 -3.953,0 -24.588,-0.702 -31.371,-18.975 0,0 -5.243,-16.468 -3.646,-26.426 0,0 -2.609,2.78 -4.921,1.441 -1.4,-0.809 -0.398,-7.208 1.595,-10.746 1.995,-3.538 3.724,-5.897 3.458,-8.255 -0.266,-2.359 1.86,-8.781 5.451,-8.518 0,0 0.76,-11.533 6.476,-17.299 l 0.667,-8.919 c 0,0 -0.65,-2.939 -3.88,-4.531 -3.232,-1.592 -13.046,-6.368 -17.396,-8.206 -4.348,-1.837 -13.795,-4.041 -17.023,-5.022 -3.23,-0.979 -16.095,0.624 -22.615,-5.43 -6.523,-6.054 -13.319,-15.748 -15.708,-27.886 -2.386,-12.138 -1.863,-25.156 -5.316,-34.491 -3.068,-8.297 -10.756,-19.967 -11.621,-29.851 0,0 0.02,-6.387 -2.696,-9.377 -2.714,-2.99 -15.657,-16.335 -21.502,-29.09 -5.847,-12.758 -9.107,-31.461 -16.669,-42.538 -7.565,-11.076 -16.674,-25.107 -20.669,-26.252 -3.995,-1.142 -10.153,-3.761 -13.886,-6.945 -3.733,-3.182 -8.031,-6.013 -9.883,-7.17 -1.853,-1.158 -4.916,-3.891 -6.863,-5.105 -3.312,-2.067 -2.299,-6.431 1.642,-6.273 3.944,0.157 10.251,1.506 14.755,6.164 0,0 -1.042,-3.666 -3.432,-7.094 -2.387,-3.427 -3.951,-7.873 -5.916,-11.747 -1.965,-3.879 -3.488,-6.714 -4.972,-9.308 -1.476,-2.595 -4.999,-10.172 -1.548,-12.041 3.45,-1.872 5.548,2.73 8.102,6.372 2.553,3.645 6.062,10.478 8.811,13.093 0,0 0.07,-4.496 -2.138,-8.326 -2.211,-3.829 -9.713,-16.663 -6.116,-19.806 0,0 1.738,-1.559 4.24,1.1 2.504,2.659 5.206,8.519 7.072,11.166 1.871,2.65 5.897,11.63 6.871,12.821 0,0 -0.611,-6.855 -2.987,-10.909 -2.372,-4.051 -4.029,-7.608 -4.891,-9.57 0,0 -3.1,-6.658 -0.42,-7.89 2.684,-1.23 4.622,0.407 6.952,4.214 2.334,3.813 3.774,8.281 5.536,10.327 1.758,2.047 4.365,6.678 5.091,7.912 0.732,1.238 2.491,3.285 2.491,3.285 0,0 -3.83,-9.163 -5.293,-12.161 -2.278,-4.662 -2.188,-7.195 0.373,-8.402 0,0 0.699,-1.002 3.257,2.645 2.553,3.644 5.987,10.415 7.927,14.171 1.944,3.757 5.062,8.417 6.831,11.209 1.767,2.791 3.119,6.777 4.555,10.498 1.432,3.73 2.029,11.211 2.785,14.684 0.756,3.475 2.021,6.978 4.046,9.102 2.028,2.122 18.803,22.232 25.884,28.543 7.076,6.311 14.62,15.898 19.416,24.24 4.795,8.341 8.473,18.877 10.09,26.426 1.621,7.548 0.079,6.313 3.429,12.24 13.141,23.244 15.996,41.354 17.732,46.636 0,0 8.056,-31.56 11.727,-52.029 2.251,-12.553 4.861,-22.413 2.251,-36.497 -2.609,-14.085 -2.578,-14.749 -4.51,-23.265 -1.968,-8.66 -2.861,-13.845 -5.47,-22.296 -2.609,-8.452 -4.971,-24.251 -4.845,-38.336 0.123,-14.084 -1.586,-47.367 -1.564,-62.497 0.019,-15.125 1.863,-45.595 2.104,-53.531 0.242,-7.933 -3.961,-16.176 -4.634,-23.893 -0.674,-7.706 -1.859,-17.694 -4.617,-23.563 -2.757,-5.869 -10.703,-26.01 -12.094,-38.693 -1.389,-12.685 0.096,-38.154 2.421,-52.704 2.325,-14.559 5.425,-38.685 -1.212,-46.63 -6.638,-7.943 -10.436,-11.772 -14.64,-13.544 -4.207,-1.774 -9.606,-2.765 -12.28,-4.426 -2.675,-1.661 -4.042,-2.861 -5.987,-3.896 -1.938,-1.039 -3.769,-4.223 -1.403,-5.866 0,0 -1.427,-1.747 -0.693,-2.617 0.735,-0.87 1.529,-1.375 2.551,-1.303 0,0 -1.672,-1.699 -0.773,-3.096 0.894,-1.392 2.449,-1.16 3.103,-1.02 0,0 -2.372,-2.085 -1.003,-3.682 1.369,-1.599 3.636,-1.608 6.27,-0.939 0,0 -0.901,-2.329 1.552,-3.489 2.447,-1.162 5.551,-2.187 10.799,0.533 5.25,2.707 4.229,0.402 9.679,2.088 5.452,1.686 6.066,4.561 9.374,6.981 3.31,2.424 7.15,5.002 11.62,5.365 4.471,0.357 10.023,0.414 11.885,6.931 1.86,6.517 -2.084,10.041 -0.53,19.22 0,0 0.697,3.363 1.738,5.048 1.04,1.684 1.167,4.648 0.796,7.691 -0.363,3.041 -0.753,8.198 0.065,13.775 0.818,5.576 1.127,23.784 5.723,36.046 4.596,12.269 9.725,26.183 9.379,37.545 -0.346,11.363 2.532,22.426 4.169,29.851 1.635,7.423 6.802,17.108 8.56,27.495 1.757,10.385 10.94,50.026 12.898,60.851 3.184,17.595 10.544,38.274 12,42 l 4.104,11 15,-54 c 1.958,-10.825 11.141,-50.466 12.898,-60.851 1.758,-10.387 6.925,-20.072 8.56,-27.495 1.637,-7.425 4.515,-18.488 4.169,-29.851 -0.346,-11.362 4.783,-25.276 9.379,-37.545 4.596,-12.262 4.905,-30.47 5.723,-36.046 0.818,-5.577 0.428,-10.734 0.065,-13.775 -0.371,-3.043 -0.244,-6.007 0.796,-7.691 1.041,-1.685 1.738,-5.048 1.738,-5.048 1.554,-9.179 -2.39,-12.703 -0.53,-19.22 1.862,-6.517 7.414,-6.574 11.885,-6.931 4.47,-0.363 8.31,-2.941 11.62,-5.365 3.308,-2.42 3.922,-5.295 9.374,-6.981 5.45,-1.686 4.429,0.619 9.679,-2.088 5.248,-2.72 8.352,-1.695 10.799,-0.533 2.453,1.16 1.552,3.489 1.552,3.489 2.634,-0.669 4.901,-0.66 6.27,0.939 1.369,1.597 -1.003,3.682 -1.003,3.682 0.654,-0.14 2.209,-0.372 3.103,1.02 0.899,1.397 -0.773,3.096 -0.773,3.096 1.022,-0.072 1.816,0.433 2.551,1.303 0.734,0.87 -0.693,2.617 -0.693,2.617 2.366,1.643 0.535,4.827 -1.403,5.866 -1.945,1.035 -3.312,2.235 -5.987,3.896 -2.674,1.661 -8.073,2.652 -12.28,4.426 -4.204,1.772 -8.002,5.601 -14.64,13.544 -6.637,7.945 -3.537,32.071 -1.212,46.63 2.325,14.55 3.81,40.019 2.421,52.704 -1.391,12.683 -9.337,32.824 -12.094,38.693 -2.758,5.869 -3.943,15.857 -4.617,23.563 -0.673,7.717 -4.876,15.96 -4.634,23.893 0.241,7.936 2.085,38.406 2.104,53.531 0.022,15.13 -1.687,48.413 -1.564,62.497 0.126,14.085 -2.235,29.884 -4.845,38.336 -2.609,8.451 -3.502,13.636 -5.47,22.296 -1.932,8.516 -1.901,9.18 -4.51,23.265 -2.61,14.084 0,23.944 2.251,36.497 3.671,20.469 11.727,52.029 11.727,52.029 1.737,-5.282 4.591,-23.392 17.732,-46.636 3.35,-5.927 1.808,-4.692 3.429,-12.24 1.618,-7.549 5.295,-18.085 10.09,-26.426 4.796,-8.342 12.34,-17.929 19.416,-24.24 7.081,-6.311 23.856,-26.421 25.884,-28.543 2.025,-2.124 3.29,-5.627 4.046,-9.102 0.756,-3.473 1.353,-10.954 2.785,-14.684 1.436,-3.721 2.788,-7.707 4.555,-10.498 1.769,-2.792 4.887,-7.452 6.831,-11.209 1.94,-3.756 5.374,-10.527 7.928,-14.171 2.557,-3.647 3.256,-2.645 3.256,-2.645 2.561,1.207 2.651,3.74 0.373,8.402 -1.463,2.998 -5.293,12.161 -5.293,12.161 0,0 1.759,-2.047 2.491,-3.285 0.726,-1.234 3.333,-5.865 5.091,-7.912 1.762,-2.046 3.202,-6.514 5.536,-10.327 2.33,-3.807 4.268,-5.444 6.952,-4.214 2.68,1.232 -0.42,7.89 -0.42,7.89 -0.862,1.962 -2.519,5.519 -4.891,9.57 -2.376,4.054 -2.987,10.909 -2.987,10.909 0.975,-1.191 5,-10.171 6.871,-12.821 1.866,-2.647 4.568,-8.507 7.072,-11.166 2.502,-2.659 4.24,-1.1 4.24,-1.1 3.597,3.143 -3.905,15.977 -6.116,19.806 -2.208,3.83 -2.138,8.326 -2.138,8.326 2.749,-2.615 6.258,-9.448 8.811,-13.093 2.554,-3.642 4.652,-8.244 8.102,-6.372 3.451,1.869 -0.072,9.446 -1.548,12.041 -1.484,2.594 -3.007,5.429 -4.972,9.308 -1.965,3.874 -3.529,8.32 -5.916,11.747 -2.389,3.428 -3.432,7.094 -3.432,7.094 4.504,-4.658 10.811,-6.007 14.755,-6.164 3.947,-0.123 4.961,4.241 1.648,6.308 z" />
        </g>
      </g>
    </g>
  </g>
<text
   id="text3126"
   style="text-align:start;letter-spacing:0;word-spacing:0;writing-mode:lr-tb;text-anchor:start;stroke-width:0.732061"
   line-height="125%"
   xml:space="preserve"
   font-size="12.2986px"
   font-style="normal"
   font-stretch="normal"
   font-variant="normal"
   y="232.50311"
   x="0.21248215"
   font-weight="normal"><tspan
     id="tspan3128"
     y="232.50311"
     x="0.21248215"
     style="stroke-width:0.732061">Right</tspan></text>
<text
   id="text3126-1"
   style="text-align:start;letter-spacing:0;word-spacing:0;writing-mode:lr-tb;text-anchor:start;stroke-width:0.732061"
   line-height="125%"
   xml:space="preserve"
   font-size="12.2986px"
   font-style="normal"
   font-stretch="normal"
   font-variant="normal"
   y="230.54446"
   x="443.84204"
   font-weight="normal"><tspan
     id="tspan3128-7"
     y="230.54446"
     x="443.84204"
     style="stroke-width:0.732061">Right</tspan></text>
<text
   id="text3126-1-4"
   style="text-align:start;letter-spacing:0;word-spacing:0;writing-mode:lr-tb;text-anchor:start;stroke-width:0.732061"
   line-height="125%"
   xml:space="preserve"
   font-size="12.2986px"
   font-style="normal"
   font-stretch="normal"
   font-variant="normal"
   y="233.48248"
   x="222.51692"
   font-weight="normal"><tspan
     id="tspan4795"
     y="233.48248"
     x="222.51692"
     style="stroke-width:0.732061">Left</tspan></text>
<text
   id="text3126-17"
   style="text-align:start;letter-spacing:0;word-spacing:0;writing-mode:lr-tb;text-anchor:start;stroke-width:0.732061"
   line-height="125%"
   xml:space="preserve"
   font-size="11.713px"
   font-style="normal"
   font-stretch="normal"
   font-variant="normal"
   y="272.08115"
   x="31.725197"
   font-weight="normal"
   fill="#333333"><tspan
     id="tspan3128-4"
     y="272.08115"
     x="31.725197"
     style="stroke-width:0.732061">Knee</tspan></text>
<text
   id="text3126-17-0"
   style="text-align:start;letter-spacing:0;word-spacing:0;writing-mode:lr-tb;text-anchor:start;stroke-width:0.732061"
   line-height="125%"
   xml:space="preserve"
   font-size="11.713px"
   font-style="normal"
   font-stretch="normal"
   font-variant="normal"
   y="319.49466"
   x="97.15184"
   font-weight="normal"
   fill="#333333"><tspan
     id="tspan3128-4-9"
     y="319.49466"
     x="97.15184"
     style="stroke-width:0.732061">Patellar</tspan></text>
<path
   id="path5910-2-51"
   stroke-linejoin="miter"
   d="M 97.152637,309.47405 84.722234,299.30792"
   stroke-opacity="0.627451"
   stroke="#000"
   stroke-linecap="butt"
   stroke-width="0.763847px"
   fill="#FFF" />
<text
   id="text3126-17-7"
   style="text-align:start;letter-spacing:0;word-spacing:0;writing-mode:lr-tb;text-anchor:start;stroke-width:0.732061"
   line-height="125%"
   xml:space="preserve"
   font-size="11.713px"
   font-style="normal"
   font-stretch="normal"
   font-variant="normal"
   y="282.66531"
   x="30.573139"
   font-weight="normal"
   fill="#333333"><tspan
     id="tspan3128-4-1"
     y="282.66531"
     x="30.573139"
     style="stroke-width:0.732061">Areas</tspan></text>
<text
   id="text3126-17-5"
   style="text-align:start;letter-spacing:0;word-spacing:0;writing-mode:lr-tb;text-anchor:start;stroke-width:0.732061"
   line-height="125%"
   xml:space="preserve"
   font-size="11.713px"
   font-style="normal"
   font-stretch="normal"
   font-variant="normal"
   y="331.02289"
   x="93.410782"
   font-weight="normal"
   fill="#333333"><tspan
     id="tspan3128-4-2"
     y="331.02289"
     x="93.410782"
     style="stroke-width:0.732061">Tendons</tspan></text>
<path
   id="path5910-2-51-7"
   stroke-linejoin="miter"
   d="m 135.11733,310.95282 12.85208,-11.0673"
   stroke-opacity="0.627451"
   stroke="#000"
   stroke-linecap="butt"
   stroke-width="0.810457px"
   fill="#FFF" />
<path
   id="path5910-2-51-1"
   stroke-linejoin="miter"
   d="M 79.136608,280.00126 61.529067,272.23409"
   stroke-opacity="0.627451"
   stroke="#000"
   stroke-linecap="butt"
   stroke-width="0.794676px"
   fill="#FFF" />
<path
   id="path3173"
   stroke-linejoin="miter"
   d="m 61.575189,272.65137 76.690751,2.84039 0.94684,-0.47339"
   stroke-opacity="0.627451"
   stroke="#000"
   stroke-linecap="butt"
   stroke-width="0.732061px"
   fill="none" />
</svg>
